<svg width="468" height="495" viewBox="0 0 468 495" fill="none" xmlns="http://www.w3.org/2000/svg">
<path d="M343.653 391.247C374.162 422.665 404.415 453.839 434.843 485.192C428.784 489.722 420.072 492.599 410.787 493.762C405.349 494.443 399.825 494.686 394.339 494.694C345.675 494.762 297.011 494.736 248.347 494.728C241.049 494.727 241.033 494.702 241.018 487.615C241.001 479.141 241.014 470.668 241.014 462.572C242.928 460.736 244.896 460.974 246.629 460.818C263.954 459.261 272 443.128 273.546 430.43C274.003 426.671 271.574 424.161 267.563 423.902C255.736 423.137 235.85 436.2 236.547 451.999C236.598 453.164 236.55 454.332 236.55 455.498C236.55 457.42 235.883 458.686 233.692 458.757C231.402 458.83 230.918 457.529 230.882 455.593C230.576 438.953 217.919 427.746 204.447 424.521C195.708 422.429 191.58 426.261 193.97 434.808C197.503 447.441 203.535 457.909 217.954 460.683C221.018 461.273 223.873 459.613 227.51 460.756C227.51 471.009 227.535 481.439 227.486 491.869C227.478 493.681 226.197 494.479 224.514 494.598C223.186 494.692 221.85 494.705 220.518 494.705C169.854 494.716 119.19 494.712 68.526 494.733C56.1659 494.738 44.3456 492.569 33.5039 486.306C32.6587 485.818 31.8506 485.265 30.7505 484.569C32.0886 480.881 34.9756 478.567 37.4597 476.03C64.1623 448.765 91.8713 422.522 119.078 395.769C148.9 366.445 178.692 337.091 208.504 307.758C222.968 293.526 242.919 292.952 257.674 307.074C278.135 326.659 298.129 346.73 318.343 366.573C326.667 374.744 335.044 382.861 343.653 391.247ZM201.839 378.836C195.996 379.255 194.149 381.353 194.739 387.026C194.876 388.341 195.256 389.632 195.541 390.93C198.896 406.212 208.329 414.792 223.748 416.223C226.85 416.511 227.152 418.244 227.242 420.534C227.334 422.872 227.258 425.245 229.535 426.795C232.081 428.529 234.856 428.771 237.624 427.706C240.378 426.646 240.763 424.085 240.9 421.497C241.027 419.096 240.372 416.002 244.348 416.313C258.796 417.444 271.192 400.337 272.047 386.068C272.407 380.057 270.78 378.583 264.814 378.84C263.494 378.897 262.159 379.076 260.874 379.378C245.978 382.878 236.579 394.079 235.639 409.456C235.512 411.532 235.555 413.757 232.647 413.579C230.076 413.423 230.881 411.366 230.82 409.773C230.215 394.001 218.618 381.288 201.839 378.836ZM248.399 359.005C248.868 348.952 245.051 340.594 238.387 333.294C235.476 330.106 232.554 329.944 229.253 332.592C218.818 340.964 216.053 364.293 224.281 374.765C228.481 380.11 233.75 381.215 239.615 377.821C246.494 373.84 248.061 367.176 248.399 359.005Z" fill="black"/>
<path d="M466.674 439.595C465.236 452.745 459.839 463.43 451.05 472.159C401.001 422.958 351.302 374.101 301.33 324.975C310.688 315.641 319.818 306.438 329.053 297.342C364.19 262.736 399.375 228.179 434.499 193.56C438.174 189.938 441.768 186.196 445.039 182.214C448.177 178.395 450.394 179.719 452.952 182.736C463.109 194.717 467.537 208.64 467.529 224.212C467.499 281.872 467.594 339.533 467.513 397.193C467.493 411.178 468.14 425.186 466.674 439.595Z" fill="black"/>
<path d="M81.4356 408.674C59.5024 430.061 37.8059 451.181 15.7272 472.673C7.84239 463.94 2.95057 454.201 1.04386 442.955C0.347819 438.85 -0.00218672 434.721 1.02787e-05 430.537C0.0367533 360.742 -0.00386544 290.946 0.0473736 221.151C0.0580546 206.622 4.64411 193.745 14.4413 182.787C17.2449 179.651 19.1186 179.174 22.365 182.518C63.091 224.463 105.334 264.881 146.921 305.961C152.133 311.109 157.068 316.545 162.405 321.556C165.282 324.258 165.279 326.169 162.493 328.885C149.018 342.019 135.679 355.293 122.272 368.497C108.751 381.813 95.2066 395.105 81.4356 408.674Z" fill="black"/>
<path d="M418.213 187.571C412.818 192.871 399.194 205.12 393.991 210.227C391.862 207.856 392.502 205.947 392.499 204.217C392.474 190.055 391.899 175.857 392.71 161.74C393.825 142.327 378.538 132.762 363.911 132.837C307.265 133.124 250.616 132.93 193.969 132.919C164.146 132.914 134.322 132.865 104.499 132.944C91.6026 132.978 83.5428 138.452 79.2356 149.537C78.115 152.421 77.9895 155.371 77.9795 158.374C77.9301 173.202 77.8877 188.03 77.8174 202.858C77.8074 204.975 78.1152 207.183 76.1465 209.964C64.5879 199.784 51.5645 183.571 51.5645 183.571C51.5645 183.571 51.5645 177.823 51.5645 162.751C51.5645 162.751 52.3112 146.847 53.1923 143.453C59.3235 119.836 76.1223 106.678 100.739 106.612C154.053 106.469 207.369 106.577 260.685 106.571C297.006 106.567 333.329 106.315 369.647 106.618C390.397 106.79 405.414 116.78 414.377 135.523C417.048 141.107 418.565 147.024 418.213 153.391V187.571Z" fill="black"/>
<path d="M162.827 49.0694C174.714 37.1407 186.265 25.3747 198.011 13.8064C216.924 -4.82127 251.819 -4.91221 271.699 15.4399C294.856 39.1468 318.32 62.5537 341.645 86.0972C342.443 86.9025 343.382 87.6512 343.463 89.3156C341.151 90.4674 338.645 89.8583 336.272 89.8835C327.944 89.972 319.613 89.8374 311.287 89.9877C308.229 90.0429 306.036 89.0824 303.843 86.8766C286.582 69.5192 269.31 52.1695 251.785 35.0811C241.302 24.8593 225.772 25.0382 215.44 35.4303C198.186 52.7841 179.689 68.8877 163.389 87.1994C162.168 88.5709 160.856 89.8903 158.8 89.8902C147.336 89.8895 135.871 89.8899 122.683 89.8899C136.655 75.6822 149.617 62.5016 162.827 49.0694Z" fill="black"/>
<path d="M221.372 178.118C223.344 167.537 229.67 163.157 238.126 166.181C242.842 167.867 245.514 171.232 245.617 176.294C245.743 182.458 245.769 188.627 245.643 194.79C245.579 197.966 246.73 199.337 250.006 199.254C255.501 199.116 261.006 199.148 266.502 199.289C273.708 199.475 278.627 204.124 278.629 210.535C278.631 217.629 274.123 222.392 266.799 222.676C261.474 222.882 256.127 222.923 250.807 222.676C246.857 222.492 245.583 224 245.618 227.88C245.759 243.543 245.506 259.209 245.735 274.87C245.801 279.386 244.538 280.931 240.05 279.883C235.49 278.818 230.81 278.251 226.194 279.501C222.347 280.543 221.134 279.18 221.17 275.356C221.309 260.527 221.254 245.696 221.262 230.866C221.267 222.63 221.259 222.684 213.148 222.623C207.991 222.584 202.813 222.949 197.686 222.029C191.687 220.953 188.626 216.762 189.006 210.098C189.372 203.693 193.209 199.51 199.187 199.331C204.681 199.166 210.201 198.998 215.678 199.338C220.221 199.62 221.505 197.825 221.266 193.551C220.988 188.571 221.274 183.559 221.372 178.118Z" fill="black"/>
<path d="M150.329 213.74C141.164 213.73 132.497 213.824 123.834 213.676C116.724 213.555 112.439 209.569 112.238 203.272C112.054 197.515 116.383 192.653 123.095 192.486C137.416 192.129 151.756 192.14 166.08 192.428C172.797 192.563 177.371 197.366 177.255 202.952C177.124 209.336 172.43 213.628 165.326 213.736C160.495 213.81 155.661 213.744 150.329 213.74Z" fill="black"/>
<path d="M328.329 213.82C319.354 213.82 310.878 213.875 302.403 213.804C295.132 213.742 289.947 208.817 290.08 202.27C290.201 196.336 294.873 192.333 302.054 192.292C315.348 192.215 328.643 192.21 341.937 192.294C349.203 192.339 354.514 196.951 354.575 202.982C354.642 209.583 349.809 213.693 341.79 213.79C337.47 213.843 333.149 213.813 328.329 213.82Z" fill="black"/>
<path d="M177.627 243.799C177.355 251.156 174.013 255.268 167.048 255.59C156.925 256.056 146.735 256.377 136.641 255.189C129.439 254.341 126.274 249.979 127.052 243.197C127.649 238.002 131.162 234.566 136.847 234.442C146.993 234.221 157.148 234.229 167.295 234.399C172.995 234.495 175.789 237.179 177.627 243.799Z" fill="black"/>
<path d="M305.478 255.696C301.649 255.813 298.346 255.536 295.251 254.142C290.804 252.14 288.571 248.619 289.173 243.791C289.759 239.098 292.33 235.347 297.248 234.944C308.662 234.007 320.144 233.909 331.554 234.909C336.847 235.373 340.347 240.037 340.249 244.859C340.147 249.897 336.862 254.145 331.792 255.078C323.235 256.653 314.566 255.288 305.478 255.696Z" fill="black"/>
</svg>
