<svg width="100" height="100" viewBox="0 0 100 100" fill="none" xmlns="http://www.w3.org/2000/svg">
<path d="M7.75797 58.4232C7.54068 56.1635 7.32339 53.9039 7.3436 51.3681C7.37586 50.7282 7.17063 50.3643 6.9654 50.0005C6.46454 37.4731 9.54817 26.0393 18.225 16.7451C24.7192 9.78865 32.5008 4.12162 42.0877 2.75947C56.8404 0.663335 70.1993 3.9503 81.17 14.9995C87.8967 21.7744 91.9637 29.7405 94.0326 39.0896C93.6694 39.5586 93.4498 39.7849 93.2302 40.0111C93.6256 40.1591 94.0209 40.3072 94.4163 40.4552C94.6786 43.1243 94.9959 45.7907 95.1229 48.4662C95.1365 48.7524 94.0404 49.0913 93.0363 49.3774C87.3378 49.3491 82.0619 49.3491 76.7861 49.3491C76.7746 49.8505 76.7632 50.3518 76.7517 50.8532C81.5978 50.9802 86.444 51.1073 91.2661 51.421C90.5249 54.0359 92.0804 54.9329 93.9461 55.6208C93.5445 57.0345 93.1429 58.4482 92.474 59.8359C91.5275 59.3489 90.8482 58.8878 89.984 58.4458C89.4315 58.7823 89.0641 59.0997 88.6966 59.4171C88.9995 59.6497 89.3023 59.8824 89.6048 60.3224C89.6052 60.9448 89.6059 61.3598 89.6067 61.7747C88.3607 61.767 87.1147 61.7594 85.8633 61.564C86.0826 61.1254 86.3074 60.8744 86.5322 60.6234C86.421 60.5268 86.3098 60.4302 86.1985 60.3337C85.9209 60.7029 85.6432 61.0721 85.3655 61.4413C85.0532 61.6319 84.7409 61.8224 84.2548 61.9416C84.081 61.8703 83.9714 61.7142 83.9507 61.5507C83.3858 61.3359 82.8416 61.2846 82.1696 61.2386C81.9381 61.4267 81.8344 61.6095 81.7372 61.9345C81.7458 62.1715 81.748 62.2664 81.564 62.3603C81.1296 62.3578 80.8816 62.3563 80.4426 62.347C79.8701 62.3284 79.4885 62.3176 78.9263 62.229C78.1889 61.6687 77.6258 61.1934 77.0766 60.7024C73.7937 57.767 69.7768 56.4058 65.548 56.1244C61.6924 55.8679 58.4194 57.9152 55.2309 60.1642C54.9515 60.3174 54.8363 60.4519 54.6432 60.7781C53.3232 62.4798 52.4139 64.6549 50.8355 65.3867C49.3558 66.0728 49.6915 66.7338 49.7517 67.6232C49.8778 69.487 50.7369 71.5954 50.1338 73.1539C48.8276 76.5292 47.5021 80.1025 44.1481 81.9914C44.1241 81.2753 44.1176 80.7975 44.2287 80.2634C44.4926 80.1018 44.5938 79.9636 44.5992 79.6516C44.4085 79.2469 44.2686 78.9829 44.2169 78.5435C47.7507 74.7698 47.7099 69.274 45.2922 65.3721C43.2564 62.0863 37.4295 60.1819 33.0369 61.41C28.09 62.793 23.9242 65.9991 23.9327 71.6864C23.939 75.8301 26.6587 79.0702 33.3086 81.5562C32.507 80.059 32.0564 79.0978 31.4984 78.2035C30.6874 76.9037 29.799 75.6521 29.1656 74.2408C29.5126 73.9797 29.6376 73.8576 29.9565 73.7611C30.8858 74.2951 31.5791 74.8957 32.3796 75.2613C32.6525 75.3859 33.1952 74.9196 33.7749 74.6889C34.0628 72.8367 34.1904 71.0189 34.4934 69.0154C35.0063 69.5418 35.5887 70.2383 35.6347 70.9687C35.7666 73.0623 35.6812 75.1696 35.6812 78.012C38.2127 76.1439 40.1695 74.6999 42.3328 73.4133C42.6952 73.6463 42.851 73.7218 42.9892 74.0098C41.1091 76.43 39.2467 78.6377 37.3309 80.984C37.2679 81.3473 37.2582 81.5722 37.2485 81.7971C37.475 81.534 37.7015 81.271 38.1453 80.9634C39.7148 80.5422 41.0671 80.1654 42.4404 79.9903C42.6334 80.9776 42.8053 81.7631 42.8267 82.6854C40.8447 83.3672 39.0132 83.9121 36.9338 84.4144C35.5553 84.5412 34.4246 84.7107 33.2939 84.8802C29.4448 83.739 25.7159 82.3817 23.2625 78.9107C19.6797 73.8419 19.9857 69.2826 24.3252 62.9935C23.9225 62.7774 23.5249 62.5641 22.6946 62.3526C21.2531 62.3545 20.2442 62.3545 19.2775 62.3545C19.1138 61.5372 18.996 60.9488 18.805 59.9946C17.2123 62.2785 17.8056 63.805 19.3743 65.3532C19.1319 66.0141 18.9016 66.4914 18.8422 66.6146C17.9953 66.0743 17.2841 65.6205 16.5409 65.0645C16.3954 64.7807 16.2819 64.5992 16.1683 64.4176C16.851 62.8928 16.2729 62.4773 14.5748 62.6826C14.5337 62.2725 14.7112 62.0345 14.9811 61.747C15.1085 61.6377 15.1873 61.5458 15.171 61.5235C15.0931 61.417 14.9894 61.3293 14.8933 61.048C14.8913 60.6117 14.8908 60.3624 15.0348 59.9911C14.7083 59.3879 14.2373 58.9066 13.6488 58.2798C13.0472 58.0443 12.563 57.9545 11.9873 57.7431C11.6708 57.6521 11.4459 57.6828 11.2209 57.7134C11.5063 57.9517 11.7917 58.19 12.1938 58.5742C12.7939 58.811 13.2772 58.9019 13.8221 59.1373C14.031 59.5586 14.1782 59.8354 14.2205 60.2525C13.6236 60.6736 13.1316 60.9544 12.4462 61.2041C10.7546 60.2565 9.25628 59.3398 7.75797 58.4232ZM54.6422 55.0049C54.6422 55.0049 54.6726 54.861 55.0319 54.9823C55.3651 54.6738 55.6983 54.3652 56.2101 53.9141C56.2101 53.9141 56.357 53.739 56.7642 53.793C58.5225 52.9253 60.7955 52.6184 60.9556 49.9989C60.9556 49.9989 60.9301 49.9687 61.3216 50.0626C61.9199 49.4614 62.5182 48.8602 63.3212 47.9092C64.2013 45.0143 65.0814 42.1194 66.1953 39.5365C68.5765 39.4749 67.3514 37.6226 67.6818 36.5427C67.082 36.3645 66.4822 36.1862 65.7281 35.6241C64.199 28.9189 60.0164 24.4686 53.7726 21.9484C50.7227 20.7173 47.5367 20.6936 43.67 22.114C53.3053 26.8846 55.6771 34.3505 51.6344 43.0101C48.1283 50.5201 41.0257 51.8433 33.0787 50.2708C34.6289 52.1147 36.0896 54.3522 38.015 54.8732C43.0869 56.246 48.3516 57.1371 53.815 55.835C54.136 55.5772 54.4569 55.3193 54.6422 55.0049ZM25.6637 59.5487C24.3567 59.4627 23.0498 59.3767 21.7428 59.2907C21.7394 59.6426 21.7361 59.9944 21.7328 60.3463C22.9971 60.4569 24.2615 60.5676 25.777 60.9618C26.3798 60.7531 26.9826 60.5443 27.5854 60.3356C27.098 60.0738 26.6107 59.8121 25.6637 59.5487ZM69.3065 30.2699C68.231 31.2096 67.1555 32.1492 66.3503 32.8528C68.3982 33.948 70.3447 34.9742 72.2763 36.0276C73.4632 36.6749 74.3658 37.0081 75.0834 35.2777C75.4521 34.3886 76.7396 33.9239 77.3571 33.0808C77.8528 32.4039 78.438 30.9359 78.1744 30.6915C75.3917 28.1116 72.4484 25.7048 69.5335 23.2691C69.4747 23.2199 69.2256 23.3984 69.3651 23.3355C69.3651 25.5904 69.3651 27.6895 69.3065 30.2699ZM22.8505 28.5506C23.6631 29.5187 24.4757 30.4867 25.3027 31.4719C26.1971 30.1435 27.1026 28.7987 27.7727 27.8034C26.876 26.3517 26.0289 24.9806 25.2516 23.7222C24.377 25.209 23.481 26.7319 22.8505 28.5506ZM72.7732 16.6844C72.3826 16.6741 71.7775 16.4985 71.6371 16.6808C70.8769 17.6683 70.2316 18.7442 69.5767 19.7439C70.4678 20.5376 71.5165 21.4715 72.5212 22.3663C73.2188 21.3616 73.9096 20.3665 74.4893 19.5317C73.9326 18.6831 73.4166 17.8966 72.7732 16.6844ZM78.027 43.751C79.2587 43.6199 80.4903 43.4888 81.722 43.3577C81.6673 43.0958 81.6127 42.834 81.5581 42.5721C78.7298 42.5721 75.9015 42.5721 73.0731 42.5721C73.0759 42.9689 73.0787 43.3657 73.0815 43.7625C74.5527 43.7625 76.024 43.7625 78.027 43.751ZM88.0928 56.1043C88.2599 56.6082 88.427 57.1121 88.5941 57.616C88.8919 57.3288 89.1897 57.0416 89.4876 56.7543C89.1129 56.4443 88.7382 56.1344 88.0928 56.1043ZM82.6178 58.5913C82.4669 58.4332 82.3161 58.275 82.1653 58.1169C82.0998 58.1794 81.9741 58.2929 81.9776 58.2971C82.1184 58.4639 82.271 58.6207 82.6178 58.5913ZM18.3698 57.6406C18.3722 57.4224 18.3747 57.2042 18.3771 56.986C18.2866 56.9851 18.1173 56.9781 18.1168 56.9843C18.0999 57.2014 18.0989 57.4198 18.3698 57.6406Z" fill="#765B00"/>
<path d="M33.3008 85.1383C34.4247 84.7106 35.5554 84.5411 36.7556 84.5779C36.6287 87.0472 36.4321 89.3102 36.0658 91.6195C36.1268 92.0288 36.3576 92.3917 36.759 92.9472C41.7497 93.1674 46.5698 93.2044 51.39 93.2198C55.6272 93.2333 59.8644 93.2226 64.3327 93.2226C64.3327 89.7012 64.3327 86.4752 64.3327 83.2042C58.5739 81.3815 53.9245 78.5273 53.2787 71.7997C53.189 71.4024 52.9833 71.0902 52.7395 70.6426C52.7215 70.4156 52.7416 70.324 52.9412 70.1871C53.4151 68.9062 53.7095 67.6704 53.9298 66.2424C55.6062 64.0506 57.3567 62.0511 59.319 60.0736C60.195 59.7923 60.8592 59.4891 61.761 59.1523C64.8785 58.3952 67.7425 58.0188 70.5107 59.7249C70.0392 60.5647 69.6208 61.2313 69.1065 61.8131C67.3651 63.7831 67.817 67.4997 69.8613 68.8491C68.9254 70.0827 68.0967 71.1357 67.1913 72.0364C66.8408 71.8537 66.5672 71.8233 66.2935 71.7929C66.5801 72.0191 66.8666 72.2453 67.1849 72.6593C67.5945 72.9496 68.1872 73.2581 68.3171 73.1227C69.6894 71.6924 70.988 70.1913 72.7977 68.1585C71.4644 68.1585 70.9816 68.1585 70.5049 67.9291C71.6413 67.0439 72.7705 66.386 73.9027 65.7331C74.9054 65.1548 75.9113 64.5822 77.0859 64.1298C77.5964 64.8303 77.9369 65.4081 78.2774 65.9859C78.36 66.3381 78.4426 66.6904 78.5112 67.4216C78.4902 70.112 78.4832 72.4232 78.4762 74.7345C77.1371 79.0905 74.3723 81.3287 67.7991 83.2445C67.7991 86.4445 67.7991 89.7223 67.7991 93.3887C70.2945 93.3887 72.6778 93.3887 75.3105 93.6518C75.3737 94.6259 75.1874 95.337 75.0012 96.0481C68.2528 96.0213 61.5044 95.9945 54.48 95.7385C53.8252 95.6546 53.4464 95.7998 53.0677 95.945C43.7227 96.0481 34.3764 96.0874 25.0339 96.2997C22.7346 96.3519 20.4566 97.0702 18.1505 97.2619C17.4633 97.3191 16.7138 96.6262 15.9929 96.277C16.5671 95.8154 17.1041 95.0146 17.7216 94.9467C22.1217 94.4629 26.5328 94.0122 30.9524 93.8057C32.6597 93.7259 33.3429 93.1893 33.3233 91.5565C33.2986 89.5034 33.3111 87.4498 33.3008 85.1383ZM63.8125 69.5794C63.9796 68.795 64.1467 68.0107 64.3138 67.2263C63.8843 66.9018 63.4549 66.5774 63.0254 66.253C62.7163 66.9938 62.4072 67.7347 61.7077 68.2927C61.2536 68.191 60.7995 68.0894 60.3455 67.9877C60.2031 68.1908 60.0607 68.3939 59.9183 68.597C61.1765 69.9299 62.4347 71.2628 63.6928 72.5958C63.9473 72.4195 64.2018 72.2432 64.4562 72.067C64.1125 71.3066 63.7688 70.5461 63.8125 69.5794ZM58.775 74.0291C60.5199 77.6848 62.3546 79.0126 64.3568 77.7007C62.6195 76.2449 60.9461 74.8427 59.2158 73.1373C58.9586 73.0314 58.7014 72.9256 58.4441 72.8197C58.5582 73.09 58.6723 73.3602 58.775 74.0291ZM72.0656 76.5721C72.5871 75.7021 73.1086 74.832 73.7976 73.6825C70.022 74.6247 67.8364 76.9921 68.0518 79.9925C69.427 78.835 70.6049 77.8436 72.0656 76.5721Z" fill="#765B00"/>
<path d="M80.6384 90.5467C78.2216 90.5464 76.0823 90.5464 73.943 90.5464C73.9019 90.1056 73.8607 89.6648 73.8196 89.2241C74.7789 88.915 75.7342 88.3534 76.6983 88.3375C83.2233 88.2303 89.7504 88.2073 96.2762 88.2498C97.0665 88.2549 97.8532 88.8145 98.6415 89.117C97.8716 89.5748 97.1116 90.4086 96.33 90.4295C91.1946 90.5665 86.0546 90.5282 80.6384 90.5467Z" fill="#765B00"/>
<path d="M18.5832 92.4577C14.4587 93.0958 10.5611 93.6359 5.96118 94.2734C6.60686 93.072 6.82649 92.1707 7.15178 92.1308C13.7433 91.3221 20.2164 88.8402 26.9624 90.074C26.9955 90.3566 27.0286 90.6391 27.0618 90.9217C24.3112 91.401 21.5607 91.8804 18.5832 92.4577Z" fill="#765B00"/>
<path d="M91.2901 51.2344C86.4439 51.1073 81.5978 50.9802 76.7517 50.8532C76.7632 50.3518 76.7746 49.8505 76.786 49.3491C82.0619 49.3491 87.3377 49.3491 92.8038 49.425C93.0062 49.8332 93.0183 50.1656 92.8002 50.7178C92.1432 51.0366 91.7167 51.1355 91.2901 51.2344Z" fill="#765B00"/>
<path d="M81.7503 62.3612C81.7481 62.2664 81.7459 62.1715 81.8805 61.9364C82.1127 61.7964 82.2081 61.7968 82.5127 61.798C83.1384 61.7706 83.5549 61.7424 83.9714 61.7141C83.9714 61.7141 84.081 61.8702 84.1163 61.9588C83.6748 64.3658 85.487 63.2072 86.4314 63.7184C86.9718 64.6525 87.4289 65.3617 87.886 66.0709C88.063 65.9718 88.24 65.8727 88.417 65.7736C88.4487 65.0588 88.4804 64.3441 88.5121 63.6294C88.7466 63.6153 88.9812 63.6013 89.4839 63.8668C90.0249 64.3164 90.2978 64.4864 90.5707 64.6565C89.8357 65.9904 89.1008 67.3243 88.1523 68.5015C87.9671 67.9377 87.9955 67.5307 88.0135 67.2723C87.3518 67.3337 86.7935 67.3855 86.1413 67.303C84.5567 67.0689 83.0658 66.9692 81.575 66.8694C81.575 66.8694 81.5193 66.7876 81.5861 66.4836C81.6811 65.6603 81.7094 65.1411 81.8257 64.4923C82.3683 64.2607 82.823 64.1588 83.5548 63.9947C82.7985 63.3101 82.2744 62.8357 81.7503 62.3612ZM84.9417 65.3447C84.7578 65.5308 84.5739 65.7168 84.3899 65.9029C84.6016 66.0017 84.8132 66.1005 85.0249 66.1993C85.1002 65.9281 85.1756 65.6569 84.9417 65.3447Z" fill="#765B00"/>
<path d="M75.2592 96.0983C75.1873 95.337 75.3735 94.6259 75.5624 93.7299C77.8154 93.5222 80.0658 93.4995 82.5693 93.7349C82.8294 94.6349 82.8363 95.2768 82.8431 95.9187C80.4012 95.9953 77.9593 96.072 75.2592 96.0983Z" fill="#765B00"/>
<path d="M16.5728 65.1668C17.284 65.6205 17.9952 66.0743 18.8422 66.6146C18.9015 66.4915 19.1318 66.0141 19.4534 65.1912C20.0494 64.5776 20.5541 64.3096 21.0588 64.0415C18.8263 69.3038 18.2744 69.6032 12.2292 68.4465C12.5458 67.7192 13.0433 67.0494 13.1263 67.0974C15.4037 68.4125 15.86 66.5691 16.5728 65.1668Z" fill="#765B00"/>
<path d="M7.7417 58.6335C9.2563 59.3396 10.7546 60.2563 12.5094 61.3475C13.0911 61.9305 13.4164 62.3389 13.7416 62.7473C12.231 62.9723 10.7205 63.1974 9.1478 63.4316C8.65069 61.8283 8.18805 60.3362 7.7417 58.6335Z" fill="#765B00"/>
<path d="M91.266 51.4209C91.7166 51.1354 92.1432 51.0365 92.7828 50.8835C96.6151 51.4611 93.9616 53.6683 94.0169 55.399C92.0803 54.9328 90.5248 54.0358 91.266 51.4209Z" fill="#765B00"/>
<path d="M16.5408 65.0643C15.86 66.5689 15.4037 68.4122 13.1263 67.0971C13.0432 67.0492 12.5458 67.719 12.1871 68.2137C11.5408 67.626 10.9488 66.8788 10.6204 65.9284C11.8383 64.7661 14.0959 67.776 14.3212 64.5965C14.8166 64.4685 15.312 64.3405 15.9878 64.3149C16.2818 64.5989 16.3953 64.7805 16.5408 65.0643Z" fill="#765B00"/>
<path d="M85.114 93.8015C88.7163 93.8015 92.3186 93.8015 95.9209 93.8015C95.9374 93.9429 95.9539 94.0842 95.9704 94.2256C94.4828 94.4414 92.9966 94.6668 91.5073 94.8702C90.1833 95.0509 88.4529 93.8816 87.7031 96.0771C87.6406 96.2603 86.6632 96.1311 85.8857 95.8903C85.4783 95.0229 85.2962 94.4122 85.114 93.8015Z" fill="#765B00"/>
<path d="M21.2201 63.9695C20.5541 64.3093 20.0494 64.5774 19.4656 65.0075C17.8055 63.8047 17.2122 62.2783 18.8049 59.9944C18.996 60.9486 19.1138 61.537 19.2774 62.3543C20.2442 62.3543 21.253 62.3543 22.4974 62.3535C22.2825 62.8677 21.832 63.3827 21.2201 63.9695Z" fill="#765B00"/>
<path d="M78.6668 74.682C78.4831 72.4233 78.4901 70.1121 78.5762 67.5908C79.6614 68.4387 80.6674 69.4966 81.855 70.6702C82.0365 70.7859 82 70.757 82.0112 70.7736C79.3174 70.7097 80.1637 73.5568 78.6668 74.682Z" fill="#765B00"/>
<path d="M81.5552 67.0729C83.0657 66.9691 84.5565 67.0688 86.1413 67.487C86.2356 68.0512 86.2359 68.2971 86.2362 68.543C84.54 68.6008 82.6751 69.2848 81.5552 67.0729Z" fill="#765B00"/>
<path d="M90.1691 58.4268C90.8483 58.8878 91.5275 59.3489 92.3099 59.9592C92.4131 60.1084 92.4159 60.1125 92.2271 60.1404C91.79 60.6833 91.5416 61.1983 91.2933 61.7134C90.8685 61.7771 90.4438 61.8407 89.8129 61.8396C89.606 61.3598 89.6052 60.9448 89.7513 60.2053C89.9883 59.3961 90.0787 58.9114 90.1691 58.4268Z" fill="#765B00"/>
<path d="M14.0954 64.593C14.0961 67.776 11.8385 64.7661 10.6606 65.7328C11.5813 65.3567 12.7254 64.9731 14.0954 64.593Z" fill="#765B00"/>
<path d="M83.0504 95.9974C82.8362 95.2769 82.8293 94.6351 82.8191 93.8014C83.2774 93.6619 83.739 93.7142 84.3762 94.0249C84.5559 94.8491 84.5602 95.4149 84.5644 95.9807C84.1288 96.0125 83.6932 96.0442 83.0504 95.9974Z" fill="#765B00"/>
<path d="M88.3944 63.5574C88.4804 64.3441 88.4487 65.0588 88.4169 65.7736C88.2399 65.8727 88.063 65.9718 87.886 66.0709C87.4289 65.3617 86.9718 64.6525 86.6587 63.7569C87.294 63.5422 87.7853 63.5139 88.3944 63.5574Z" fill="#765B00"/>
<path d="M13.8816 62.8166C13.4162 62.3391 13.091 61.9307 12.7026 61.3786C13.1315 60.9543 13.6235 60.6735 14.3617 60.2525C14.7019 60.1125 14.796 60.1128 14.8902 60.1131C14.8907 60.3623 14.8912 60.6116 14.891 61.1883C14.8902 61.5156 14.8886 61.7965 14.8886 61.7965C14.7111 62.0344 14.5336 62.2724 14.3419 62.6659C14.2257 62.8428 14.1238 62.8642 13.8816 62.8166Z" fill="#765B00"/>
<path d="M86.37 68.6276C86.2361 68.2972 86.2358 68.0513 86.2354 67.6213C86.7935 67.3855 87.3518 67.3336 88.0135 67.2722C87.9955 67.5306 87.9671 67.9376 87.9424 68.5087C87.4653 68.6858 86.9844 68.699 86.37 68.6276Z" fill="#765B00"/>
<path d="M78.5702 65.1943C78.5645 64.5162 78.7645 63.839 79.1492 63.041C79.5954 63.292 79.8569 63.6638 80.112 64.1741C80.2007 64.4833 80.3421 64.5963 80.5019 64.7862C80.4739 64.9209 80.4194 65.1905 80.4194 65.1905C79.8716 65.1921 79.3237 65.1938 78.5702 65.1943Z" fill="#765B00"/>
<path d="M84.746 96.0336C84.5603 95.4148 84.556 94.849 84.5547 94.071C84.6463 93.8104 84.7351 93.762 84.9689 93.7576C85.2962 94.4122 85.4784 95.0229 85.6634 95.828C85.42 96.0438 85.1737 96.0653 84.746 96.0336Z" fill="#765B00"/>
<path d="M80.5078 65.36C80.4195 65.1907 80.474 64.921 80.7028 64.7691C81.2004 64.6187 81.4691 64.6203 81.7378 64.6219C81.7094 65.1411 81.6811 65.6604 81.5948 66.4349C81.2232 66.3033 80.9097 65.9163 80.5078 65.36Z" fill="#765B00"/>
<path d="M91.4863 61.7687C91.5415 61.1983 91.7898 60.6833 92.225 60.1394C92.1677 60.6817 91.9236 61.2528 91.4863 61.7687Z" fill="#765B00"/>
<path d="M94.4714 40.3014C94.021 40.3072 93.6256 40.1591 93.2302 40.0111C93.4499 39.7849 93.6695 39.5586 94.0647 39.3076C94.3357 39.5711 94.4311 39.8593 94.4714 40.3014Z" fill="#765B00"/>
<path d="M53.2678 95.9923C53.4463 95.7998 53.825 95.6546 54.2298 95.6578C53.9932 95.884 53.7307 95.9618 53.2678 95.9923Z" fill="#765B00"/>
<path d="M90.6734 64.5252C90.2977 64.4863 90.0248 64.3163 89.6516 63.9224C89.9596 63.9304 90.368 64.1622 90.6734 64.5252Z" fill="#765B00"/>
<path d="M85.3845 61.4366C85.6431 61.0719 85.9208 60.7027 86.1985 60.3335C86.3097 60.4301 86.4209 60.5266 86.5321 60.6232C86.3073 60.8742 86.0826 61.1252 85.6311 61.4222C85.4044 61.4681 85.4036 61.432 85.3845 61.4366Z" fill="#765B00"/>
<path d="M6.83887 50.137C7.17051 50.3642 7.37574 50.728 7.40863 51.1644C7.06168 50.9159 6.88707 50.5948 6.83887 50.137Z" fill="#765B00"/>
<path d="M69.3358 30.029C69.3651 27.6893 69.3651 25.5902 69.3651 23.3354C69.2257 23.3983 69.4747 23.2198 69.5335 23.2689C72.4484 25.7046 75.3917 28.1114 78.1744 30.6913C78.438 30.9357 77.8529 32.4038 77.3571 33.0806C76.7396 33.9237 75.4521 34.3884 75.0834 35.2776C74.3658 37.008 73.4632 36.6747 72.2764 36.0275C70.3447 34.974 68.3982 33.9479 66.3503 32.8526C67.1555 32.1491 68.231 31.2094 69.3358 30.029Z" fill="#765B00"/>
<path d="M77.7612 43.7567C76.0241 43.7624 74.5528 43.7624 73.0816 43.7624C73.0788 43.3656 73.076 42.9688 73.0732 42.572C75.9016 42.572 78.7299 42.572 81.5582 42.572C81.6128 42.8339 81.6674 43.0958 81.7221 43.3576C80.4904 43.4887 79.2588 43.6198 77.7612 43.7567Z" fill="#765B00"/>
<path d="M56.5605 53.7658C57.7449 52.4693 59.1329 51.1999 60.7226 49.9526C60.7955 52.6182 58.5225 52.9251 56.5605 53.7658Z" fill="#765B00"/>
<path d="M66.0785 39.3803C65.8705 38.2954 65.7795 37.3664 65.7854 36.2226C66.4823 36.186 67.0821 36.3643 67.6819 36.5425C67.3515 37.6224 68.5766 39.4747 66.0785 39.3803Z" fill="#765B00"/>
<path d="M25.5258 60.678C24.2614 60.5674 22.997 60.4568 21.7327 60.3462C21.736 59.9943 21.7394 59.6424 21.7427 59.2905C23.0497 59.3765 24.3566 59.4625 25.8313 59.6966C25.8413 60.1225 25.6836 60.4003 25.5258 60.678Z" fill="#765B00"/>
<path d="M42.4404 79.9902C42.8761 79.4529 43.3327 79.1173 43.959 78.7502C44.2686 78.9828 44.4085 79.2468 44.4818 79.7076C44.2697 80.0104 44.1683 80.1488 44.1112 80.3196C44.1176 80.7974 44.1241 81.2752 44.1481 81.9914C43.878 82.3573 43.5905 82.4849 43.1401 82.5805C42.8053 81.763 42.6334 80.9775 42.4404 79.9902Z" fill="#765B00"/>
<path d="M33.7749 74.6889C33.7366 72.9891 33.8585 71.2548 34.1492 69.3608C34.1904 71.0189 34.0628 72.8367 33.7749 74.6889Z" fill="#765B00"/>
<path d="M81.8256 64.4923C81.469 64.6203 81.2003 64.6187 80.7307 64.6344C80.3422 64.5965 80.2007 64.4835 80.2477 64.0512C80.4711 63.3114 80.5523 62.8331 80.6335 62.3547C80.8816 62.3563 81.1296 62.3578 81.5639 62.3603C82.2743 62.8357 82.7984 63.3101 83.5547 63.9947C82.8229 64.1588 82.3682 64.2608 81.8256 64.4923Z" fill="#765B00"/>
<path d="M88.228 55.9644C88.7381 56.1344 89.1128 56.4444 89.4874 56.7543C89.1896 57.0416 88.8918 57.3288 88.5939 57.616C88.4268 57.1121 88.2598 56.6082 88.228 55.9644Z" fill="#765B00"/>
<path d="M25.6514 60.8199C25.6836 60.4003 25.8413 60.1226 26.0612 59.6975C26.6107 59.812 27.098 60.0737 27.5853 60.3355C26.9825 60.5442 26.3797 60.753 25.6514 60.8199Z" fill="#765B00"/>
<path d="M61.1257 50.0155C61.5236 49.3983 62.1172 48.828 62.9136 48.2583C62.5181 48.8601 61.9198 49.4613 61.1257 50.0155Z" fill="#765B00"/>
<path d="M15.0348 59.991C14.7962 60.1128 14.702 60.1125 14.4667 60.1121C14.1783 59.8352 14.0311 59.5585 13.824 58.9953C13.7648 58.6144 13.7655 58.5198 13.7663 58.4253C14.2373 58.9065 14.7084 59.3877 15.0348 59.991Z" fill="#765B00"/>
<path d="M89.9839 58.4458C90.0786 58.9114 89.9882 59.3961 89.7515 59.9979C89.3022 59.8823 88.9994 59.6497 88.6965 59.4171C89.064 59.0997 89.4314 58.7823 89.9839 58.4458Z" fill="#765B00"/>
<path d="M83.9508 61.5507C83.5549 61.7424 83.1384 61.7706 82.5117 61.657C82.3002 61.4211 82.2988 61.3271 82.2974 61.2332C82.8416 61.2845 83.3859 61.3359 83.9508 61.5507Z" fill="#765B00"/>
<path d="M80.4425 62.3469C80.5522 62.833 80.471 63.3113 80.2541 63.9127C79.8569 63.6639 79.5954 63.292 79.1882 62.8308C79.0425 62.7414 79.0531 62.5208 79.08 62.4137C79.4885 62.3175 79.87 62.3283 80.4425 62.3469Z" fill="#765B00"/>
<path d="M13.6489 58.2796C13.7656 58.5198 13.7649 58.6144 13.7624 58.8508C13.2773 58.9018 12.794 58.8108 12.1945 58.4331C12.0785 58.0524 12.0787 57.9584 12.0789 57.8645C12.5631 57.9543 13.0472 58.0441 13.6489 58.2796Z" fill="#765B00"/>
<path d="M54.8523 54.9216C55.0012 54.5742 55.3296 54.2874 55.8448 54.0286C55.6983 54.3652 55.3651 54.6737 54.8523 54.9216Z" fill="#765B00"/>
<path d="M82.5198 58.6849C82.2709 58.6205 82.1184 58.4637 81.9776 58.2969C81.974 58.2927 82.0998 58.1792 82.1653 58.1167C82.3161 58.2748 82.4669 58.433 82.5198 58.6849Z" fill="#765B00"/>
<path d="M53.7231 55.7003C53.901 55.3755 54.1708 55.1854 54.6092 55.0283C54.4569 55.3193 54.136 55.5771 53.7231 55.7003Z" fill="#765B00"/>
<path d="M18.2326 57.6392C18.0988 57.4197 18.0999 57.2014 18.1168 56.9842C18.1172 56.9781 18.2865 56.985 18.377 56.9859C18.3746 57.2041 18.3722 57.4223 18.2326 57.6392Z" fill="#765B00"/>
<path d="M11.9873 57.743C12.0786 57.9586 12.0784 58.0525 12.0776 58.2874C11.7917 58.19 11.5063 57.9517 11.2209 57.7134C11.4459 57.6827 11.6708 57.6521 11.9873 57.743Z" fill="#765B00"/>
<path d="M37.3309 80.984C37.4749 80.8726 37.5655 80.8997 37.7921 80.9673C37.7016 81.271 37.4751 81.5341 37.2485 81.7971C37.2582 81.5722 37.2679 81.3473 37.3309 80.984Z" fill="#765B00"/>
<path d="M82.1695 61.2385C82.2987 61.3271 82.3001 61.4211 82.3025 61.6561C82.2081 61.7968 82.1126 61.7964 81.874 61.7942C81.8344 61.6095 81.9381 61.4267 82.1695 61.2385Z" fill="#765B00"/>
<path d="M56.7687 10.9399C56.7505 10.9095 56.7869 10.9704 56.7687 10.9399V10.9399Z" fill="#765B00"/>
<path d="M42.7229 12.0602C42.7051 12.03 42.7407 12.0905 42.7229 12.0602V12.0602Z" fill="#765B00"/>
<path d="M79.8022 31.7242C79.7846 31.6943 79.8198 31.7541 79.8022 31.7242V31.7242Z" fill="#765B00"/>
<path d="M78.1071 40.7575C78.077 40.7752 78.1371 40.7399 78.1071 40.7575V40.7575Z" fill="#765B00"/>
<path d="M44.2286 80.2633C44.1682 80.1489 44.2695 80.0105 44.5324 79.8484C44.5937 79.9636 44.4925 80.1018 44.2286 80.2633Z" fill="#765B00"/>
<path d="M79.8025 57.5668C79.7848 57.5368 79.8201 57.5968 79.8025 57.5668V57.5668Z" fill="#765B00"/>
<path d="M76.4223 58.1734C76.3921 58.1912 76.4524 58.1555 76.4223 58.1734V58.1734Z" fill="#765B00"/>
<path d="M85.4204 58.1286C85.4026 58.0984 85.4383 58.1588 85.4204 58.1286V58.1286Z" fill="#765B00"/>
<path d="M55.2309 60.1641C55.2593 60.2819 55.1643 60.4532 54.9156 60.6229C54.8364 60.4518 54.9516 60.3173 55.2309 60.1641Z" fill="#765B00"/>
<path d="M14.9811 61.747C14.8886 61.7966 14.8902 61.5157 14.8925 61.3753C14.9894 61.3293 15.0931 61.417 15.171 61.5236C15.1873 61.5459 15.1085 61.6377 14.9811 61.747Z" fill="#765B00"/>
<path d="M51.1411 62.6685C51.1107 62.6866 51.1715 62.6505 51.1411 62.6685V62.6685Z" fill="#765B00"/>
<path d="M70.5107 59.7249C72.6204 60.9015 74.7209 62.2901 76.8686 63.8429C75.9113 64.5822 74.9054 65.1548 73.9027 65.7331C72.7705 66.386 71.6413 67.0439 70.4689 68.018C70.2742 68.4471 70.1213 68.5578 69.9685 68.6685C67.817 67.4997 67.3651 63.7831 69.1065 61.8131C69.6208 61.2313 70.0391 60.5647 70.5107 59.7249Z" fill="#765B00"/>
<path d="M71.9241 76.7121C70.6048 77.8435 69.4269 78.8349 68.0517 79.9924C67.8362 76.992 70.0218 74.6246 73.7974 73.6824C73.1084 74.832 72.5869 75.702 71.9241 76.7121Z" fill="#765B00"/>
<path d="M63.4251 69.7858C63.7688 70.5462 64.1125 71.3066 64.4562 72.067C64.2017 72.2433 63.9472 72.4196 63.6928 72.5958C62.4346 71.2629 61.1764 69.9299 59.9182 68.597C60.0606 68.3939 60.203 68.1909 60.3454 67.9878C60.7995 68.0894 61.2536 68.1911 61.9589 68.533C62.6151 69.1107 63.0201 69.4483 63.4251 69.7858Z" fill="#765B00"/>
<path d="M52.9412 70.1871C53.0272 68.9856 53.2929 67.7389 53.7812 66.4634C53.7095 67.6704 53.4151 68.9061 52.9412 70.1871Z" fill="#765B00"/>
<path d="M59.3188 60.0737C59.7867 59.7162 60.4663 59.3806 61.3347 59.1155C60.8591 59.4891 60.1949 59.7924 59.3188 60.0737Z" fill="#765B00"/>
<path d="M67.1912 72.0364C67.268 72.1887 67.2962 72.3649 67.2246 72.4182C66.8665 72.2454 66.58 72.0192 66.2935 71.793C66.5671 71.8233 66.8407 71.8537 67.1912 72.0364Z" fill="#765B00"/>
<path d="M59.2442 73.2888C59.2727 73.4404 59.0521 73.5934 58.9192 73.6119C58.6722 73.3601 58.5582 73.0898 58.4441 72.8196C58.7013 72.9255 58.9585 73.0313 59.2442 73.2888Z" fill="#765B00"/>
<path d="M36.0657 91.6194C36.3718 91.8545 36.5081 92.1359 36.6164 92.5859C36.3575 92.3916 36.1267 92.0286 36.0657 91.6194Z" fill="#765B00"/>
<path d="M53.2787 71.7998C52.9865 71.6318 52.8103 71.3788 52.7058 70.9519C52.9832 71.0903 53.189 71.4025 53.2787 71.7998Z" fill="#765B00"/>
<path d="M42.5906 88.6759C43.5918 86.1996 45.2498 87.2841 47.2484 87.3942C45.8289 89.595 44.2043 89.05 42.5906 88.6759Z" fill="#765B00"/>
<path d="M85.0963 65.3652C85.1756 65.6569 85.1002 65.9281 85.0248 66.1993C84.8132 66.1005 84.6015 66.0017 84.3899 65.9029C84.5738 65.7168 84.7577 65.5308 85.0963 65.3652Z" fill="#765B00"/>
<path d="M60.9638 38.1277C61.3555 42.7415 59.773 46.2301 56.3891 48.8748C56.1128 48.7472 55.8366 48.6197 55.5603 48.4921C57.3447 44.9626 59.1292 41.4332 60.9638 38.1277Z" fill="#765B00"/>
<path d="M29.1656 74.2408C29.1214 74.1248 29.2993 73.8696 29.6198 73.675C29.6375 73.8576 29.5126 73.9797 29.1656 74.2408Z" fill="#765B00"/>
<path d="M42.3328 73.4132C42.4569 73.3279 42.7876 73.4001 43.0625 73.6348C42.8509 73.7218 42.6951 73.6462 42.3328 73.4132Z" fill="#765B00"/>
</svg>
