<svg width="414" height="414" viewBox="0 0 414 414" fill="none" xmlns="http://www.w3.org/2000/svg">
<path d="M314.833 382.502C281.209 402.205 245.248 413.423 206.665 413.062C117.513 412.227 41.3547 357.343 11.8996 275.131C2.32266 248.401 -1.59296 220.763 0.587399 192.63C4.41107 143.293 23.0749 100.316 57.8474 64.52C91.683 29.6883 132.394 8.14996 180.435 1.91305C246.071 -6.6081 303.021 13.5061 350.516 58.8727C384.935 91.7495 405.761 132.519 411.905 179.953C420.212 244.083 401.94 300.19 358.328 347.789C345.821 361.438 331.22 372.907 314.833 382.502ZM250.236 179.062C238.267 162.977 222.852 154.435 202.239 156.313C172.717 159.002 148.28 185.037 157.301 220.753C167.266 260.209 209.273 269.913 235.961 251.599C259.343 235.555 265.202 205.407 250.236 179.062ZM86.7894 67.9441C82.0166 76.3299 82.898 81.8112 90.7395 89.6841C110.365 109.388 130.066 129.015 149.791 148.619C151.363 150.181 152.783 153.233 155.798 150.261C158.281 147.814 161.085 145.958 157.944 141.691C152.325 134.057 147.348 125.954 141.965 118.142C131.1 102.375 120.231 86.6098 109.19 70.9656C102.667 61.722 95.1629 60.6324 86.7894 67.9441ZM292.669 333.63C295.833 338.719 298.725 343.974 302.464 348.702C304.49 351.263 307.104 352.571 310.176 352.729C315.538 353.003 319.935 350.976 322.959 346.396C326.053 341.709 326.518 336.792 323.928 331.748C322.147 328.279 319.187 325.761 316.501 323.038C298.604 304.891 280.64 286.809 262.868 268.54C260.124 265.72 258.421 265.333 255.095 267.82C251.429 270.56 252.87 272.665 254.583 275.288C267.152 294.528 279.711 313.775 292.669 333.63Z" fill="black"/>
<path d="M183.122 202.155C186.439 190.744 194.349 183.942 205.947 183.266C216.338 182.661 224.282 187.408 229.403 196.468C234.226 205.004 233.035 215.802 226.698 223.587C219.569 232.344 206.054 235.263 195.847 230.249C185.805 225.315 180.499 213.853 183.122 202.155ZM211.241 191.71C209.583 191.629 207.922 191.445 206.266 191.482C197.599 191.671 190.124 199.244 190.004 207.896C189.884 216.602 197.678 224.75 206.323 224.953C214.716 225.151 222.38 218.834 224.046 210.346C225.537 202.746 220.93 195.7 211.241 191.71Z" fill="black"/>
</svg>
