<svg width="104" height="100" viewBox="0 0 104 100" fill="none" xmlns="http://www.w3.org/2000/svg">
<g clip-path="url(#clip0_54750_25573)">
<path d="M1.15999 45.2881C1.33663 42.4233 1.92219 39.7138 2.68894 37.0325C4.36137 31.184 6.90946 25.7464 10.5148 20.8542C17.3572 11.5697 26.3921 5.31684 37.4057 1.98721C43.0577 0.27849 48.8745 -0.350148 54.7902 -0.0150001C67.3383 0.695895 78.2069 5.37732 87.4367 13.8473C95.7576 21.4831 100.623 31.0236 102.495 42.0956C103.601 48.6364 103.237 55.1492 101.606 61.5891C99.737 68.966 96.4102 75.5897 91.4802 81.4005C85.1623 88.8469 77.356 94.049 68.0733 97.088C62.7596 98.8276 57.3231 99.6695 51.7458 99.6781C42.8332 99.6917 34.53 97.4617 26.8176 92.9774C22.4924 90.4626 18.4787 87.5405 15.0262 83.923C9.80616 78.4536 5.92455 72.1438 3.5003 64.9553C1.67759 59.5506 0.75627 54.0116 0.914728 48.305C0.941994 47.3232 1.07544 46.3442 1.15999 45.2881ZM28.2352 17.8157C27.25 18.5964 26.244 19.3524 25.2834 20.1623C21.9253 22.9934 19.0999 26.3322 16.2392 29.6422C14.6667 31.4617 13.5375 33.6008 11.7298 35.2791C10.5848 36.3421 10.283 38.1128 9.92754 39.7088C10.1814 39.7264 10.2008 39.5397 10.279 39.4323C11.5127 37.738 12.7891 36.0773 14.1731 34.5023C14.6839 33.9209 15.4445 33.7777 15.8255 34.1988C16.3451 34.773 15.8679 35.2075 15.5357 35.603C14.9979 36.2432 14.3122 36.7453 13.8228 37.4396C12.4607 39.3719 11.0443 41.2669 9.72046 43.2248C9.00419 44.284 8.65843 45.496 8.71181 46.9309C8.95517 46.7837 9.08913 46.7489 9.14225 46.6636C9.79108 45.6223 10.5513 44.6686 11.3297 43.7213C12.28 42.5649 13.1389 41.3338 14.0718 40.1625C14.458 39.6775 14.9571 39.4092 15.5281 39.9486C16.1071 40.4956 15.7129 40.9273 15.3284 41.3215C14.6999 41.9658 14.0942 42.6222 13.5865 43.3716C12.361 45.1805 11.129 46.9853 9.86913 48.7703C9.24979 49.6478 9.24558 49.7556 10.2492 50.4356C11.082 49.3106 11.8997 48.1703 12.7576 47.0612C13.2318 46.4481 13.7373 45.8495 14.2957 45.3143C14.773 44.8569 15.4166 44.7327 15.899 45.262C16.4004 45.8121 15.9515 46.2156 15.5094 46.5902C13.9548 47.9076 13.0701 49.7489 11.8661 51.3402C11.4653 51.8699 11.9122 52.361 12.3319 52.7187C12.8203 53.135 13.0098 52.597 13.2527 52.3566C13.5708 52.0417 13.821 51.659 14.1323 51.3362C14.7349 50.7113 15.3354 50.0802 15.9846 49.5059C16.3704 49.1646 16.8866 49.0567 17.2726 49.505C17.644 49.9365 17.4758 50.4024 17.1451 50.8077C17.0699 50.8999 16.9768 50.9788 16.8856 51.0563C15.8988 51.8949 15.1106 52.9188 14.2427 53.869C13.9202 54.2221 13.846 54.4964 14.2279 54.8488C14.5824 55.176 14.8736 55.6222 15.4064 55.0989C15.5535 54.9545 15.7403 54.8405 15.9264 54.748C16.3583 54.5336 16.771 54.5763 17.0183 55.0167C17.2498 55.429 17.1992 55.8463 16.7439 56.0978C16.337 56.3227 16.058 56.671 15.7598 57.0046C14.9406 57.9207 14.563 57.8945 13.7913 56.8968C13.5248 56.5523 13.3721 56.0938 12.8696 55.9084C12.4322 56.2591 11.8498 56.6244 12.0088 57.2295C12.1561 57.7897 12.445 58.4188 13.2332 58.4977C13.7051 58.5449 13.9239 58.9061 13.7873 59.3445C13.4939 60.2858 14.0942 60.7688 14.6696 61.3386C14.8301 61.2276 14.9614 61.1583 15.0663 61.0607C15.5907 60.5725 16.0309 59.9966 16.6532 59.6095C17.1 59.3315 17.5281 59.1665 17.9361 59.6323C18.3599 60.1161 18.1125 60.51 17.7287 60.8734C17.2724 61.3055 16.8015 61.7244 16.3733 62.1829C16.1462 62.4262 15.7121 62.6857 15.9807 63.0801C16.2809 63.5208 16.504 64.1505 17.2217 64.081C17.7307 64.0318 18.1303 64.1873 18.3201 64.6596C18.5127 65.1387 18.2691 65.5362 17.9341 65.8688C17.3801 66.4186 16.8728 67.0056 16.3877 67.6182C16.0057 68.1005 16.0623 68.4598 16.505 68.8437C16.9885 69.2628 17.2476 68.9179 17.5306 68.5876C17.9982 68.042 18.4535 67.4843 18.947 66.963C19.3331 66.5553 19.8148 66.3735 20.2992 66.7938C20.8024 67.2303 20.63 67.7039 20.2567 68.1315C19.8429 68.6056 19.4196 69.0719 18.9865 69.5283C17.9191 70.6533 17.9808 71.12 19.377 72.0381C20.1012 71.3944 20.7113 70.6 21.5417 70.0537C22.0618 69.7115 22.5842 69.6586 22.9626 70.2074C23.3187 70.7239 22.9628 71.1218 22.5645 71.4235C21.9142 71.9158 21.3327 72.4731 20.8353 73.1163C20.6769 73.321 20.4257 73.5648 20.6716 73.8295C21.1531 74.348 21.4893 75.0117 22.1084 75.363C22.4882 75.2926 22.6138 74.9897 22.8194 74.7824C23.3469 74.2505 23.8648 73.709 24.3962 73.1811C24.7937 72.7863 25.2787 72.5566 25.7485 72.979C26.2617 73.4405 25.9061 73.9146 25.5889 74.3225C25.3694 74.6049 25.0971 74.8458 24.8535 75.1101C24.4681 75.5284 24.0743 75.94 23.7098 76.3759C23.5453 76.5727 23.322 76.809 23.538 77.0955C23.9802 77.682 24.3687 78.3235 25.0733 78.7601C25.7597 77.9634 26.4138 77.189 27.0854 76.4301C27.5195 75.9395 28.0507 75.7486 28.5644 76.2636C29.0492 76.7496 28.7303 77.2084 28.3405 77.5828C27.7559 78.1445 27.1861 78.716 26.7114 79.377C26.2049 80.0823 26.3408 80.4304 27.1882 80.5854C27.7258 80.6837 28.1791 80.5979 28.5502 80.137C28.9062 79.6949 29.3088 79.2877 29.7135 78.8882C29.9917 78.6136 30.3474 78.5008 30.692 78.7486C31.0393 78.9985 31.1938 79.3662 30.9869 79.7753C30.8075 80.1301 30.7642 80.5037 30.7611 80.8997C30.2994 80.9549 29.8189 81.0082 29.7442 81.5109C29.6718 81.9979 30.1138 82.2383 30.4603 82.4482C30.9842 82.7656 31.2017 82.2687 31.4692 81.9774C31.8741 81.5364 32.2556 81.0739 32.6502 80.6233C33.0341 80.1849 33.486 79.9641 33.9543 80.451C34.3859 80.8998 34.2384 81.3791 33.8567 81.8104C33.3999 82.3264 32.9575 82.8555 32.4909 83.3624C32.2001 83.6783 32.1258 83.968 32.4659 84.2905C32.7869 84.5949 33.009 85.0095 33.4839 85.2006C34.0233 84.8592 34.3172 84.2852 34.7308 83.8248C35.1706 83.3354 35.583 82.8192 36.0476 82.355C36.343 82.0599 36.7317 81.9559 37.1041 82.2564C37.504 82.579 37.4917 82.9864 37.2367 83.3808C37.01 83.7316 36.7406 84.0556 36.4806 84.384C35.9972 84.9946 35.5029 85.5965 35.0216 86.2088C34.8092 86.4791 34.6244 86.7758 34.9787 87.0704C35.3775 87.4019 35.574 87.002 35.7872 86.7971C36.0886 86.5073 36.3481 86.1738 36.6238 85.8575C37.2539 85.1344 37.8823 84.4099 38.5126 83.6871C38.8395 83.3122 39.2145 83.2565 39.6283 83.5361C40.0858 83.8454 40.0021 84.2516 39.7778 84.6401C39.6152 84.9219 39.393 85.1702 39.189 85.4268C38.8724 85.8247 38.4935 86.1848 38.2399 86.6187C37.7775 87.4096 38.5571 87.7253 38.9511 88.1336C39.3834 88.5816 39.6342 88.0995 39.8612 87.8121C40.4548 87.0603 41.0134 86.2807 41.6139 85.5346C41.9478 85.1198 42.2847 84.6487 42.9308 84.7489C43.5569 84.846 43.6189 85.3407 43.7932 85.8449C43.9818 86.3908 44.3413 87.052 44.9299 87.1399C45.5208 87.2282 45.6841 86.4791 46.0089 86.0722C46.0456 86.0263 46.0643 85.9662 46.0933 85.9139C46.6648 84.8843 47.3848 84.8716 48.0313 85.8792C48.4545 86.5389 48.6939 87.3425 49.4481 87.7618C50.2349 87.1622 50.6978 86.3423 51.2991 85.6423C51.8806 84.9654 52.8612 85.1572 53.0186 86.0147C53.2023 87.0151 53.9729 87.4514 54.6101 88.1907C55.2328 87.3214 56.0849 86.8044 56.2648 85.7573C56.3298 85.3792 56.6687 85.0844 57.0989 85.0343C57.5357 84.9835 57.8417 85.2321 58.0706 85.5693C58.1869 85.7405 58.2385 85.9545 58.3474 86.1319C59.373 87.802 59.9293 87.8609 61.2574 86.4671C61.4576 86.257 61.6168 86.0758 61.4731 85.7658C61.2456 85.2752 61.2483 84.7554 61.7741 84.5245C62.2838 84.3007 62.752 84.5936 63.1085 85.0051C63.5989 85.5714 64.0824 86.1438 64.5809 86.7029C64.8053 86.9545 65.0435 87.1503 65.4385 86.9697C66.4601 86.5025 66.6144 85.9388 65.9319 85.0525C65.7859 84.8629 65.6558 84.6608 65.5075 84.473C65.1521 84.0227 65.0114 83.5263 65.4734 83.1073C65.9558 82.6697 66.4524 82.9252 66.8123 83.3305C67.4632 84.0633 68.1958 84.7269 68.6828 85.6044C68.9296 86.0492 69.1812 86.6475 69.9075 86.1297C70.9813 85.3641 71.1556 84.9435 70.5778 84.2207C70.2043 83.7534 69.7668 83.3377 69.3847 82.8768C68.9643 82.3698 68.388 81.7601 69.0664 81.173C69.7809 80.5548 70.2371 81.2999 70.6695 81.7786C71.2621 82.4345 71.7113 83.2266 72.4376 83.7359C74.0588 82.6743 74.0619 82.6579 72.9507 81.2498C72.8765 81.1557 72.786 81.0715 72.7267 80.969C72.4568 80.5028 72.6209 80.0792 72.9442 79.7423C73.3114 79.3599 73.734 79.4964 74.0538 79.8271C74.406 80.1914 74.7057 80.6073 75.0193 81.0079C75.2577 81.3125 75.5503 81.4651 75.8489 81.1539C76.2605 80.725 76.8424 80.4843 77.2193 79.8766C76.7389 79.1897 76.2599 78.472 75.7456 77.7806C75.3743 77.2815 75.0806 76.7749 75.7057 76.3074C76.3701 75.8105 76.7758 76.2673 77.1782 76.7858C77.65 77.3936 78.0249 78.0857 78.6147 78.5941C79.1479 78.4471 79.3967 78.0006 79.7663 77.7105C80.311 77.2829 80.4114 76.8703 79.9084 76.294C79.3988 75.7101 78.9819 75.0427 78.5485 74.3957C78.2756 73.9883 78.3699 73.5881 78.708 73.2583C79.036 72.9383 79.374 73.1062 79.695 73.2902C80.015 73.4736 80.229 73.7657 80.4491 74.0514C80.8636 74.5892 81.2829 75.1234 81.6919 75.6485C82.2786 75.4394 82.5354 74.9614 82.9311 74.655C83.6415 74.1049 83.6619 73.5653 83.0072 72.9532C82.5496 72.5254 82.1092 72.0752 81.6983 71.6026C81.3422 71.1929 81.1281 70.7064 81.5912 70.2406C82.0359 69.7934 82.4756 70.0596 82.8751 70.3601C83.3078 70.6857 83.6852 71.0679 84.0248 71.4928C84.3157 71.8568 84.5771 72.2676 85.124 72.4758C85.3706 72.1994 85.587 71.9081 85.8516 71.6705C86.4649 71.1198 86.4839 70.6083 85.8896 70.0131C85.2765 69.399 84.7157 68.732 84.1421 68.0794C83.8826 67.7842 83.8223 67.4342 83.9914 67.0744C84.1309 66.7776 84.4007 66.641 84.716 66.6152C85.1551 66.5793 85.418 66.8729 85.7043 67.1475C86.4051 67.8195 86.8991 68.7006 87.7052 69.259C89.1459 67.9365 89.1623 67.5704 87.8931 66.23C87.6666 65.9909 87.4184 65.7725 87.1858 65.539C87.0596 65.4124 86.9203 65.2891 86.8303 65.1384C86.5874 64.7321 86.4348 64.2876 86.8405 63.9089C87.2722 63.5061 87.7299 63.631 88.1227 63.9993C88.4939 64.3474 88.8274 64.7356 89.1973 65.0852C89.5553 65.4235 89.7297 65.9658 90.271 66.0989C91.1171 65.3152 91.1318 65.1554 90.3753 64.3535C89.8616 63.8091 89.2996 63.3085 88.8081 62.7456C88.4682 62.3564 88.3508 61.8756 88.782 61.455C89.1709 61.0756 89.6045 61.1598 90.0067 61.4545C90.5185 61.8295 90.9396 62.2893 91.293 62.8207C91.4984 63.1294 91.6463 63.5271 92.0881 63.592C93.1739 62.5701 93.3412 62.1441 92.7716 61.3959C91.5214 59.7537 90.2725 58.1045 88.7399 56.7035C88.1124 56.1299 88.0234 55.1769 88.5507 54.7449C89.0269 54.3548 89.4594 54.752 89.8988 54.7899C90.9364 53.5397 90.9356 53.4898 90.0132 52.2935C89.2212 51.2663 88.2485 50.4189 87.3024 49.5444C86.973 49.2399 86.7303 48.8972 87.0417 48.4483C87.35 48.004 87.7567 47.9933 88.2345 48.1814C88.6694 48.3526 88.9974 48.6461 89.3232 48.9566C90.8462 50.408 92.1205 52.0765 93.4692 53.6808C93.7241 53.9841 93.9338 54.599 94.5089 54.1202C94.9946 53.7157 95.4737 53.3129 94.9235 52.5537C94.2557 51.6323 93.6124 50.6945 92.8914 49.8119C92.0752 48.8125 91.2103 47.8625 90.257 46.9898C89.7974 46.5689 89.6964 46.0584 90.1769 45.5736C90.6338 45.1125 91.1033 45.244 91.5215 45.6447C91.8673 45.9759 92.195 46.3274 92.5146 46.6843C93.4468 47.7255 94.3709 48.774 95.33 49.8554C95.6013 49.2836 95.386 48.8785 95.0973 48.4818C94.0745 47.0762 93.0645 45.6625 91.7747 44.4757C91.3452 44.0806 91.0944 43.5456 91.5321 43.0451C92.0079 42.5009 92.5645 42.716 93.0314 43.1393C93.4084 43.481 93.7528 43.8584 94.1204 44.2109C94.3026 44.3856 94.4507 44.6898 94.7861 44.4723C95.0868 44.2773 95.1446 43.9696 95.0158 43.679C94.7126 42.9948 94.5835 42.2518 94.219 41.5848C93.1466 39.6226 91.7966 37.8775 90.2157 36.3051C89.7983 35.89 89.4926 35.4469 89.9758 34.9088C90.4573 34.3725 90.9021 34.6251 91.3789 34.9991C92.159 35.611 92.734 36.4184 93.5419 37.1792C93.4767 36.9244 93.4483 36.7826 93.4043 36.6457C90.9359 28.9603 86.5804 22.5634 80.2798 17.5118C76.6333 14.5882 72.5819 12.4138 68.2712 10.5721C63.1182 8.37056 57.7818 7.46426 52.2692 7.38172C48.7658 7.32926 45.2849 7.74413 41.8581 8.55766C36.1681 9.90845 30.8438 12.1073 26.1593 15.6245C21.94 18.7925 18.371 22.6289 15.4197 27.0188C14.9332 27.7424 14.3783 28.4338 14.1745 29.3165C14.3793 29.173 14.5388 29.0006 14.6869 28.819C17.5318 25.3322 20.5361 22.0001 23.9516 19.0509C25.4758 17.7347 27.1212 16.589 28.7559 15.4258C29.2384 15.0824 29.8042 14.858 30.2724 15.4526C30.6556 15.939 30.3989 16.5195 29.6576 16.9634C29.2206 17.2251 28.7815 17.4833 28.2352 17.8157ZM41.4325 90.6688C41.7233 90.6957 42.0714 90.8867 42.294 90.6634C42.8576 90.0979 43.4883 89.5422 43.8575 88.8563C44.2099 88.2016 43.4299 87.8534 43.0684 87.4232C42.8255 87.1341 42.5149 87.1856 42.3027 87.4578C41.6194 88.3339 40.9609 89.2294 40.2969 90.1121C40.5996 90.514 40.9779 90.5279 41.4325 90.6688ZM57.264 87.7282C56.7998 87.8288 56.6673 88.2788 56.3832 88.5683C55.85 89.1113 55.8588 89.5555 56.4694 90.1122C57.1035 90.6903 57.4647 90.3548 57.8688 89.919C58.1248 89.643 58.5177 89.4884 58.6623 89.0043C58.2373 88.6092 58.003 87.9967 57.264 87.7282ZM81.0831 78.5851C80.5949 79.0111 80.0597 79.394 79.7479 79.9772C80.9116 81.2268 80.9111 81.2263 82.1078 80.245C82.4092 79.9979 82.8065 79.7531 82.4275 79.3142C82.1039 78.9394 82.0314 78.1125 81.0831 78.5851ZM83.9999 75.7467C82.6764 76.9752 82.6832 77.3122 84.1003 78.1665C84.3738 77.8744 84.6567 77.5728 84.9392 77.2708C85.871 76.2744 85.8582 76.1385 84.7221 75.1992C84.5183 75.3544 84.3085 75.5141 83.9999 75.7467ZM79.0456 81.8617C78.6011 81.1714 78.1043 81.1266 77.5399 81.7277C77.4185 81.857 77.265 81.9586 77.118 82.061C76.5997 82.422 76.4095 82.7691 76.8912 83.3692C77.3391 83.9273 77.6899 83.9832 78.1945 83.507C78.4319 83.2829 78.7096 83.0963 78.9866 82.9202C79.4212 82.6439 79.4373 82.3308 79.0456 81.8617ZM53.2239 89.8047C53.3887 89.6052 53.4958 89.3779 53.2904 89.1637C52.8465 88.7008 52.5109 88.1293 51.9797 87.7621C50.4996 88.9127 50.6065 89.1577 52.3635 90.604C52.7129 90.4682 52.8937 90.1403 53.2239 89.8047ZM19.4973 75.0149C18.2184 76.0809 18.3393 76.7012 20.0381 77.7906C21.1931 76.8885 21.2081 76.7776 20.2866 75.7375C20.0696 75.4926 19.8369 75.2617 19.4973 75.0149ZM61.1852 89.0088C61.7725 90.1383 61.9882 90.1325 63.0915 89.1922C63.6761 88.6939 63.6068 88.2969 63.1596 87.776C62.6656 87.2005 62.3225 87.5987 61.9691 87.9097C61.6562 88.1851 61.3629 88.4871 61.1852 89.0088ZM28.2545 83.0063C27.9475 83.4016 27.5793 83.7575 27.4377 84.2313C27.503 84.4866 27.6837 84.6016 27.8523 84.7198C28.6959 85.3114 29.5595 84.9342 29.6768 83.889C29.739 83.3346 29.1879 83.1207 28.8899 82.7749C28.6472 82.4933 28.4785 82.7196 28.2545 83.0063ZM23.0182 80.7747C23.1683 80.8553 23.3013 80.8278 23.419 80.7101C24.1428 79.9858 23.5379 79.5062 23.1038 78.9936C22.2319 77.9643 21.9463 78.0063 21.3685 79.2749C21.4801 79.3974 21.5892 79.5388 21.7197 79.6565C22.1159 80.014 22.5204 80.3623 23.0182 80.7747ZM15.4523 66.1938C15.628 65.9265 15.8958 65.7136 15.9462 65.3764C14.7657 63.9225 14.5807 63.8994 13.8847 65.0337C13.4258 65.7813 14.1555 66.0035 14.4526 66.4057C14.8036 66.8811 15.1012 66.6016 15.4523 66.1938ZM91.546 56.9523C91.7115 57.169 91.8602 57.4254 92.1863 57.1591C92.9071 56.5704 92.9748 56.0039 92.3991 55.2259C92.2113 54.9722 92.0487 54.5164 91.6841 54.6773C91.1778 54.9007 90.9048 55.4388 90.8022 55.9599C90.7277 56.3383 91.1091 56.5138 91.4629 56.5365C91.9363 56.567 91.6064 56.7395 91.546 56.9523ZM68.276 88.1377C68.0551 87.832 67.9223 87.4448 67.4496 87.2745C67.0525 87.7496 66.4157 88.0028 66.106 88.5973C66.3935 89.0921 66.7669 89.4328 67.2882 89.1566C67.6861 88.9458 68.4725 89.0917 68.276 88.1377ZM17.9311 74.0551C18.6672 73.0358 17.4764 72.8141 17.2753 72.1228C16.011 73.3896 16.0258 73.5602 17.4228 74.6907C17.5683 74.512 17.7151 74.3316 17.9311 74.0551ZM87.2946 74.3279C88.2957 73.0772 88.2963 73.0719 87.5099 72.3581C87.0141 72.5389 86.7795 73.0323 86.3896 73.3436C86.1053 73.5707 85.9442 73.8271 86.2614 74.1705C86.5315 74.4631 86.7633 74.8222 87.2946 74.3279ZM10.9329 58.7472C9.53711 59.3042 9.79515 60.2905 10.6384 61.1979C11.7998 59.9155 11.8102 59.8513 10.9329 58.7472ZM13.372 62.486C13.2121 62.1781 13.1286 61.696 12.6858 61.7858C12.1654 61.8913 11.9795 62.4457 11.8438 62.8729C11.6611 63.4482 12.0358 63.8577 12.5359 64.1801C13.003 63.7153 13.349 63.2478 13.372 62.486ZM73.8525 84.7605C73.4699 85.2722 73.9634 85.5617 74.2341 85.6556C74.9716 85.9112 75.3873 85.2865 75.9184 84.8978C75.6159 84.4277 75.3621 83.9981 74.866 83.6707C74.5388 84.021 74.2334 84.3479 73.8525 84.7605ZM10.6221 53.3981C10.0366 53.4343 9.70616 53.8728 9.69067 54.3292C9.66986 54.9427 10.2015 55.2642 10.7042 55.5114C11.8392 54.4607 11.8387 54.3452 10.6221 53.3981ZM32.2078 86.2194C31.8878 85.8371 31.6454 85.3777 31.1276 85.1224C30.7664 85.4318 30.4143 85.7337 30.3035 86.2353C30.6694 86.6353 31.1435 86.8478 31.6054 87.0227C32.2707 87.2746 32.5014 86.977 32.2078 86.2194ZM46.5721 88.986C46.8699 89.3072 47.1677 89.6284 47.5808 90.0739C47.6054 89.3758 48.6476 89.155 48.0157 88.4241C47.7652 88.1343 47.5243 87.599 47.0571 87.8031C46.6864 87.9649 46.3391 88.3454 46.5721 88.986ZM50.1233 90.6634C49.931 90.4481 49.7495 90.0986 49.4133 90.4046C49.0843 90.7039 48.7699 91.0838 48.8227 91.5552C48.8644 91.9282 49.2553 91.9191 49.5478 91.9084C49.9714 91.8928 50.4257 92.0484 50.8291 91.7692C50.7385 91.3205 50.4516 91.0512 50.1233 90.6634ZM93.6697 59.4554C93.7998 59.5664 93.8887 59.7479 94.1332 59.7073C94.3946 59.2144 94.4822 58.6575 94.5754 58.1068C94.6324 57.7705 94.5492 57.4689 94.109 57.6074C93.3918 57.8329 93.1421 58.7229 93.6697 59.4554ZM45.3443 91.4737C45.7057 91.4851 46.1028 91.7225 46.4395 91.2769C46.1428 90.7954 45.7912 90.2379 45.242 90.2115C44.82 90.1912 44.5177 90.7151 44.4143 91.189C44.6706 91.4277 44.955 91.393 45.3443 91.4737ZM25.9893 81.9869C25.7167 81.7669 25.536 81.4283 25.1697 81.3341C24.2429 82.1117 24.3063 82.3406 25.6664 83.0296C25.86 82.7375 26.466 82.6436 25.9893 81.9869ZM15.7085 71.0838C16.2241 70.1688 15.292 70.0561 14.9468 69.5772C14.1373 70.1283 14.6257 70.6044 14.9077 71.1016C15.1342 71.5011 15.3569 71.5194 15.7085 71.0838ZM37.3893 88.368C36.5997 88.0314 36.7334 88.8366 36.2568 89.159C37.0191 89.3861 37.5661 89.7541 38.3034 89.5076C38.1496 89.01 37.7468 88.7748 37.3893 88.368ZM55.5405 91.7471C55.6582 91.0631 55.0287 90.9983 54.6817 90.6246C54.345 91.0103 53.9537 91.2671 53.7598 91.7592C54.3508 92.0346 54.8924 91.8702 55.5405 91.7471ZM90.1837 69.7995C90.1751 69.5887 90.1808 69.3685 89.8918 69.3415C88.6245 70.4936 88.5504 70.7243 89.3418 71.293C89.6167 70.831 89.8892 70.373 90.1837 69.7995ZM70.7329 87.7634C71.2706 87.7946 71.6849 87.4772 72.1247 87.2509C72.7558 86.9261 72.5432 86.6201 72.057 86.2716C71.626 86.8306 70.8887 87.002 70.7329 87.7634ZM59.0447 90.998C58.8639 91.2823 59.0142 91.3953 59.2747 91.3603C59.6442 91.3107 60.0317 91.2893 60.3882 91.0376C60.0102 90.2475 59.5817 90.4235 59.0447 90.998ZM13.1844 68.1907C13.3112 68.3364 13.5015 68.6453 13.637 68.3503C13.8698 67.8436 13.443 67.6069 13.0753 67.3607C12.8941 67.6672 13.0615 67.8707 13.1844 68.1907Z" fill="#765B00"/>
<path d="M95.1721 1.86972C96.6595 1.63729 97.3361 2.14002 97.5197 3.52779C97.59 4.05987 97.6457 4.59757 97.7689 5.11833C98.215 7.00379 99.1428 7.68281 101.513 7.91306C101.808 7.94173 102.108 7.97174 102.393 8.05037C103.382 8.32429 103.909 9.06248 103.77 9.94668C103.618 10.9218 102.816 11.5545 101.789 11.5184C98.939 11.4179 97.8943 12.4624 97.5895 14.7111C97.5343 15.1189 97.4023 15.5313 97.2268 15.9045C96.9016 16.5962 96.3223 16.9365 95.5526 16.8498C94.7826 16.7631 94.3081 16.3168 94.1517 15.5502C94.098 15.2868 94.0357 15.0233 94.007 14.7567C93.7758 12.6026 93.1246 11.8979 90.9766 11.5396C90.5365 11.4662 90.0837 11.4674 89.6365 11.4389C88.5565 11.3699 87.8832 10.7054 87.8632 9.68501C87.8426 8.64052 88.4719 8.00028 89.5932 7.92442C89.921 7.90225 90.2559 7.91492 90.5755 7.85104C93.062 7.35401 93.794 6.49641 94.0022 3.90445C94.0687 3.077 94.2519 2.29662 95.1721 1.86972Z" fill="#765B00"/>
<path d="M4.95546 7.24224C6.25228 6.3157 6.32574 4.92667 6.53314 3.60322C6.73031 2.34504 7.22712 1.81711 8.2385 1.79131C9.08932 1.76961 9.59511 2.20083 9.84135 2.95912C9.9695 3.35375 10.0342 3.77533 10.078 4.18996C10.3467 6.73185 11.3496 7.71201 13.9122 7.91588C14.1205 7.93246 14.3324 7.94274 14.5347 7.99002C15.4908 8.21354 16.0513 8.82299 15.9824 9.54613C15.8642 10.7849 15.2606 11.431 14.1474 11.4457C13.4523 11.4549 12.7763 11.5481 12.1065 11.7192C10.9169 12.0232 10.3216 12.8539 10.101 14.0022C10.0109 14.4712 9.97773 14.951 9.8897 15.4205C9.74803 16.1761 8.99133 16.9015 8.31393 16.96C7.62704 17.0194 6.84199 16.4213 6.60008 15.6178C6.48876 15.248 6.42443 14.8621 6.36378 14.4795C6.06988 12.6256 4.91847 11.5824 3.02384 11.4746C2.60523 11.4508 2.18378 11.4696 1.76618 11.4366C0.806854 11.3608 0.132255 10.6863 0.0773423 9.77358C0.0213233 8.84254 0.491975 8.22852 1.50575 8.01798C2.63948 7.78252 3.84463 7.87967 4.95546 7.24224Z" fill="#765B00"/>
<path d="M19.1148 56.4143C18.8675 54.99 18.8783 53.6537 19.2386 52.3315C19.9941 49.5583 22.435 48.0701 25.4497 48.6634C27.8836 49.1425 30.2818 49.8014 32.7114 50.3051C36.755 51.1434 40.8381 51.7227 44.9614 51.9999C49.9243 52.3334 54.8893 52.3768 59.8474 51.9725C64.7147 51.5756 69.509 50.6987 74.2641 49.5966C75.6331 49.2794 77.0083 48.9775 78.3933 48.7433C82.9297 47.9759 85.1349 50.9316 85.2642 54.7187C85.373 57.9072 84.3271 60.8754 83.0049 63.6999C78.747 72.7961 71.9299 79.0232 62.2406 82.0155C56.3179 83.8446 50.2999 84.1504 44.318 82.7883C37.798 81.3038 32.0442 78.2177 27.4741 73.1886C23.5577 68.879 20.7154 63.9861 19.4035 58.2661C19.2695 57.6816 19.1265 57.0999 19.1148 56.4143ZM51.6741 61.5527C55.578 61.6368 59.4511 61.298 63.2885 60.6085C67.8378 59.791 72.3192 58.7232 76.4209 56.4785C77.5218 55.8761 78.6456 55.2947 79.5386 54.3763C79.821 54.0859 80.0803 53.7723 79.9299 53.3466C79.7599 52.8655 79.3328 52.6984 78.8634 52.6547C78.0458 52.5786 77.2533 52.7576 76.4668 52.9432C71.1318 54.2016 65.7526 55.2198 60.2886 55.6961C55.9014 56.0785 51.5061 56.1079 47.0995 55.9186C42.2086 55.7086 37.3742 55.1662 32.5965 54.106C30.435 53.6263 28.277 53.1281 26.1062 52.6945C25.4051 52.5544 24.5347 52.4946 24.2001 53.2828C23.9025 53.9838 24.6879 54.2971 25.1329 54.6389C27.8078 56.6936 30.8524 58.0473 34.0527 58.9934C39.736 60.6734 45.5533 61.5645 51.6741 61.5527Z" fill="#765B00"/>
<path d="M18.0893 41.1491C19.8459 35.7663 23.1892 31.9337 28.7108 30.6162C34.502 29.2343 39.2139 31.2807 42.8228 35.9855C44.2633 37.8634 45.0994 39.9672 45.4897 42.2775C45.821 44.2384 44.9664 46.0658 43.4435 46.6183C41.7977 47.2155 40.4828 46.6635 39.6709 45.0379C39.0711 43.837 38.655 42.5494 37.8073 41.4671C34.8638 37.7092 29.0745 37.5721 25.9386 41.2071C25.2156 42.0452 24.5124 42.9031 23.7485 43.7025C22.4481 45.0634 21.0952 45.4886 19.8322 44.854C18.3603 44.1144 17.9568 42.7792 18.0893 41.1491Z" fill="#765B00"/>
<path d="M85.0804 38.5442C85.7036 39.8814 86.3681 41.1496 86.0297 42.6306C85.4939 44.9752 82.8201 45.8788 80.9629 44.3569C79.9779 43.5498 79.3051 42.4693 78.4833 41.5194C76.9614 39.7602 75.0844 38.7013 72.7309 38.5864C69.9236 38.4495 67.8469 39.7239 66.2786 41.963C65.604 42.9262 65.1526 44.0061 64.641 45.0562C64.0092 46.3529 62.8772 47.0176 61.6302 46.8784C60.3274 46.733 59.4571 45.8891 59.0057 44.5042C58.4359 42.7559 58.8459 41.1002 59.4869 39.5143C61.1632 35.3676 64.0063 32.2452 68.2967 30.8463C72.5713 29.4526 76.643 30.2222 80.2814 32.9405C82.2792 34.4331 83.8751 36.2802 85.0804 38.5442Z" fill="#765B00"/>
<path d="M26.7768 23.1045C24.0871 25.6661 21.5137 28.2502 19.2005 31.082C18.8985 31.4517 18.5618 31.7963 18.216 32.1262C17.8643 32.4617 17.4818 32.8128 16.974 32.3773C16.471 31.9458 16.7446 31.5254 17.0227 31.1129C17.9305 29.7669 19.0553 28.6018 20.1578 27.4243C21.8137 25.6556 23.5131 23.9273 25.2068 22.1942C26.5728 20.7965 28.1898 19.7053 29.758 18.5597C30.4228 18.074 31.1001 18.1943 31.3748 18.7841C31.6923 19.4655 31.1793 19.7936 30.7019 20.0368C29.2102 20.7968 28.0572 21.9776 26.7768 23.1045Z" fill="#765B00"/>
<path d="M66.303 14.0576C65.3335 14.7807 64.5103 15.5501 63.9233 16.5539C63.6475 17.0256 63.2909 17.3742 62.6846 16.9929C62.0431 16.5896 62.0909 16.0667 62.4557 15.5344C62.9621 14.7953 63.4682 14.0489 64.2055 13.5047C65.2636 12.7237 66.3044 11.9179 67.3831 11.1666C67.8374 10.8501 68.3938 10.6459 68.7976 11.2627C69.2049 11.8847 68.7512 12.2736 68.3168 12.607C67.6775 13.0975 66.935 13.4457 66.303 14.0576Z" fill="#765B00"/>
<path d="M24.6468 27.6606C26.0534 26.0931 27.6169 24.7928 29.1631 23.473C29.7025 23.0125 30.2654 22.9191 30.7273 23.4919C31.239 24.1263 30.843 24.6098 30.2875 24.9683C28.6656 26.0149 27.2922 27.3364 26.0232 28.7762C25.5931 29.2642 25.0992 29.4598 24.5356 29.0253C23.9526 28.5759 24.2955 28.1358 24.6468 27.6606Z" fill="#765B00"/>
<path d="M79.9081 20.062C80.1121 19.9227 80.252 19.8023 80.4136 19.7312C80.901 19.5168 81.3718 19.5283 81.6665 20.0307C81.9659 20.5413 81.7572 20.9608 81.283 21.2379C79.7132 22.1552 78.4683 23.4413 77.2676 24.7727C76.9125 25.1664 76.5742 25.3461 76.1259 24.98C75.7057 24.6368 75.706 24.1859 75.9774 23.7776C76.2884 23.3097 76.6316 22.8657 77.0542 22.4723C77.9513 21.6375 78.8755 20.8399 79.9081 20.062Z" fill="#765B00"/>
<path d="M84.5464 23.0016C85.3418 23.6884 85.3445 24.1527 84.5458 24.6182C83.2125 25.3953 82.0085 26.3129 81.0537 27.5372C80.5994 28.1195 80.0592 28.1946 79.5065 27.7079C78.9714 27.2367 79.2818 26.7786 79.6375 26.386C80.7671 25.1393 81.9681 23.9742 83.46 23.1515C83.7885 22.9704 84.1085 22.8433 84.5464 23.0016Z" fill="#765B00"/>
<path d="M73.3937 21.0246C74.2048 19.5648 75.4136 18.5907 76.6973 17.6957C77.2264 17.3268 77.7584 17.3959 78.1152 17.9128C78.484 18.4472 78.1929 18.9315 77.7087 19.1931C76.6211 19.7808 75.8394 20.6587 75.1311 21.6368C74.8792 21.9847 74.5339 22.2489 74.0507 22.0808C73.5859 21.919 73.2601 21.6484 73.3937 21.0246Z" fill="#765B00"/>
<path d="M18.3843 36.8365C17.9571 37.3806 17.6066 37.9099 17.1743 38.3609C16.8038 38.7474 16.316 38.9698 15.8259 38.5182C15.3669 38.0953 15.5805 37.671 15.8593 37.2343C16.5929 36.0853 17.572 35.1611 18.5624 34.2498C19.0614 33.7907 19.6471 33.818 20.0732 34.3131C20.5159 34.8276 20.0042 35.1767 19.6867 35.5128C19.2764 35.9473 18.8468 36.3636 18.3843 36.8365Z" fill="#765B00"/>
<path d="M34.5472 21.7016C34.0107 22.0375 33.5416 22.3598 33.0448 22.6318C32.6223 22.8631 32.1393 22.9128 31.8342 22.4766C31.5362 22.0504 31.688 21.5861 32.0804 21.2846C33.0761 20.5197 34.1144 19.8148 35.3155 19.3991C35.8795 19.2039 36.4396 19.2292 36.6829 19.8458C36.9268 20.4641 36.4526 20.7497 35.9581 20.9784C35.4985 21.1911 35.0538 21.4356 34.5472 21.7016Z" fill="#765B00"/>
<path d="M84.9804 30.2369C84.493 30.885 83.9613 31.1112 83.3634 30.5315C82.7555 29.9422 83.1643 29.4511 83.6096 29.0077C84.2881 28.3323 85.0181 27.7196 85.8474 27.2322C86.3136 26.9581 86.8054 26.906 87.1205 27.3777C87.446 27.8649 87.2683 28.3815 86.8157 28.7201C86.1957 29.1838 85.5161 29.5694 84.9804 30.2369Z" fill="#765B00"/>
<path d="M37.2061 22.774C37.5946 21.8902 38.1966 21.2941 38.9998 20.9023C39.4219 20.6965 39.815 20.7356 40.1229 21.1216C40.4144 21.4869 40.326 21.8866 40.0809 22.1995C39.6173 22.7911 39.0241 23.2726 38.3346 23.5579C37.7165 23.8137 37.3021 23.5152 37.2061 22.774Z" fill="#765B00"/>
<path d="M72.9753 15.6814C73.5672 15.3102 74.011 14.7041 74.7875 15.1009C75.4822 15.456 75.5801 15.9845 74.9731 16.5038C74.5655 16.8525 74.1062 17.1431 73.6572 17.4404C73.2077 17.7381 72.7186 17.754 72.3415 17.365C71.8948 16.9042 72.234 16.4817 72.5411 16.0994C72.6525 15.9607 72.7945 15.8466 72.9753 15.6814Z" fill="#765B00"/>
<path d="M67.8059 17.6891C67.4967 18.0209 67.2592 18.3339 66.9653 18.5794C66.6264 18.8624 66.2432 18.8346 65.9042 18.5422C65.5721 18.2558 65.4693 17.8869 65.6633 17.4944C65.9613 16.8914 66.4388 16.428 67.0072 16.0899C67.41 15.8502 67.8939 15.7668 68.2025 16.2439C68.5619 16.7995 68.3276 17.264 67.8059 17.6891Z" fill="#765B00"/>
<path d="M23.1048 30.4552C23.5843 30.9347 23.4887 31.3659 23.0922 31.7428C22.6246 32.1873 22.1847 32.7523 21.4284 32.6016C21.1084 32.5378 20.9873 32.2172 20.9791 31.8992C20.9565 31.0291 22.1733 30.1617 23.1048 30.4552Z" fill="#765B00"/>
<path d="M69.0673 14.1031C69.5907 13.6567 70.1212 13.4418 70.6263 13.9173C71.0482 14.3146 71.0263 14.7978 70.6288 15.2653C70.1886 15.7829 69.6692 16.0352 69.0808 15.6203C68.4961 15.2081 68.6114 14.6616 69.0673 14.1031Z" fill="#765B00"/>
<path d="M32.8082 15.4008C32.6937 14.7588 32.7414 14.2459 33.3927 14.0191C33.8983 13.8431 34.3647 13.9354 34.6616 14.3884C34.9475 14.8247 34.9168 15.3026 34.5831 15.7244C34.1054 16.3281 33.4188 16.2244 32.8082 15.4008Z" fill="#765B00"/>
<path d="M86.6249 59.3245C85.7642 58.5148 85.7807 57.6171 86.6165 57.4166C87.0419 57.3145 87.5275 57.2511 87.8395 57.698C88.0982 58.0686 88.1243 58.487 87.8907 58.8776C87.62 59.3304 87.229 59.5523 86.6249 59.3245Z" fill="#765B00"/>
<path d="M88.4246 30.2331C89.0979 30.405 89.371 30.8016 89.154 31.3832C88.9857 31.8342 88.6543 32.2792 88.1066 32.2029C87.588 32.1307 87.304 31.7405 87.3136 31.1723C87.3253 30.4778 87.7144 30.2256 88.4246 30.2331Z" fill="#765B00"/>
<path d="M89.6996 40.6945C90.0235 40.1711 90.4427 39.9416 90.9203 40.2691C91.3422 40.5585 91.4666 41.0219 91.2261 41.5294C91.0129 41.9792 90.6434 42.1394 90.204 41.9826C89.6302 41.7779 89.4961 41.3207 89.6996 40.6945Z" fill="#765B00"/>
<path d="M58.2677 10.8475C58.4143 10.0371 58.9109 9.8392 59.5343 10.1015C60.0759 10.3293 60.1074 10.8288 59.8535 11.3183C59.7028 11.6089 59.412 11.7335 59.0969 11.7105C58.6173 11.6755 58.3397 11.3933 58.2677 10.8475Z" fill="#765B00"/>
<path d="M70.1021 19.1738C70.6053 18.7519 71.0644 18.7428 71.5031 19.146C71.7857 19.4056 71.78 19.7126 71.6022 20.0351C71.3408 20.509 70.9339 20.7778 70.4282 20.5584C69.8314 20.2994 69.7343 19.7978 70.1021 19.1738Z" fill="#765B00"/>
<path d="M47.3857 11.2563C47.1955 10.69 47.4014 10.3234 47.808 10.0478C48.1047 9.84673 48.3942 9.93908 48.624 10.1625C49.024 10.5514 49.1048 11.0363 48.7125 11.4358C48.2896 11.8667 47.8041 11.8373 47.3857 11.2563Z" fill="#765B00"/>
<path d="M87.1248 38.2825C87.079 37.7192 87.262 37.3542 87.7846 37.2413C88.0921 37.1749 88.3849 37.236 88.5695 37.5146C88.7657 37.8107 88.752 38.1329 88.5738 38.4337C88.2555 38.9708 87.7102 38.933 87.1248 38.2825Z" fill="#765B00"/>
</g>
<defs>
<clipPath id="clip0_54750_25573">
<rect width="102.632" height="100" fill="white" transform="translate(0.684204)"/>
</clipPath>
</defs>
</svg>
