<svg width="443" height="389" viewBox="0 0 443 389" fill="none" xmlns="http://www.w3.org/2000/svg">
<path d="M395.806 66.2329C395.013 71.3093 394.722 75.8897 395.626 80.5823C397.512 90.363 403.568 95.3629 413.42 94.9987C415.005 94.9401 416.692 94.017 418.661 95.6526C415.618 105.075 407.995 109.668 399.029 113.452C403.754 124.101 408.398 134.567 413.042 145.032C422.161 165.583 431.323 186.115 440.379 206.694C444.315 215.638 441.32 223.49 432.7 227.449C424.998 230.986 417.019 227.765 412.987 219.158C407.395 207.222 404.117 194.409 399.307 182.167C395.96 173.65 392.863 165.036 389.554 156.199C387.411 164.776 388.763 185.044 391.829 192.766C401.415 216.905 410.997 241.047 420.54 265.203C424.122 274.269 421.859 277.495 412.081 277.481C404.748 277.47 397.403 277.718 390.087 277.373C385.37 277.15 383.744 278.546 383.78 283.483C383.989 312.813 383.858 342.144 383.895 371.475C383.903 377.727 382.037 383.04 376.472 386.346C365.669 392.765 353.629 385.341 353.413 371.983C353.181 357.655 353.332 343.32 353.323 328.988C353.314 313.656 353.248 298.323 353.357 282.992C353.381 279.521 353.052 277.348 348.616 277.425C344.183 277.503 343.915 279.842 343.92 283.205C343.966 312.703 343.959 342.2 343.914 371.698C343.901 380.588 339.243 386.802 331.723 388.249C321.685 390.179 313.391 382.836 313.373 371.786C313.332 346.122 313.397 320.458 313.416 294.793C313.419 290.794 313.182 286.777 313.467 282.799C313.774 278.528 311.959 277.339 307.936 277.461C300.111 277.698 292.273 277.558 284.44 277.521C276.436 277.482 274.054 273.726 277.282 266.209C284.376 249.683 291.81 233.299 297.856 216.341C301.266 206.775 304.672 197.208 308.192 187.683C310.117 182.473 308.999 177.122 309.208 171.839C309.409 166.743 309.251 161.632 308.805 156.478C305.994 160.241 304.666 164.501 303.31 168.723C297.203 187.734 291.093 206.745 285.139 225.804C283.319 231.63 280.226 236.262 274.979 239.485C270.58 242.188 266.387 245.234 261.937 247.844C258.018 250.142 256.716 253.288 256.763 257.766C256.954 275.929 256.795 294.096 256.897 312.261C256.918 315.917 256.369 319.471 253.998 322.093C251.228 325.158 251.021 328.473 251.047 332.234C251.142 346.231 251.068 360.23 250.976 374.228C250.923 382.291 245.426 388.136 237.834 388.403C231.019 388.643 224.672 382.179 224.488 374.237C224.268 364.744 224.511 355.241 224.501 345.743C224.493 337.577 224.331 329.411 224.403 321.246C224.431 318.074 223.753 316.186 220.003 316.296C216.512 316.399 214.89 317.525 214.916 321.292C215.036 338.957 215.045 356.623 214.935 374.287C214.864 385.727 204.41 391.989 194.838 386.411C189.822 383.487 188.292 378.61 188.277 373.2C188.238 359.201 188.302 345.202 188.403 331.204C188.424 328.297 188.191 325.683 186.012 323.38C183.596 320.824 183.236 317.497 183.21 314.053C183.074 295.393 182.718 276.734 182.715 258.075C182.714 253.732 181.498 250.889 177.48 248.928C171.499 246.009 165.758 242.602 159.851 239.523C154.134 236.544 150.839 231.844 149.321 225.682C144.664 206.777 139.975 187.88 135.236 168.995C134.784 167.193 134.961 164.917 132.374 163.926C130.086 165.638 130.988 168.152 130.983 170.27C130.85 233.431 130.782 296.592 130.675 359.754C130.668 363.746 130.792 367.789 130.238 371.721C128.669 382.855 120.939 389.255 110.396 388.533C101.154 387.9 94.4762 380.176 94.318 369.499C94.1478 358.002 94.2607 346.501 94.2592 335.002C94.2562 311.004 94.2305 287.006 94.2942 263.008C94.3027 259.8 93.9876 257.557 89.8543 257.528C86.2122 257.503 84.8433 258.598 84.8754 262.376C85.0155 278.873 84.9072 295.372 84.9019 311.871C84.8957 331.203 84.9243 350.534 84.8957 369.866C84.8803 380.338 78.7441 387.617 69.2351 388.574C58.9684 389.606 50.6593 383.346 48.8132 372.955C48.3223 370.193 48.3567 367.315 48.3545 364.49C48.3042 299.996 48.2913 235.501 48.2142 171.007C48.2117 168.975 49.0469 166.67 47.1747 164.897C44.4882 165.146 44.7587 167.528 44.2975 169.056C39.491 184.979 34.9115 200.971 30.0756 216.885C27.8019 224.367 22.9042 228.295 16.2467 228.638C5.3137 229.201 -2.56059 219.587 0.77281 209.114C6.27571 191.824 12.2962 174.7 17.9483 157.457C21.1615 147.654 23.9112 137.699 27.159 127.908C34.3016 106.376 53.0469 95.3105 75.2765 99.6973C85.1105 101.638 94.7151 101.21 104.51 99.4888C127.28 95.4885 147.224 108.449 153.176 130.783C154.846 137.05 156.286 143.378 157.95 149.647C163.707 171.337 169.571 192.999 175.251 214.709C176.136 218.093 177.991 220.213 180.999 221.716C185.021 223.726 189.009 225.817 192.917 228.039C197.801 230.816 200.108 234.868 200.026 240.751C199.786 257.913 200.066 275.082 199.865 292.244C199.814 296.565 201.076 298.166 205.523 298.031C214.681 297.754 223.857 297.778 233.016 298.023C237.137 298.133 238.526 296.776 238.48 292.617C238.294 275.787 238.6 258.95 238.299 242.124C238.178 235.339 240.592 229.954 246.366 227.225C256.65 222.365 260.915 213.942 264.206 203.676C273.306 175.283 284.582 147.662 295.711 120.012C297.427 115.748 297.256 113.734 292.558 111.831C285.309 108.897 281.046 102.799 278.048 95.5817C280.786 94.3918 283.125 95.1339 285.397 95.0609C294.664 94.763 300.698 89.1807 301.378 79.8759C301.876 73.0512 301.385 66.2385 300.854 59.4204C299.358 40.2105 303.099 22.6001 319.068 10.1014C347.501 -12.1529 389.522 4.38853 395.908 39.9398C397.464 48.6045 396.812 57.1706 395.806 66.2329ZM323.783 197.796C316.402 217.837 309.022 237.879 301.445 258.453C333.691 258.453 364.709 258.453 395.572 258.453C396.358 256.353 395.418 255.026 394.914 253.682C390.126 240.893 385.671 227.961 380.361 215.39C373.002 197.972 368.176 180.247 370.226 161.12C370.579 157.825 370.276 154.459 370.277 151.126C370.282 139.05 372.309 136.634 384.066 134.632C384.328 134.588 384.53 134.193 385.142 133.578C382.596 125.631 377.702 118.876 372.582 112.123C357.115 121.686 341.766 122.943 326.257 113.287C319.428 118.935 314.112 125.407 312.573 134.435C325.535 136.305 327.794 138.992 327.778 152.146C327.768 160.146 327.483 168.155 327.789 176.143C328.069 183.453 327.036 190.397 323.783 197.796ZM66.4727 230.767C68.0669 232.54 70.1986 231.906 72.1192 231.917C83.2792 231.977 94.4397 231.954 105.6 231.947C112.508 231.944 112.546 231.935 112.544 225.103C112.54 201.617 112.465 178.131 112.506 154.645C112.52 146.012 115.699 143.079 124.314 142.906C128.038 142.831 131.891 143.707 135.817 141.995C135.248 137.886 134.347 134.016 132.811 130.355C129.382 122.185 123.11 117.646 114.276 117.529C97.7884 117.309 81.2945 117.355 64.8059 117.536C54.8904 117.645 47.7018 123.5 45.1319 132.94C42.5038 142.593 42.7691 142.94 52.7914 142.952C62.8631 142.965 65.8674 145.913 65.9069 156.04C66.0032 180.689 66.0516 205.338 66.4727 230.767ZM366.98 51.6133C355.583 48.0302 345.876 41.8873 338.424 32.4645C336.605 30.1654 335.193 29.0281 332.429 31.3703C325.262 37.4424 321.733 49.5641 324.779 58.6597C328.237 68.985 337.261 75.7075 348.025 75.9768C359.107 76.254 367.839 70.533 371.8 60.4001C374.232 54.1782 373.974 53.6308 366.98 51.6133ZM365.854 87.8348C360.233 88.9666 355.123 91.8072 349.079 91.7716C342.632 91.7335 336.741 90.068 330.855 87.4688C329.233 91.2278 329.966 93.7476 332.866 96.0891C340.331 102.115 351.242 102.998 360.573 98.2555C364.742 96.1368 367.087 93.2144 365.854 87.8348Z" fill="black"/>
<path d="M123.415 20.5458C142.495 46.1261 129.314 80.2064 103.369 89.3018C76.6833 98.6564 46.7592 78.2326 46.2334 49.9076C45.7672 24.7926 62.0039 5.77089 86.437 3.75508C101.431 2.51808 113.631 8.76332 123.415 20.5458ZM78.1558 30.2161C77.4513 30.6593 76.7242 31.0704 76.0459 31.5507C67.8234 37.3726 64.1066 48.9334 67.3216 58.6515C70.5051 68.2744 79.9062 74.4515 90.6171 73.9577C100.032 73.5238 109.581 65.755 111.735 56.167C113.709 47.3776 111.495 39.6044 104.385 33.6852C96.6792 27.2692 88.1799 25.5401 78.1558 30.2161Z" fill="black"/>
<path d="M202.636 128.108C224.251 117.647 247.382 127.91 253.11 150.187C257.877 168.723 245.483 188.744 226.936 192.472C206.859 196.507 189.072 184.392 186.248 164.241C184.129 149.119 189.197 136.801 202.636 128.108ZM229.529 172.785C236.082 165.701 236.042 156.679 229.433 151.245C222.539 145.576 212.93 146.658 207.793 153.683C202.655 160.708 204.501 169.199 212.534 174.249C218.117 177.759 223.662 176.749 229.529 172.785Z" fill="black"/>
<path d="M206.134 199.775C215.25 203.462 224.487 203.813 232.601 199.59C239.881 195.801 246.413 198.621 253.882 198.145C252.76 205.186 249.097 209.708 244.109 213.198C230.737 222.557 203.963 221.617 191.2 211.452C187.366 208.398 184.409 204.712 182.857 199.169C190.792 197.907 198.251 194.172 206.134 199.775Z" fill="black"/>
</svg>
