<svg width="538" height="630" viewBox="0 0 538 630" fill="none" xmlns="http://www.w3.org/2000/svg">
<path d="M183.478 629.678C118.039 624.836 68.6695 592.981 31.061 541.316C15.6523 520.148 5.70273 496.352 2.04376 470.316C-6.71197 408.015 21.8567 352.252 79.2296 324.947C93.2664 318.266 108.488 314.598 124.111 314.181C136.384 313.853 142.724 307.484 143.698 293.784C145.615 266.831 157.099 244.406 177.024 226.615C195.411 210.198 217.56 202.228 242.115 200.647C264.836 199.183 286.607 202.402 306.901 213.218C309.365 214.53 310.393 213.431 311.742 211.627C336.578 178.402 361.561 145.286 386.305 111.992C400.316 93.1379 413.903 73.9684 427.812 55.0375C429.787 52.3486 429.506 50.8676 426.861 49.0267C420.983 44.9357 415.111 40.8056 409.54 36.3145C404.962 32.6231 402.909 27.5477 404.167 21.6258C405.533 15.1951 409.526 11.1451 415.915 9.30937C420.887 7.88099 424.724 10.148 428.382 12.822C433.22 16.36 438.089 19.9122 442.537 23.9123C446.359 27.3494 448.573 26.3978 451.096 22.5059C454.535 17.1994 458.313 12.1057 462.082 7.02214C467.575 -0.385183 474.625 -1.5328 481.978 3.89796C496.049 14.2912 510.089 24.7295 524.028 35.2989C533.956 42.8264 534.903 50.3795 527.466 60.542C523.924 65.3822 520.53 70.3661 516.594 74.8708C513.511 78.4002 514.389 80.5526 517.766 82.8717C522.297 85.983 526.856 89.0808 531.149 92.5039C536.131 96.4773 539.135 101.482 537.326 108.214C535.605 114.616 531.434 118.477 524.959 119.853C520.948 120.705 517.374 119.678 514.143 117.267C511.072 114.975 507.992 112.694 504.953 110.359C501.93 108.037 498.955 105.654 495.167 102.674C454.289 156.018 413.712 209.176 373.506 263.021C375.429 266.822 378.91 269.512 381.78 272.625C400.495 292.919 413.194 316.329 415.752 343.969C419.203 381.256 408.429 413.119 376.481 435.522C369.573 440.367 361.692 443.063 353.63 445.318C343.842 448.056 341.361 451.489 341.257 461.719C341.081 478.864 342.702 496.161 339.626 513.103C331.18 559.613 305.024 593.244 262.92 614.104C238.182 626.361 211.623 631.382 183.478 629.678ZM50.3326 383.81C35.2097 403.631 28.5389 426.251 28.368 450.932C28.2263 471.394 34.2381 490.39 43.4503 508.345C55.7206 532.262 74.2505 550.978 95.3068 567.105C134.125 596.837 177.516 608.984 225.831 597.517C278.921 584.916 313.629 540.102 313.67 485.577C313.679 474.411 313.572 463.243 313.765 452.08C313.922 442.979 316.405 434.614 323.137 428.054C328.612 422.717 335.765 420.699 342.878 418.966C373.274 411.56 389.261 381.738 388.428 353.804C387.879 335.403 381.541 318.575 370.328 303.845C365.722 297.795 360.619 292.112 354.969 287.273C352.391 288.292 351.527 290.222 350.377 291.783C338.625 307.746 327.224 323.974 314.639 339.306C312.668 341.707 313.224 343.657 314.208 346.138C321.779 365.22 322.399 384.793 314.641 403.604C301.415 435.674 271.856 450.728 236.477 446.925C232.998 446.552 231.301 447.534 229.467 450.004C219.735 463.111 209.893 476.135 200.116 489.209C196.577 493.941 193.114 498.73 189.565 503.562C195.542 508.148 201.207 511.999 206.269 516.524C210.954 520.711 211.885 528.257 209.232 533.609C206.516 539.088 200.325 542.145 193.692 541.201C189.739 540.638 186.636 538.318 183.588 535.992C159.22 517.39 134.827 498.821 110.545 480.109C103.299 474.525 95.4069 469.683 89.1433 462.929C83.4574 456.798 83.4323 448.244 88.6281 442.515C93.9684 436.627 101.207 436.188 108.338 441.522C113.807 445.612 119.167 449.852 124.489 454.134C126.778 455.976 128.406 455.946 130.245 453.445C143.867 434.924 157.55 416.447 171.284 398.009C173.434 395.122 173.96 392.259 173.257 388.685C170.926 376.822 170.573 364.84 173.151 352.988C179.775 322.544 208.948 299.093 240.396 298.751C243.669 298.716 246.413 298.473 248.66 295.408C261.866 277.407 275.265 259.548 288.59 241.634C289.363 240.594 290.432 239.633 289.834 237.859C274.779 229.921 258.685 227.372 241.654 228.99C200.977 232.856 173.25 261.714 171.284 302.577C170.266 323.734 159.268 336.972 139.241 340.731C134.359 341.647 129.322 341.766 124.35 342.179C93.6057 344.733 69.4641 359.105 50.3326 383.81ZM424.606 148.131C430.347 140.574 436.082 133.013 441.835 125.465C443.244 123.617 444.369 121.922 441.774 120.021C436.298 116.011 430.912 111.875 425.175 107.554C377.016 173.821 326.282 237.619 278.139 303.898C282.669 306.804 286.855 309.178 290.693 312.022C296.627 316.42 295.956 317.035 301.001 310.435C319.507 286.229 337.865 261.911 356.323 237.669C378.915 207.995 401.551 178.355 424.606 148.131ZM268.13 353.669C271.325 349.452 274.521 345.234 277.905 340.766C273.758 336.461 268.884 333.963 264.226 331.127C261.281 329.333 259.529 329.58 257.288 332.571C245.202 348.698 232.837 364.618 220.572 380.612C215.851 386.767 211.138 392.928 206.368 399.158C211.476 405.109 217.065 409.652 222.747 414.321C237.973 393.968 252.836 374.103 268.13 353.669ZM465.964 50.4296C458.869 60.0827 451.766 69.7293 444.69 79.3955C443.533 80.9757 441.894 82.6046 444.325 84.4728C450.344 89.0995 456.367 93.7216 462.799 98.6598C474.083 83.5361 485.009 68.8962 495.929 54.2513C496.894 52.9573 496.728 51.6894 495.476 50.7474C489.16 45.9954 482.806 41.2927 476.319 36.4636C472.697 41.3338 469.533 45.5895 465.964 50.4296ZM196.146 431.378C193.764 428.882 191.381 426.385 188.687 423.563C175.854 440.45 163.328 456.935 150.652 473.615C155.573 478.762 160.992 482.658 166.618 486.693C177.399 472.264 187.7 458.573 197.891 444.801C203.206 437.618 203.119 437.554 196.146 431.378ZM291.584 378.536C291.514 376.374 291.971 374.13 290.768 371.261C278.866 386.942 267.466 401.962 255.629 417.557C262.593 417.212 267.995 414.946 272.895 411.413C283.864 403.505 290.289 392.922 291.584 378.536ZM214.185 342.803C215.201 341.31 216.839 340.099 216.794 337.384C209.383 342.297 204.664 348.261 203.445 356.707C206.883 352.252 210.32 347.796 214.185 342.803Z" fill="black"/>
</svg>
