<svg width="80" height="100" viewBox="0 0 80 100" fill="none" xmlns="http://www.w3.org/2000/svg">
<path d="M61.7101 45.2393C61.3885 45.3242 61.0669 45.4091 60.5359 45.3291C60.0787 45.2434 59.831 45.3226 59.5833 45.4018C56.3501 45.4081 53.1155 45.3643 49.8847 45.4567C49.0913 45.4794 48.3106 45.9467 47.2679 46.3738C45.8888 47.8138 44.7658 49.0896 43.6585 50.3477C45.0594 51.0737 46.1375 51.6324 47.2155 52.191C47.334 53.1031 47.4524 54.0151 47.3902 55.1449C47.0725 56.2068 46.9355 57.051 46.6238 57.8984C44.3716 58.5804 44.1229 59.3379 44.9882 62.724C45.7901 62.724 46.6468 62.724 47.5034 62.724C47.5363 63.4753 47.5691 64.2265 47.4517 65.1831C47.3702 65.6696 47.439 65.9505 47.5078 66.2314C47.4563 67.5735 47.4048 68.9156 47.1423 70.4521C45.7254 70.781 44.5195 70.9156 43.2889 70.9094C42.9798 70.5708 42.6955 70.3729 42.2912 70.076C41.7874 68.4701 40.8361 67.9238 39.2787 67.9106C38.6879 67.9057 37.7825 67.2143 37.5666 66.633C35.4895 61.0391 36.5916 55.2231 36.5278 49.4869C36.5166 48.4735 36.997 47.2863 36.6134 46.4837C35.9988 45.1978 35.0571 43.6349 33.8719 43.1769C32.6892 42.7198 31.0263 43.4608 30.57 45.2098C30.3904 45.2509 30.2108 45.2919 29.8667 45.1766C28.0877 41.9925 26.3896 41.674 23.9328 43.867C23.4744 44.2762 22.8083 44.4528 22.2376 44.627C22.2371 44.4441 22.2369 44.3709 22.2403 44.121C23.0515 40.5859 22.5955 40.0356 19.0502 39.8907C18.3876 39.8637 17.2171 39.6554 17.1624 39.3648C16.7353 37.0966 15.1115 37.2196 13.4634 37.1721C13.4624 37.0636 13.4617 36.8464 13.5093 36.7323C13.6724 36.4004 13.7881 36.1826 14.0876 35.9647C14.8753 35.6402 15.7997 35.4596 16.0218 34.9642C16.661 33.5389 19.7455 31.549 20.8648 32.4139C22.7656 33.8827 24.7741 33.1761 26.7288 33.2961C28.1846 33.3855 29.4026 33.484 30.1526 35.0252C30.7905 36.3361 31.7539 36.3063 32.723 35.1896C33.177 34.6665 33.7739 33.8697 34.2964 33.877C36.0122 33.9012 36.5719 32.7652 36.5908 31.5476C36.6295 29.0546 38.0973 28.2407 40.1677 28.1177C41.6316 28.0308 41.9708 27.3385 41.9996 26.0286C42.0439 24.0105 42.2301 21.9932 42.4193 19.9814C42.5345 18.7559 42.6693 17.5142 42.993 16.3341C43.1419 15.7915 43.7656 15.3791 44.3282 14.9058C44.7883 14.6316 45.0941 14.3594 45.3999 14.0872C44.991 14.0707 44.5821 14.0542 44.0611 13.9422C44.0218 13.0375 44.0944 12.2284 44.3375 11.3773C44.6826 10.0316 44.8572 8.72794 45.0318 7.42425C45.0769 7.16976 45.1221 6.91527 45.481 6.61543C46.0548 6.55697 46.3147 6.54386 46.5746 6.53076C46.8114 8.17121 47.0482 9.81165 47.147 11.738C47.1015 12.6976 47.1941 13.3713 47.2867 14.0449C47.3029 14.5101 47.319 14.9753 47.1906 15.6673C47.1355 16.1603 47.225 16.4265 47.3144 16.6927C47.327 17.1572 47.3396 17.6217 47.1165 18.2571C46.4269 18.792 45.5341 19.2485 45.5882 19.5053C46.0406 21.6502 46.6673 23.7583 47.2414 25.8775C47.2434 26.6307 47.2455 27.384 47.0654 28.3504C44.9036 29.7115 45.6092 31.5234 46.157 32.9384C46.3732 33.497 48.0058 33.7342 48.9795 33.7015C49.7734 33.6749 50.5592 33.0527 51.3246 32.6491C51.8888 32.3516 52.663 31.5582 52.9182 31.7084C55.2646 33.0897 57.5215 31.5346 59.7808 31.6833C61.4667 31.7942 63.1154 32.4702 64.9214 32.9557C65.5535 33.1222 66.045 33.2276 66.6555 33.4349C66.8409 34.0536 66.9073 34.5704 66.9762 35.2398C67.1292 35.6529 67.2797 35.9134 67.4301 36.1738C67.5943 35.9071 67.7585 35.6404 67.9226 35.3737C68.9517 35.7156 69.9807 36.0575 71.1849 36.5904C71.36 37.0977 71.3599 37.4139 71.3599 37.7302C71.2445 37.8195 71.1291 37.9087 70.7813 38.0812C68.806 38.7536 70.5918 39.9986 70.0568 40.8123C70.0568 40.8123 70.0485 40.7871 69.8957 40.7933C69.4861 40.9515 69.2292 41.1034 68.9723 41.2553C69.454 41.3311 69.9357 41.4069 70.4175 41.4827C70.5373 41.3874 70.6648 41.3755 70.8411 41.701C70.1075 42.2966 69.3554 42.7079 68.5537 42.9643C67.0187 43.4554 65.4556 43.8583 63.7275 44.298C62.9373 44.6118 62.3237 44.9256 61.7101 45.2393ZM61.5457 37.6276C61.0652 37.6479 60.5846 37.6682 60.104 37.6885C60.1721 37.9361 60.2402 38.1837 60.3083 38.4314C60.747 38.2678 61.1857 38.1042 61.5457 37.6276ZM47.924 44.4277C47.8048 44.3028 47.6855 44.1778 47.5663 44.0529C47.5146 44.1023 47.4152 44.192 47.418 44.1954C47.5293 44.3272 47.6499 44.4511 47.924 44.4277ZM64.2537 37.0143C64.2519 37.1868 64.25 37.3593 64.2482 37.5318C64.3198 37.5325 64.4536 37.538 64.454 37.5332C64.4672 37.3615 64.468 37.1889 64.2537 37.0143Z" fill="#765B00"/>
<path d="M43.3136 71.0502C44.5195 70.9156 45.7254 70.7811 47.0913 70.6302C47.2813 73.697 47.3113 76.7801 47.1396 80.061C46.3875 80.1767 45.8372 80.0945 45.2574 80.0079C44.5551 82.3966 46.1801 81.9796 47.4221 82.0022C47.3613 86.0186 47.3913 90.0398 47.1756 94.0478C47.1217 95.049 46.276 96.0075 45.6396 96.7235C45.4362 95.8126 45.3875 95.1639 45.3387 94.5153C45.1618 94.5227 44.9848 94.5301 44.8079 94.5375C44.7352 95.0578 44.6626 95.5781 44.59 96.0985C44.2136 96.5712 43.8373 97.0438 43.1219 97.9424C42.7005 96.841 42.4486 96.1828 42.4163 95.3465C42.9655 94.9625 43.2952 94.7565 43.625 94.5506C43.0063 94.1737 42.3877 93.7968 41.6371 93.3395C41.6371 91.7566 41.6371 90.0046 41.6371 88.2526C41.3817 88.2419 41.1263 88.2312 40.8708 88.2205C40.7999 89.2212 40.8068 90.2354 40.636 91.2188C40.4656 92.2005 40.1172 93.1514 39.8469 94.1158C39.5325 93.1954 39.1866 92.2842 38.9152 91.3513C38.7425 90.7575 38.6806 90.1315 38.569 89.5199C38.2654 89.5381 37.9617 89.5562 37.6581 89.5743C37.6581 91.5283 37.6581 93.4822 37.6581 95.4362C37.6258 95.7492 37.5934 96.0623 37.2177 96.427C36.7109 96.4661 36.5475 96.4535 36.3841 96.441C36.2925 96.0434 36.201 95.6458 36.1712 94.9493C36.0299 93.9895 35.827 93.3286 35.6875 92.8742C34.73 93.5988 33.9782 94.1677 33.2264 94.7366C33.1384 90.7385 33.0004 86.7407 32.9716 82.7422C32.8862 70.8916 32.8259 59.0407 32.8083 47.1898C32.8062 45.7719 32.3194 45.1607 30.7422 45.2631C31.0263 43.4609 32.6892 42.7199 33.8719 43.1769C35.0571 43.6349 35.9988 45.1978 36.6134 46.4838C36.997 47.2863 36.5165 48.4735 36.5278 49.487C36.5916 55.2231 35.4894 61.0391 37.5666 66.633C37.7825 67.2144 38.6879 67.9057 39.2787 67.9107C40.8361 67.9238 41.7874 68.4701 42.2921 70.2212C42.7132 70.6603 43.0134 70.8552 43.3136 71.0502ZM37.5866 73.3612C37.7826 74.4393 37.9786 75.5174 38.1745 76.5954C38.4503 76.5079 38.7262 76.4203 39.002 76.3328C38.6353 75.3325 38.2687 74.3322 37.5866 73.3612ZM35.2379 88.4316C35.147 89.4064 35.0561 90.3811 34.9653 91.3559C35.2498 91.3626 35.5343 91.3694 35.8188 91.3762C35.736 90.3971 35.6533 89.418 35.2379 88.4316ZM37.767 86.1888C37.4674 86.4571 37.1679 86.7254 36.8684 86.9937C37.1313 87.1683 37.3941 87.343 37.657 87.5177C37.7522 87.15 37.8474 86.7824 37.767 86.1888ZM41.6826 81.3728C41.5695 80.8824 41.4565 80.3919 41.3434 79.9015C41.1441 80.0033 40.9448 80.1051 40.7455 80.2069C40.9664 80.6023 41.1873 80.9976 41.6826 81.3728ZM43.0236 85.4593C43.2407 85.3617 43.4579 85.2641 43.675 85.1665C43.3848 84.9031 43.0946 84.6396 42.8044 84.3761C42.8146 84.6741 42.8248 84.9721 43.0236 85.4593ZM36.0312 79.9664C36.367 79.9151 36.7028 79.8638 37.0386 79.8125C37.0018 79.6195 36.965 79.4265 36.9281 79.2335C36.6148 79.3833 36.3014 79.533 36.0312 79.9664ZM44.4336 93.5827C44.6682 93.4695 44.9027 93.3563 45.1373 93.2431C45.0844 93.1528 45.0316 93.0626 44.9787 92.9723C44.7541 93.1174 44.5295 93.2624 44.4336 93.5827ZM37.1294 69.8743C37.1922 69.7702 37.255 69.6661 37.3178 69.562C37.2106 69.5236 37.1033 69.4851 36.9961 69.4466C36.9781 69.6011 36.9602 69.7555 37.1294 69.8743Z" fill="#765B00"/>
<path d="M44.174 14.9078C43.7656 15.3792 43.1418 15.7915 42.993 16.3341C42.6692 17.5143 42.5345 18.7559 42.4192 19.9815C42.23 21.9932 42.0439 24.0105 41.9995 26.0286C41.9707 27.3386 41.6315 28.0309 40.1677 28.1178C38.0973 28.2407 36.6294 29.0547 36.5908 31.5476C36.5719 32.7653 36.0121 33.9013 34.2964 33.8771C33.7738 33.8697 33.1769 34.6666 32.723 35.1897C31.7539 36.3064 30.7905 36.3362 30.1525 35.0252C29.4025 33.4841 28.1846 33.3855 26.7288 33.2962C24.7741 33.1761 22.7655 33.8828 20.8648 32.414C19.7454 31.549 16.6609 33.539 16.0218 34.9642C15.7996 35.4597 14.8752 35.6403 14.0648 35.8209C13.4524 35.4515 13.0469 35.2259 12.1336 34.718C12.6026 35.8322 12.8161 36.3392 12.9983 37.0057C11.8211 37.3381 10.6749 37.511 9.52881 37.6839C8.7151 37.6433 7.9014 37.6028 6.96027 37.3283C6.77343 36.9769 6.68234 36.8947 6.55957 36.8475C7.32051 36.3699 8.08146 35.8923 8.97912 35.329C8.6606 34.9833 8.26389 34.5528 7.71176 33.9536C8.36329 33.4841 8.99287 33.0303 9.60476 32.5893C9.4943 32.4532 9.26313 32.1683 9.15758 31.6687C9.34859 31.3164 9.41401 31.1788 9.47942 31.0413C13.6664 30.9089 17.8525 30.7334 22.0405 30.6575C25.5848 30.5932 29.1313 30.6442 32.9458 30.6442C32.9458 24.02 32.9333 17.569 32.958 11.1181C32.9622 10.0327 33.0459 8.93323 33.2384 7.86651C33.5005 6.41397 34.1876 6.1478 35.186 7.37995C35.7131 6.90651 36.2396 6.43325 36.9319 5.81104C37.4166 6.44633 37.819 6.97363 37.8824 7.05669C38.9037 6.80128 39.7051 6.60089 40.5667 6.74278C40.9491 8.25677 39.9783 9.87021 41.9978 10.9592C41.7958 9.47513 41.6546 8.43751 41.5134 7.3999C41.5134 7.3999 41.5217 7.19893 41.6427 7.06014C41.8661 6.84118 41.9357 6.7387 41.9724 6.61392C42.9946 5.49706 43.6379 5.95065 44.027 7.38367C44.0207 8.89886 44.0938 10.1591 44.167 11.4193C44.0944 12.2285 44.0217 13.0376 44.0602 14.0872C44.1722 14.5211 44.1731 14.7144 44.174 14.9078ZM12.1228 32.1357C12.1335 32.2866 12.1443 32.4375 12.1551 32.5884C12.2611 32.5567 12.367 32.5251 12.473 32.4934C12.4205 32.3833 12.368 32.2732 12.1228 32.1357ZM14.5542 32.488C14.4463 32.5526 14.3383 32.6172 14.2304 32.6817C14.3418 32.7416 14.4824 32.8736 14.5571 32.8432C14.6508 32.805 14.6906 32.634 14.5542 32.488Z" fill="#765B00"/>
<path d="M64.7807 32.8947C63.1154 32.4704 61.4666 31.7944 59.7807 31.6834C57.5214 31.5348 55.2645 33.0898 52.9181 31.7086C52.6629 31.5583 51.8887 32.3517 51.3245 32.6492C50.5591 33.0528 49.7733 33.675 48.9794 33.7016C48.0057 33.7343 46.3731 33.4971 46.1569 32.9385C45.6091 31.5236 44.9035 29.7116 47.0323 28.5364C47.275 29.1479 47.3686 29.787 47.5275 30.8716C55.4786 30.8716 63.402 30.8716 71.3253 30.8716C71.3745 31.0917 71.4236 31.3118 71.4728 31.5318C70.9117 31.9171 70.3506 32.3024 69.7637 32.7054C70.0712 32.8739 70.3668 33.0358 70.8539 33.3722C71.0038 33.9165 70.962 34.2865 70.9203 34.6564C70.0658 34.8487 69.2113 35.041 68.0167 35.1746C67.4423 35.1064 67.208 35.0968 66.9737 35.0873C66.9072 34.5705 66.8408 34.0538 66.6307 33.2852C65.9183 32.9872 65.3495 32.941 64.7807 32.8947Z" fill="#765B00"/>
<path d="M22.2365 44.2978C22.2367 44.371 22.2369 44.4442 22.27 44.7204C22.4147 45.0862 22.5265 45.2489 22.6383 45.4117C18.1086 45.4117 13.5789 45.4117 8.57881 45.4117C9.36827 44.515 9.77733 44.0503 10.1269 43.6532C9.59776 43.3972 9.04748 43.1309 8.12671 42.6853C9.39016 42.0262 10.3009 41.551 11.3093 41.025C9.98154 40.5692 7.87673 40.9291 9.29015 38.5281C10.9362 38.5827 12.1987 38.5886 13.6177 38.6128C16.4535 40.0146 13.2045 40.404 13.2122 41.1638C16.0956 42.9279 20.0471 40.9405 22.2365 44.2978Z" fill="#765B00"/>
<path d="M37.798 95.3375C37.658 93.4824 37.658 91.5285 37.658 89.5745C37.9616 89.5564 38.2652 89.5383 38.5689 89.5201C38.6805 90.1317 38.7424 90.7577 38.9151 91.3515C39.1864 92.2844 39.5324 93.1956 39.8467 94.116C40.1171 93.1516 40.4654 92.2007 40.6359 91.219C40.8066 90.2356 40.7997 89.2214 40.8707 88.2207C41.1261 88.2314 41.3815 88.2421 41.637 88.2528C41.637 90.0048 41.637 91.7568 41.637 93.3397C42.3875 93.797 43.0062 94.1739 43.6248 94.5508C43.2951 94.7567 42.9654 94.9627 42.461 95.1709C41.8984 95.2258 41.3106 95.1406 41.1607 95.3578C40.7511 95.9512 40.5259 96.672 40.0714 97.6935C39.1637 96.6491 38.5509 95.9439 37.798 95.3375Z" fill="#765B00"/>
<path d="M22.8157 45.4605C22.5266 45.2491 22.4148 45.0863 22.2705 44.8303C22.8082 44.453 23.4743 44.2764 23.9328 43.8672C26.3896 41.6742 28.0876 41.9927 29.7272 45.1898C28.3968 45.3997 27.0413 45.4403 25.4713 45.402C25.1142 45.3756 24.9716 45.428 24.8289 45.4804C24.2169 45.49 23.6049 45.4996 22.8157 45.4605Z" fill="#765B00"/>
<path d="M47.5247 62.5466C46.6466 62.7242 45.79 62.7242 44.9881 62.7242C44.1227 59.3381 44.3715 58.5806 46.7649 57.8984C47.1749 57.8956 47.269 57.8961 47.3632 57.8967C47.3852 58.0921 47.4072 58.2876 47.2394 58.7074C47.1655 59.6092 47.2813 60.2866 47.3971 60.9641C47.4468 61.4324 47.4964 61.9006 47.5247 62.5466Z" fill="#765B00"/>
<path d="M47.2814 52.0349C46.1375 51.6325 45.0594 51.0738 43.6584 50.3478C44.7658 49.0897 45.8888 47.8139 47.1784 46.5339C47.3459 48.3128 47.3466 50.0958 47.2814 52.0349Z" fill="#765B00"/>
<path d="M61.8843 45.292C62.3237 44.9257 62.9373 44.6119 63.9224 44.2981C66.5118 44.2893 68.7297 44.2806 70.9476 44.272C70.448 44.6548 69.9601 45.3485 69.4468 45.3678C66.9878 45.4601 64.5219 45.3699 61.8843 45.292Z" fill="#765B00"/>
<path d="M70.9332 44.2676C68.7296 44.2807 66.5116 44.2893 64.0989 44.298C65.4555 43.8585 67.0187 43.4555 68.5537 42.9645C69.3553 42.708 70.1074 42.2967 70.9024 41.7806C71.4932 41.7544 72.0635 41.9029 72.6337 42.0514C72.6534 42.2388 72.6731 42.4262 72.6928 42.6137C71.9671 42.9255 71.2414 43.2374 70.5916 43.8334C70.7589 44.1658 70.8504 44.2141 70.9418 44.2625C70.9418 44.2625 70.9189 44.2633 70.9332 44.2676Z" fill="#765B00"/>
<path d="M47.3096 25.6785C46.6671 23.7583 46.0405 21.6502 45.588 19.5054C45.5339 19.2486 46.4267 18.792 47.0537 18.4246C47.2772 20.7739 47.3276 23.1266 47.3096 25.6785Z" fill="#765B00"/>
<path d="M70.2327 40.7996C70.5917 39.9987 68.8059 38.7537 70.705 38.1609C71.8714 38.6933 72.8815 39.2293 74.4273 40.0496C72.7252 40.3618 71.567 40.5743 70.2327 40.7996Z" fill="#765B00"/>
<path d="M33.1765 94.9008C33.9781 94.1678 34.7299 93.5989 35.6875 92.8743C35.827 93.3287 36.0299 93.9896 36.2128 94.8311C33.8924 93.9075 35.661 97.0385 33.7717 96.649C33.6568 96.367 33.3918 95.716 33.1765 94.9008Z" fill="#765B00"/>
<path d="M44.3374 11.3773C44.0938 10.1591 44.0207 8.89881 44.0713 7.541C44.3815 7.44961 44.5679 7.45579 44.893 7.44312C44.8571 8.72795 44.6825 10.0316 44.3374 11.3773Z" fill="#765B00"/>
<path d="M13.4613 38.5945C12.1987 38.5886 10.9362 38.5827 9.45852 38.536C9.39462 38.3243 9.54589 38.1534 9.61296 37.8332C10.6749 37.5109 11.821 37.3381 13.1063 37.005C13.2455 36.8448 13.4616 36.8464 13.4616 36.8464C13.4616 36.8464 13.4623 37.0636 13.4628 37.3364C13.4626 37.9376 13.4619 38.2661 13.4613 38.5945Z" fill="#765B00"/>
<path d="M47.461 81.8288C46.1802 81.9798 44.5552 82.3968 45.2575 80.0081C45.8373 80.0947 46.3876 80.1769 47.1076 80.2614C47.3514 80.7275 47.4256 81.1913 47.461 81.8288Z" fill="#765B00"/>
<path d="M41.3901 7.41387C41.6545 8.43751 41.7957 9.47512 41.9977 10.9592C39.9783 9.8702 40.9491 8.25676 40.6233 6.89893C40.8354 6.95115 41.0512 7.1895 41.3901 7.41387Z" fill="#765B00"/>
<path d="M71.5339 37.7729C71.3599 37.4142 71.3599 37.0979 71.3594 36.6235C72.077 36.5248 72.7954 36.5842 73.5137 36.6437C73.5378 36.8561 73.562 37.0685 73.5861 37.281C72.9601 37.4591 72.3341 37.6372 71.5339 37.7729Z" fill="#765B00"/>
<path d="M47.4249 57.743C47.2691 57.896 47.1749 57.8954 46.9395 57.895C46.9353 57.051 47.0724 56.2068 47.3601 55.3125C47.5026 56.038 47.4946 56.8137 47.4249 57.743Z" fill="#765B00"/>
<path d="M44.6277 96.2128C44.6626 95.5782 44.7352 95.0579 44.8079 94.5376C44.9848 94.5302 45.1618 94.5228 45.3387 94.5154C45.3874 95.1641 45.4362 95.8127 45.4848 96.6321C45.2117 96.6443 44.9385 96.4857 44.6277 96.2128Z" fill="#765B00"/>
<path d="M71.0935 34.6867C70.9619 34.2865 71.0037 33.9166 70.9849 33.4504C71.5062 33.4227 72.088 33.4911 72.6698 33.5594C72.7017 33.7693 72.7335 33.9792 72.7653 34.1891C72.2658 34.365 71.7662 34.541 71.0935 34.6867Z" fill="#765B00"/>
<path d="M47.3299 13.8882C47.1942 13.3715 47.1016 12.6979 47.1213 11.9338C47.2801 12.4727 47.3265 13.1019 47.3299 13.8882Z" fill="#765B00"/>
<path d="M66.9761 35.24C67.2079 35.0969 67.4422 35.1064 67.8516 35.1332C68.0267 35.1505 68.0154 35.2812 67.969 35.3276C67.7583 35.6406 67.5942 35.9073 67.43 36.174C67.2795 35.9136 67.1291 35.6531 66.9761 35.24Z" fill="#765B00"/>
<path d="M70.3272 41.3831C69.9356 41.407 69.4539 41.3312 68.9722 41.2554C69.2291 41.1035 69.486 40.9516 69.906 40.8018C70.1251 40.9637 70.181 41.1235 70.3272 41.3831Z" fill="#765B00"/>
<path d="M47.4487 60.8419C47.2814 60.2866 47.1656 59.6091 47.1735 58.8445C47.3282 58.9191 47.3592 59.0809 47.3239 59.487C47.3092 59.9774 47.3608 60.2234 47.4124 60.4695C47.4417 60.5529 47.4709 60.6363 47.4487 60.8419Z" fill="#765B00"/>
<path d="M47.3674 16.5835C47.2248 16.4267 47.1353 16.1605 47.1365 15.8391C47.2916 16.014 47.356 16.244 47.3674 16.5835Z" fill="#765B00"/>
<path d="M47.5504 66.0863C47.439 65.9505 47.3702 65.6696 47.416 65.3684C47.5513 65.5458 47.5721 65.7435 47.5504 66.0863Z" fill="#765B00"/>
<path d="M36.3928 96.5549C36.5473 96.4537 36.7107 96.4663 37.1191 96.504C37.0434 96.5757 36.7225 96.6222 36.3928 96.5549Z" fill="#765B00"/>
<path d="M47.474 60.3489C47.3608 60.2235 47.3092 59.9775 47.2754 59.6033C47.374 59.7261 47.4548 59.9771 47.474 60.3489Z" fill="#765B00"/>
<path d="M46.5006 6.39685C46.3146 6.54395 46.0547 6.55705 45.6003 6.55907C45.7461 6.45295 46.0864 6.3579 46.5006 6.39685Z" fill="#765B00"/>
<path d="M59.7192 45.4488C59.831 45.3228 60.0787 45.2436 60.3709 45.302C60.2286 45.4583 60.0419 45.477 59.7192 45.4488Z" fill="#765B00"/>
<path d="M24.959 45.5346C24.9716 45.4278 25.1143 45.3755 25.3016 45.3984C25.2605 45.5121 25.1748 45.5506 24.959 45.5346Z" fill="#765B00"/>
<path d="M41.8535 6.60962C41.9357 6.73872 41.8661 6.8412 41.6816 6.96741C41.6445 6.8774 41.6895 6.74135 41.8535 6.60962Z" fill="#765B00"/>
<path d="M70.9373 44.17C70.8503 44.214 70.7589 44.1657 70.5737 43.9937C70.631 43.9392 70.782 44.0084 70.9373 44.17Z" fill="#765B00"/>
<path d="M6.52686 36.9599C6.68225 36.8946 6.77334 36.9769 6.86001 37.184C6.75626 37.2066 6.62524 37.1394 6.52686 36.9599Z" fill="#765B00"/>
<path d="M9.3438 31.0659C9.41405 31.179 9.34863 31.3165 9.18477 31.5167C9.12693 31.4164 9.16754 31.2534 9.3438 31.0659Z" fill="#765B00"/>
<path d="M13.6179 38.613C13.4621 38.2663 13.4628 37.9378 13.4639 37.4452C15.1115 37.2198 16.7353 37.0968 17.1624 39.3651C17.2171 39.6557 18.3877 39.8639 19.0503 39.891C22.5956 40.0358 23.0516 40.5861 22.2403 44.1212C20.0473 40.9407 16.0958 42.9281 13.2124 41.164C13.2047 40.4042 16.4537 40.0147 13.6179 38.613Z" fill="#765B00"/>
<path d="M61.5851 37.7844C61.1857 38.1045 60.747 38.268 60.3083 38.4316C60.2402 38.1839 60.1721 37.9363 60.104 37.6887C60.5846 37.6684 61.0652 37.6481 61.5851 37.7844Z" fill="#765B00"/>
<path d="M13.5092 36.7324C13.4616 36.8465 13.2455 36.8448 13.1375 36.8456C12.816 36.3393 12.6026 35.8322 12.1335 34.718C13.0468 35.226 13.4524 35.4516 13.8808 35.821C13.788 36.1827 13.6724 36.4005 13.5092 36.7324Z" fill="#765B00"/>
<path d="M44.3281 14.9059C44.173 14.7145 44.1721 14.5212 44.1721 14.1828C44.582 14.0543 44.9909 14.0708 45.3998 14.0873C45.094 14.3595 44.7882 14.6318 44.3281 14.9059Z" fill="#765B00"/>
<path d="M64.9214 32.9559C65.3495 32.9411 65.9183 32.9873 66.5118 33.1834C66.045 33.2278 65.5535 33.1224 64.9214 32.9559Z" fill="#765B00"/>
<path d="M43.2888 70.9096C43.0134 70.8553 42.7132 70.6604 42.4121 70.3203C42.6955 70.3731 42.9798 70.571 43.2888 70.9096Z" fill="#765B00"/>
<path d="M47.8466 44.5019C47.6499 44.4511 47.5293 44.3272 47.418 44.1955C47.4152 44.1921 47.5146 44.1024 47.5663 44.053C47.6855 44.1779 47.8048 44.3028 47.8466 44.5019Z" fill="#765B00"/>
<path d="M64.362 37.0154C64.4678 37.1889 64.4671 37.3615 64.4538 37.5332C64.4535 37.538 64.3196 37.5326 64.248 37.5319C64.2499 37.3594 64.2517 37.1868 64.362 37.0154Z" fill="#765B00"/>
<path d="M37.7444 73.3467C38.2688 74.3323 38.6354 75.3326 39.0021 76.3329C38.7262 76.4205 38.4504 76.508 38.1746 76.5956C37.9786 75.5175 37.7826 74.4394 37.7444 73.3467Z" fill="#765B00"/>
<path d="M35.4042 88.4353C35.6533 89.418 35.7361 90.3971 35.8189 91.3762C35.5343 91.3695 35.2498 91.3627 34.9653 91.356C35.0562 90.3812 35.1471 89.4064 35.4042 88.4353Z" fill="#765B00"/>
<path d="M37.8548 86.3018C37.8475 86.7823 37.7522 87.15 37.657 87.5176C37.3942 87.343 37.1313 87.1683 36.8684 86.9936C37.1679 86.7254 37.4675 86.4571 37.8548 86.3018Z" fill="#765B00"/>
<path d="M41.5453 81.383C41.1872 80.9977 40.9663 80.6024 40.7454 80.2071C40.9447 80.1052 41.144 80.0034 41.3433 79.9016C41.4563 80.3921 41.5694 80.8825 41.5453 81.383Z" fill="#765B00"/>
<path d="M42.9293 85.3648C42.8248 84.9723 42.8146 84.6742 42.8044 84.3762C43.0946 84.6397 43.3849 84.9032 43.6751 85.1667C43.4579 85.2642 43.2408 85.3618 42.9293 85.3648Z" fill="#765B00"/>
<path d="M36.0095 79.8247C36.3013 79.5331 36.6147 79.3834 36.928 79.2336C36.9649 79.4266 37.0017 79.6196 37.0385 79.8126C36.7027 79.8639 36.3669 79.9152 36.0095 79.8247Z" fill="#765B00"/>
<path d="M44.3691 93.4952C44.5294 93.2625 44.754 93.1175 44.9786 92.9724C45.0314 93.0627 45.0843 93.1529 45.1372 93.2432C44.9026 93.3564 44.6681 93.4696 44.3691 93.4952Z" fill="#765B00"/>
<path d="M37.0357 69.8923C36.96 69.7557 36.978 69.6012 36.9959 69.4468C37.1032 69.4852 37.2104 69.5237 37.3177 69.5622C37.2549 69.6663 37.1921 69.7704 37.0357 69.8923Z" fill="#765B00"/>
<path d="M44.4 89.7148C44.3759 89.7292 44.4242 89.7005 44.4 89.7148V89.7148Z" fill="#765B00"/>
<path d="M41.2938 83.5669C41.2792 83.5424 41.3083 83.5913 41.2938 83.5669V83.5669Z" fill="#765B00"/>
<path d="M12.2192 32.1494C12.368 32.2732 12.4205 32.3833 12.4731 32.4934C12.3671 32.5251 12.2611 32.5567 12.1552 32.5884C12.1444 32.4375 12.1336 32.2866 12.2192 32.1494Z" fill="#765B00"/>
<path d="M14.654 32.5042C14.6906 32.634 14.6509 32.805 14.5571 32.8432C14.4825 32.8735 14.3418 32.7416 14.2305 32.6817C14.3384 32.6171 14.4463 32.5526 14.654 32.5042Z" fill="#765B00"/>
</svg>
