<svg width="172" height="249" viewBox="0 0 172 249" fill="none" xmlns="http://www.w3.org/2000/svg">
<path d="M164.702 129.69C159.198 140.899 151.506 149.96 141.324 156.864C139.963 157.786 138.48 158.402 136.832 158.762C134.149 159.349 131.958 159.085 130.606 156.353C129.581 154.28 130.135 151.333 132.246 149.403C135.761 146.19 138.885 142.671 141.586 138.743C146.782 131.184 149.214 122.731 150.135 113.703C152.833 87.2718 139.725 68.661 120.189 53.3312C115.908 49.9715 111.579 46.5814 106.733 43.9911C105.825 43.5059 105.045 42.2546 103.851 43.0621C102.897 43.7068 103.272 44.9043 103.271 45.8711C103.261 64.097 103.279 82.3229 103.278 100.549C103.276 130.804 103.227 161.059 103.276 191.314C103.297 204.788 100.4 217.357 92.1959 228.316C82.4784 241.296 69.4289 248.105 53.2553 248.923C47.0053 249.24 41.0229 247.653 34.9183 246.599C24.2839 244.762 17.691 237.716 11.4185 230.109C4.99545 222.32 1.53541 213.298 0.747257 203.137C-1.27854 177.02 16.0816 154.806 42.037 149.848C55.0374 147.364 66.9805 150.137 78.1011 157.05C78.9329 157.567 79.7773 158.064 80.6588 158.597C81.5438 157.411 81.166 156.19 81.1665 155.064C81.1837 107.585 81.1746 60.1057 81.1734 12.6266C81.1733 5.63396 85.2172 0.708311 91.5789 0.146132C95.849 -0.23118 99.1125 1.78752 101.751 4.97662C105.061 8.97632 108.27 13.0502 112.039 16.6601C118.854 23.1884 126.878 28.1273 134.307 33.8474C146.565 43.2873 157.426 53.9558 164.058 68.2226C173.489 88.5103 174.077 108.961 164.702 129.69Z" fill="black"/>
</svg>
