<svg width="114" height="100" viewBox="0 0 114 100" fill="none" xmlns="http://www.w3.org/2000/svg">
<g clip-path="url(#clip0_54752_26186)">
<path d="M101.327 33.987C102.911 31.4107 105.282 30.4888 108.166 30.9418C110.919 31.3741 112.345 33.2942 112.937 35.8492C113.228 37.1043 113.239 38.4243 113.281 40.1576C113.347 42.9968 113.508 45.3933 113.671 47.987C113.642 48.707 113.612 49.2299 113.466 49.7629C113.233 49.8545 113.116 49.936 112.999 50.0175C113.2 50.1002 113.402 50.1829 113.626 50.2288C113.649 50.1921 113.735 50.2031 113.693 50.4334C113.68 53.9392 113.707 57.2147 113.683 60.6358C113.607 60.8816 113.583 60.9817 113.424 61.1069C113.151 61.289 113.012 61.4461 112.872 61.6032C113.106 61.7591 113.339 61.915 113.593 62.2902C113.79 64.0047 113.966 65.4999 114.143 66.9951C114.143 67.3646 114.143 67.734 114.143 68.2882C113.865 68.8334 113.456 69.1534 113.329 69.561C112.472 72.3054 110.674 74.3042 108.223 75.6172C99.9907 80.0262 91.8168 84.5703 83.3892 88.5757C79.9122 90.2282 75.8663 90.7279 72.0413 91.5825C70.4582 91.9362 68.7304 91.6683 68.3318 89.6944C67.9315 87.7121 69.457 86.7823 71.0274 86.5145C83.5032 84.3868 93.3896 76.6176 104.4 71.3072C106.863 70.119 108.286 68.104 108.756 65.1553C109.161 64.7939 109.328 64.602 109.495 64.41C109.249 64.2864 109.003 64.1628 108.756 64.0392C108.709 61.2326 108.662 58.426 108.868 55.3957C109.631 54.821 110.139 54.4701 110.647 54.1191C109.99 53.6494 109.334 53.1797 108.677 52.71C108.555 48.3737 108.477 44.0355 108.284 39.7024C108.23 38.4926 108.455 36.9345 106.382 36.928C105.161 36.9242 104.802 37.4686 104.632 38.7317C103.919 39.1204 103.459 39.3242 103 39.5281C103.515 39.8185 104.031 40.109 104.546 40.3995C104.573 40.7691 104.599 41.1387 104.377 41.6885C102.705 42.1978 101.282 42.5268 99.8577 42.9793C99.8567 43.1848 99.8563 43.2671 99.7391 43.3493C99.6223 43.3493 99.3887 43.3499 99.3887 43.3499C99.6367 40.9942 99.8847 38.6385 100.426 36.1425C101.374 35.9803 102.029 35.9584 102.684 35.9365C102.232 35.2867 101.779 34.6369 101.327 33.987ZM110.036 62.3423C110.695 62.0946 111.354 61.847 112.013 61.5993C110.702 60.5152 109.691 60.0718 110.036 62.3423Z" fill="#765B00"/>
<path d="M113.67 47.7899C113.508 45.3933 113.347 42.9968 113.207 40.3464C113.421 40.2341 113.613 40.3754 113.974 40.4554C114.143 42.7041 114.143 45.014 114.025 47.556C113.907 47.7879 113.67 47.7899 113.67 47.7899Z" fill="#765B00"/>
<path d="M113.683 60.6358C113.735 60.4901 113.944 60.5186 114.044 60.5549C114.143 62.5736 114.143 64.5562 114.143 66.7669C113.966 65.4998 113.79 64.0047 113.606 62.1253C113.586 61.5214 113.572 61.3016 113.559 61.0818C113.583 60.9817 113.607 60.8816 113.683 60.6358Z" fill="#765B00"/>
<path d="M114.143 50.0411C114.143 50.2463 113.941 50.2019 113.838 50.2025C113.735 50.2031 113.649 50.1921 113.653 50.0994C113.632 49.922 113.607 49.8374 113.583 49.7528C113.612 49.2299 113.642 48.707 113.671 47.987C113.67 47.7899 113.907 47.788 114.025 47.7856C114.143 48.4675 114.143 49.1517 114.143 50.0411Z" fill="#765B00"/>
<path d="M60.9607 88.6698C61.0019 90.1842 61.0432 91.6987 60.8809 93.4227C60.5145 93.8328 60.3516 94.0332 60.1887 94.2336C60.4477 94.3495 60.7068 94.4655 60.9658 94.5814C61.0034 95.0682 61.0932 95.5575 61.0697 96.0414C60.9435 98.6425 60.0325 99.7354 58.0554 99.5719C55.8493 99.3893 55.3082 97.9586 55.3303 95.969C55.3914 90.4784 55.4541 84.9761 53.6807 79.3956C53.524 78.6749 53.2377 78.2543 52.9514 77.8336C49.2386 69.5057 41.8736 65.744 33.9709 62.6574C31.0002 61.4972 28.0334 60.3261 25.0454 59.2119C24.2932 58.9314 23.3691 58.5398 22.6962 58.7502C21.6356 59.0818 20.7209 59.8798 19.7444 60.4804C20.3295 61.2535 20.7564 62.3033 21.5304 62.7456C23.5101 63.8767 25.6443 64.7373 27.8471 66.0083C29.1293 69.1397 31.5939 70.0865 34.6111 68.8591C35.4205 69.2348 36.4825 69.4104 36.9775 70.0351C37.6477 70.881 38.5105 72.4653 38.1602 73.0234C37.6123 73.8965 36.1612 74.4076 35.0086 74.6243C34.2353 74.7697 33.2841 74.213 32.468 73.8467C28.137 71.9027 23.8261 69.9141 19.5034 67.9515C14.59 65.7206 12.2351 61.8688 12.1958 56.5191C12.1591 51.5228 12.1121 46.5264 12.0352 41.5306C12.0201 40.5543 12.08 39.4675 11.6778 38.6391C11.318 37.898 10.3686 37.443 9.67937 36.8618C9.18084 37.5786 8.29669 38.2705 8.24878 39.0162C8.00783 42.7667 7.98523 46.5312 7.70687 50.5884C7.61606 51.9927 7.70434 53.0994 7.79262 54.2061C7.79768 57.049 7.82971 59.8921 7.80127 62.7346C7.7622 66.6392 9.0987 69.6919 12.7341 71.6048C16.4949 73.5837 20.27 75.5729 23.8436 77.8625C30.3851 82.0537 37.2371 85.3125 45.0139 86.45C45.9705 86.59 46.7921 87.6526 47.5314 88.4934C47.2211 88.9016 47.0556 89.104 46.8902 89.3063C47.151 89.4256 47.4119 89.545 47.6728 89.6643C47.1962 91.6897 45.6603 91.6866 44.0353 91.6132C37.4735 91.3166 31.7938 88.454 26.1407 85.5069C25.6339 85.2427 25.1413 84.9514 24.5219 84.3517C23.7123 83.7929 23.023 83.5553 22.3337 83.3176C17.4013 80.5747 12.3897 77.963 7.56294 75.0455C4.00851 72.8971 2.27748 69.4064 2.35738 65.2934C2.54029 55.8779 2.83406 46.4623 3.2597 37.0548C3.4302 33.2862 5.84201 31.0161 9.28232 30.7694C12.2617 30.5557 14.9961 32.755 16.0757 35.99C17.8676 41.3589 17.4617 46.8779 17.1164 52.5585C15.831 52.9647 14.8242 53.1941 13.8174 53.4234C13.8646 53.625 13.9118 53.8266 13.9589 54.0281C15.0521 53.9153 16.1453 53.8025 17.2385 53.6897C18.7013 55.2679 19.4237 53.9739 19.946 52.8559C20.2316 52.2444 20.0231 51.4022 20.2539 50.4511C20.7342 50.1003 20.9979 49.9624 21.2617 49.8245C20.8948 49.6146 20.5279 49.4048 20.1611 49.1949C20.3777 48.8297 20.5944 48.4644 21.1023 48.118C21.3154 48.0885 21.2372 48.0403 21.1591 47.9921C20.8406 47.483 20.199 46.9366 20.2527 46.4704C20.9232 40.6522 23.3704 35.852 28.4986 32.6829C29.115 32.302 29.7607 31.9688 30.251 31.6932C28.9629 28.9226 27.7085 26.2246 26.6398 23.3356C27.524 22.4904 28.2223 21.8362 29.0506 21.2935C29.4989 22.7411 29.9028 23.9462 31.7772 23.1707C33.1244 26.7046 35.7899 28.7453 38.7755 30.6699C38.7749 31.2478 38.7747 31.6331 38.55 32.0189C36.9056 32.0195 35.4857 32.0195 33.9718 32.0195C34.0232 34.4602 32.9653 35.4884 30.8793 35.3173C30.6425 34.8811 30.4187 34.596 30.1949 34.3109C30.0894 34.3942 29.984 34.4775 29.8786 34.5607C30.0526 34.8639 30.2267 35.1671 30.3752 35.6283C29.6117 35.9802 28.8739 36.1742 27.8959 36.4312C28.6518 37.1491 29.2696 37.7357 29.7989 38.4656C28.5503 40.3514 27.39 42.0938 26.1055 43.8637C25.9649 44.1999 25.9485 44.5085 25.9342 45.0252C25.7314 47.9793 25.5265 50.7253 25.3255 53.4183C25.9177 53.6489 26.2225 53.7576 26.5194 53.8848C33.2348 56.7625 39.9493 59.6422 46.5954 62.6401C46.4056 62.984 46.2843 63.2094 46.1631 63.4349C46.6458 63.34 47.1285 63.2452 47.7692 63.1917C50.1401 65.4686 52.3529 67.7042 54.4264 70.0399C54.024 70.7391 53.761 71.3383 53.3336 72.3122C54.4724 72.1067 55.1375 71.9868 55.906 71.9859C56.6106 73.3182 57.2117 74.5314 57.7943 75.7073C58 75.6713 58.1234 75.684 58.1488 75.64C58.3914 75.2204 58.6215 74.7935 58.8473 74.3646C61.7452 68.86 65.4265 64.0029 71.2941 61.4888C77.0769 59.0111 83.0046 56.8548 88.9417 54.7648C90.6471 54.1645 91.3186 53.5021 91.0617 51.6805C90.7658 49.5813 90.7477 47.443 90.7534 45.2917C90.7115 44.9565 90.5251 44.6512 90.2356 44.2187C89.8649 43.3748 89.5972 42.6581 89.4987 41.9107C89.8744 41.6011 90.1144 41.3409 90.2816 41.0403C91.0044 39.7404 90.926 37.8635 92.8835 37.4606C93.4028 38.3219 93.922 39.1832 94.2966 40.2381C93.0548 42.0006 94.4979 42.0001 95.3472 42.3665C95.7047 45.2379 96.0627 48.1093 96.4193 50.9809C96.5361 51.9211 96.6493 52.8618 96.8569 54.1336C98.0984 56.0612 98.8509 56.2443 99.9802 55.1723C100.186 55.1722 100.268 55.1722 100.424 55.3162C101.105 55.5283 101.712 55.5964 102.511 55.6646C103.214 55.6647 103.726 55.6649 104.237 55.665C103.928 58.0507 103.619 60.4364 102.977 62.9469C101.596 63.2256 100.131 62.5278 99.6195 64.4668C100.63 64.3259 101.33 64.2283 102.03 64.1307C101.1 65.0791 100.338 66.3927 99.21 66.9143C93.5317 69.5399 87.7578 71.9589 81.7612 74.2939C80.8099 73.3175 80.3093 73.2422 80.1539 74.4899C79.495 73.9197 78.2103 73.214 78.2987 72.8057C78.5319 71.7287 79.1217 70.3463 79.9982 69.8636C82.5652 68.4495 85.3363 67.4039 88.036 66.2335C90.4376 65.1924 92.9303 64.3235 95.2167 63.0745C96.0625 62.6125 96.4347 61.2836 97.0228 60.35C95.9121 59.858 94.5451 58.6773 93.7304 58.9806C85.7126 61.9646 77.1689 63.7872 70.0471 68.8414C64.7583 72.5949 62.9439 78.4243 61.2364 84.551C60.5431 84.8504 60.0963 84.9715 59.6495 85.0926C59.6645 85.2246 59.6795 85.3566 59.6945 85.4886C60.1995 85.5651 60.7046 85.6416 61.2097 85.7181C61.2151 85.9865 61.2206 86.2549 60.9496 86.6255C60.2854 87.0963 59.8976 87.4649 59.5098 87.8336C59.9934 88.1123 60.4771 88.3911 60.9607 88.6698ZM68.8989 67.776C68.6749 67.3872 68.3121 66.6394 68.248 66.6642C67.4647 66.967 66.7252 67.3832 65.9743 67.77C66.0185 67.926 66.0628 68.082 66.1071 68.2379C66.9826 68.179 67.8581 68.12 68.8989 67.776ZM30.8042 57.3805C31.358 57.6109 31.9119 57.8412 32.4658 58.0715C32.5107 57.8409 32.5555 57.6103 32.6004 57.3798C32.0885 57.3179 31.5765 57.2561 30.8042 57.3805ZM94.735 45.45C94.5973 45.201 94.4597 44.952 94.322 44.703C94.2209 44.7963 94.0207 44.9528 94.0337 44.9732C94.1799 45.2024 94.3589 45.4106 94.735 45.45ZM75.1294 63.252C75.1272 63.4426 75.1251 63.6332 75.123 63.8237C75.202 63.8245 75.3498 63.8306 75.3503 63.8252C75.365 63.6356 75.366 63.4449 75.1294 63.252ZM58.7518 89.7983C58.6204 89.6605 58.489 89.5227 58.3575 89.3848C58.3005 89.4393 58.1908 89.5382 58.1939 89.5419C58.3166 89.6872 58.4495 89.824 58.7518 89.7983ZM94.24 43.1626C94.284 43.335 94.3279 43.5074 94.3719 43.6798C94.3951 43.5241 94.4182 43.3683 94.24 43.1626ZM58.3903 87.0587C58.465 87.0045 58.5398 86.9503 58.6145 86.8961C58.511 86.9068 58.4074 86.9175 58.3903 87.0587ZM92.2342 51.5485C92.2081 51.6488 92.1821 51.749 92.156 51.8493C92.2198 51.7849 92.2836 51.7205 92.2342 51.5485Z" fill="#765B00"/>
<path d="M28.9207 21.1821C28.2223 21.8363 27.524 22.4905 26.6518 23.1483C24.0287 14.9815 29.7004 4.09937 40.0644 2.65606C40.6044 3.18198 40.9499 3.50154 41.2955 3.8211C41.5811 3.30505 41.8667 2.789 42.1523 2.27295C44.89 2.67463 47.6276 3.0763 50.4938 3.77082C51.002 4.54633 51.3817 5.029 51.7615 5.51167C52.0459 5.26626 52.3303 5.02086 52.6147 4.77545C53.4319 5.3514 54.2492 5.92735 54.9981 6.7416C54.9733 8.4991 54.9551 10.0564 57.0874 10.4539C57.4468 10.2205 57.7197 9.87525 57.9927 9.53004C59.9873 7.77744 61.9819 6.02483 64.1661 4.41615C64.3669 4.68208 64.3781 4.80409 64.4223 5.10172C65.0892 5.48874 65.7231 5.70013 66.4118 6.01852C66.5652 6.25925 66.6935 6.35154 66.8283 6.5631C66.6752 7.47992 66.5455 8.23603 66.3237 9.12485C65.1106 10.2762 63.9896 11.2949 62.6927 12.313C62.0575 12.4896 61.5981 12.6667 61.1386 12.8439C61.4273 13.1689 61.716 13.494 61.9857 13.9928C61.6432 15.03 61.3196 15.8935 60.8792 16.7034C60.6561 16.518 60.5499 16.3864 60.4252 16.1087C60.2071 15.8072 60.0076 15.6517 59.8082 15.4962C59.6936 15.7494 59.579 16.0026 59.4893 16.4213C59.9719 16.8054 60.4296 17.0241 60.9144 17.4375C61.1113 19.3086 61.2811 20.9848 61.2605 22.6667C60.5879 23.3877 60.1057 24.103 59.6235 24.8182C59.7796 25.0093 59.9357 25.2004 60.0918 25.3915C60.9014 25.2864 61.7109 25.1814 62.6552 25.1666C63.8532 26.3447 64.9165 27.4326 65.8421 28.598C64.4784 30.0782 65.9954 30.2906 66.6584 30.8737C67.0492 30.3929 67.44 29.9122 68.0367 29.4632C72.0228 30.6562 75.6773 30.6236 78.9668 28.1342C81.897 25.9167 83.0884 22.7604 83.6164 19.2167C85.2103 18.4178 84.1909 18.0987 83.3711 17.5501C82.6984 15.7722 82.1263 14.1669 81.5728 12.3594C81.0991 11.7222 80.6068 11.2871 79.9601 10.7918C77.462 9.68 75.1183 8.62835 72.7716 7.41027C72.7672 6.79984 72.7657 6.35584 72.8303 5.88536C72.8519 5.87617 72.8075 5.89346 72.6037 5.9343C72.2185 6.50199 71.9927 7.04612 71.5818 7.66465C70.8673 7.77089 70.3381 7.80272 69.7898 7.66911C69.5539 6.92307 69.3371 6.34247 69.1567 5.8595C68.3311 6.05418 67.591 6.22871 66.8521 6.28041C66.8533 6.15759 66.857 5.91193 66.998 5.84121C67.5362 5.16034 67.9333 4.55018 68.496 3.93905C68.8051 3.50517 68.9487 3.07228 69.0923 2.63939C69.5055 2.5641 69.9187 2.48881 70.5999 2.64648C71.353 2.75465 71.8383 2.62986 72.3236 2.50507C75.7235 2.26186 78.7141 3.39231 81.4587 5.50419C81.6645 6.34355 81.9032 6.91618 82.1419 7.48881C82.2847 7.43411 82.4275 7.37941 82.5703 7.32471C82.6062 6.94812 82.642 6.57154 82.6779 6.19495C83.9501 7.57171 85.2223 8.94846 86.3455 10.5714C85.1773 12.57 85.9065 13.2364 87.7016 13.2406C88.0558 15.0753 88.41 16.91 88.5712 18.9767C87.9355 20.1947 87.4928 21.1807 87.0499 22.2902C87.0495 22.4961 87.0495 22.5784 86.9167 22.6136C86.5628 22.6631 86.3416 22.7597 86.1204 22.8563C86.4284 23.1154 86.7364 23.3744 87.13 23.7547C87.4926 23.9633 87.7695 24.0505 88.0465 24.1378C87.1292 26.0834 86.1471 28.0028 85.3464 29.9952C85.175 30.4218 85.6612 31.1127 85.9447 31.9923C86.4847 33.3044 86.9243 34.306 87.3638 35.3076C88.1305 34.8945 88.8971 34.4814 89.6637 34.0683C90.71 35.0924 91.7563 36.1165 92.8431 37.3007C90.926 37.8636 91.0044 39.7405 90.2816 41.0404C90.1144 41.341 89.8744 41.6012 89.391 41.8521C89.0551 41.5932 88.9961 41.3623 88.9602 40.936C88.5281 40.2883 88.0728 39.836 87.4665 39.3107C84.5625 36.8157 81.5335 35.093 77.6951 35.2716C74.7787 35.4074 71.8573 35.4368 68.941 35.5728C67.2571 35.6514 65.5614 35.7429 63.9025 36.0183C62.0155 36.3315 61.2061 37.4739 61.6941 39.4036C60.2029 39.4363 59.3216 36.8093 57.6393 38.705C58.6024 39.7615 59.4312 40.8265 60.4236 41.7071C61.1384 42.3413 62.0471 43.7333 63.1118 41.8598C63.2939 42.4632 63.0888 43.1668 63.3526 43.512C64.8163 45.427 63.8093 46.6938 62.1464 47.3405C60.1548 48.115 59.5267 46.5017 59.0096 44.9505C57.299 39.8198 51.2125 34.868 45.1438 35.7761C43.9735 35.7492 42.8371 35.8969 41.4912 36.076C37.0795 34.7672 33.4087 36.1605 29.8873 38.3224C29.2696 37.7358 28.6518 37.1492 27.8959 36.4313C28.8739 36.1743 29.6117 35.9803 30.498 35.6277C30.6465 35.469 30.8923 35.4686 30.8923 35.4686C32.9653 35.4885 34.0232 34.4603 33.9718 32.0196C35.4857 32.0196 36.9056 32.0196 38.6694 32.1514C40.1152 32.6159 41.1978 32.9099 41.4603 31.1234C42.9991 31.0451 44.3193 30.9976 45.7511 31.0969C46.8753 31.718 47.57 31.614 47.7241 30.1841C48.5853 29.6735 49.4186 29.3861 50.0321 28.8481C54.1713 25.2183 55.8843 20.7419 54.7728 15.2721C56.5635 15.3047 57.2004 14.6602 56.761 13.0102C55.8467 13.7105 55.1301 14.2594 54.2978 14.6899C52.9575 12.9295 51.733 11.2875 50.46 9.47C50.0884 9.17343 49.7654 9.05236 49.27 8.91393C45.5805 6.97838 41.9547 7.19754 38.2628 8.17578C37.9837 7.37604 37.7233 6.74657 37.4251 6.02558C36.779 6.5124 36.3066 6.86831 35.6235 7.38301C36.7089 7.88233 37.3463 8.17556 37.8697 8.5966C35.739 10.5983 33.7223 12.4721 31.5272 14.2715C31.0476 13.4793 30.7463 12.7615 30.445 12.0437C30.2637 12.0708 30.0823 12.0979 29.901 12.125C29.901 12.9154 29.901 13.7057 29.901 14.496C30.5071 14.4584 31.1132 14.4209 31.819 14.5965C31.6505 16.0976 31.3823 17.3854 30.913 18.6838C30.4434 18.7028 30.1751 18.7114 29.8104 18.6021C28.2448 18.4962 28.1176 19.131 28.9188 20.3611C28.9193 20.7442 28.92 20.9631 28.9207 21.1821ZM54.6508 32.4835C56.921 34.4466 58.5469 32.4159 60.6594 31.6607C59.5666 30.4782 58.6626 29.4999 57.5402 28.2855C56.3974 29.7218 55.4146 30.9569 54.6508 32.4835ZM85.402 26.4457C85.1299 26.0623 84.8578 25.679 84.1569 24.6915C84.2529 25.8891 84.2078 26.3528 84.367 26.7303C84.4195 26.8547 85 26.7565 85.402 26.4457ZM65.1076 32.8567C64.6384 32.8062 64.1692 32.7557 63.7 32.7053C63.7105 32.9317 63.7211 33.1581 63.7317 33.3845C64.189 33.3155 64.6462 33.2465 65.1076 32.8567ZM68.6567 32.6188C68.5312 32.3249 68.4057 32.031 68.2802 31.7371C68.0378 31.9768 67.7955 32.2164 67.5531 32.456C67.8451 32.5853 68.1371 32.7145 68.6567 32.6188ZM84.8357 23.2119C84.5227 23.3709 84.2097 23.53 83.8967 23.689C84.0244 23.8571 84.152 24.0251 84.2797 24.1931C84.5648 23.8906 84.85 23.5881 84.8357 23.2119ZM44.5483 4.38975C44.3053 4.41641 44.0624 4.44307 43.8194 4.46973C43.8753 4.68681 43.9313 4.90389 43.9873 5.12097C44.1949 4.97412 44.4025 4.82726 44.5483 4.38975ZM53.4775 10.5963C53.2694 10.4492 53.0613 10.302 52.8533 10.1548C52.7974 10.3729 52.7416 10.5909 52.6857 10.809C52.9294 10.8349 53.173 10.8608 53.4775 10.5963ZM58.3347 19.4856C58.4724 19.3543 58.6101 19.223 58.7479 19.0916C58.6934 19.0346 58.5947 18.9251 58.5909 18.9282C58.4457 19.0508 58.3091 19.1836 58.3347 19.4856ZM76.0148 4.33512C75.824 4.33312 75.6331 4.32934 75.443 4.33906C75.4381 4.33931 75.4355 4.5562 75.4407 4.5566C75.6304 4.57117 75.8213 4.57204 76.0148 4.33512ZM78.4761 33.4004C78.2857 33.3983 78.0954 33.3961 77.9051 33.3939C77.9043 33.4729 77.8982 33.6205 77.9035 33.621C78.0929 33.6357 78.2834 33.6367 78.4761 33.4004ZM48.584 4.17732C48.5134 4.06024 48.4427 3.94315 48.3721 3.82606C48.3067 3.94686 48.1618 4.1019 48.1955 4.17997C48.2399 4.28298 48.4244 4.32559 48.584 4.17732ZM32.4792 9.62134C32.2917 9.55935 32.1065 9.48729 31.9147 9.44403C31.8771 9.43554 31.8144 9.53851 31.7633 9.59007C31.9507 9.65193 32.1382 9.7138 32.4792 9.62134ZM87.6259 17.1173C87.5995 17.0372 87.5731 16.9572 87.5467 16.8772C87.5209 16.9576 87.4951 17.0381 87.6259 17.1173ZM60.0886 26.515C60.1431 26.5903 60.1975 26.6656 60.252 26.7408C60.2413 26.6366 60.2306 26.5324 60.0886 26.515ZM83.8359 28.75C83.8624 28.648 83.8889 28.5461 83.9154 28.4441C83.8505 28.5097 83.7856 28.5752 83.8359 28.75ZM39.6746 5.54188C39.7011 5.62222 39.7276 5.70256 39.7541 5.7829C39.78 5.70216 39.8059 5.62142 39.6746 5.54188Z" fill="#765B00"/>
<path d="M100.351 55.1723C100.268 55.1723 100.186 55.1723 99.8345 55.1645C99.4685 55.1499 99.3715 55.1431 99.2745 55.1363C99.2594 54.7709 99.2443 54.4055 99.4372 53.8569C99.88 53.5166 100.115 53.3594 100.504 53.2691C101.129 53.4103 101.601 53.4847 102.073 53.5591C102.103 53.2755 102.133 52.992 102.163 52.7084C101.558 52.7084 100.953 52.7084 100.188 52.7083C99.8136 52.7085 99.5996 52.7087 99.3857 52.709C99.341 50.7225 99.2963 48.7361 99.4723 46.5021C99.5894 45.779 99.4859 45.3033 99.3824 44.8275C99.3488 44.4554 99.3152 44.0833 99.3351 43.5306C99.3888 43.35 99.6224 43.3493 99.8198 43.3053C100.048 43.2085 100.116 43.1278 100.102 43.1081C100.033 43.0149 99.9415 42.9384 99.8583 42.8559C101.282 42.5269 102.705 42.1978 104.32 41.8665C104.457 46.322 104.404 50.7798 104.294 55.4514C103.726 55.665 103.214 55.6649 102.423 55.5393C101.546 55.3334 100.948 55.2528 100.351 55.1723Z" fill="#765B00"/>
<path d="M103.141 25.4109C101.682 25.2456 99.6809 26.2743 99.4879 24.2585C99.3064 22.3631 101.21 22.3054 102.699 22.0776C104.469 21.807 106.197 21.1711 107.969 21.0485C108.891 20.9847 109.867 21.6838 110.819 22.0383C110.113 22.8881 109.563 24.1738 108.668 24.4933C107.002 25.0879 105.135 25.1197 103.141 25.4109Z" fill="#765B00"/>
<path d="M6.31048 24.2207C5.72729 23.3706 5.333 22.584 4.93872 21.7973C5.76607 21.4456 6.63511 20.7243 7.4129 20.812C9.67741 21.0674 11.942 21.5228 14.1272 22.1682C14.8575 22.3839 15.3484 23.4099 15.9488 24.0654C15.2253 24.4689 14.4779 25.2512 13.7827 25.2073C11.3452 25.0533 8.92572 24.6147 6.31048 24.2207Z" fill="#765B00"/>
<path d="M99.2741 16.7867C101.709 15.4553 103.958 14.1412 106.335 13.1248C106.994 12.8434 108.03 13.4466 108.893 13.644C108.543 14.5153 108.438 15.8093 107.798 16.1805C105.702 17.3952 103.453 18.381 101.184 19.2471C99.4884 19.8944 98.7011 18.9102 99.2741 16.7867Z" fill="#765B00"/>
<path d="M9.93351 16.9926C9.12431 16.5557 8.33095 16.343 7.86033 15.8326C7.39977 15.3332 6.86278 14.1691 7.07315 13.9331C7.57176 13.3739 8.694 12.7196 9.20966 12.9386C11.5335 13.9254 13.7731 15.1373 15.9459 16.4311C16.3811 16.6902 16.7526 17.94 16.5192 18.2408C16.1225 18.752 15.1026 19.2543 14.5556 19.0837C13.01 18.6018 11.5714 17.7765 9.93351 16.9926Z" fill="#765B00"/>
<path d="M34.4902 68.7231C31.5939 70.0866 29.1294 69.1398 27.9673 66.1318C30.0944 66.831 32.2319 67.709 34.4902 68.7231Z" fill="#765B00"/>
<path d="M89.5911 33.9327C88.897 34.4813 88.1304 34.8944 87.3638 35.3075C86.9242 34.3059 86.4846 33.3043 86.0632 32.1387C87.2272 32.5822 88.3729 33.1897 89.5911 33.9327Z" fill="#765B00"/>
<path d="M68.3303 3.94004C67.9332 4.55019 67.5361 5.16035 66.8729 5.84075C66.5236 5.91118 66.4402 5.91135 66.3569 5.91153C65.723 5.70014 65.0891 5.48875 64.5986 5.08273C65.7757 4.22709 66.8093 3.56607 67.8429 2.90505C68.0838 2.81054 68.3247 2.71602 68.6897 2.80539C68.6526 3.30619 68.4915 3.62312 68.3303 3.94004Z" fill="#765B00"/>
<path d="M57.0009 10.342C54.9549 10.0564 54.9732 8.49908 55.0781 6.89038C55.7997 7.36056 56.3727 7.92023 56.9802 8.82287C57.01 9.55789 57.0055 9.94994 57.0009 10.342Z" fill="#765B00"/>
<path d="M101.192 34.0786C101.779 34.6368 102.232 35.2866 102.684 35.9364C102.029 35.9584 101.374 35.9803 100.539 35.9813C100.592 35.3637 100.825 34.7669 101.192 34.0786Z" fill="#765B00"/>
<path d="M108.615 52.9087C109.334 53.1796 109.991 53.6493 110.647 54.1191C110.139 54.47 109.631 54.8209 108.931 55.1722C108.678 54.4842 108.616 53.7958 108.615 52.9087Z" fill="#765B00"/>
<path d="M87.6935 13.0756C85.9063 13.2363 85.1772 12.5699 86.3904 10.7478C86.9515 11.4223 87.3186 12.1665 87.6935 13.0756Z" fill="#765B00"/>
<path d="M87.05 22.1667C87.4927 21.1807 87.9354 20.1947 88.5358 19.1892C88.6703 20.0618 88.647 20.9539 88.3762 22.0074C87.7691 22.1681 87.4096 22.1674 87.05 22.1667Z" fill="#765B00"/>
<path d="M67.6611 2.89062C66.8095 3.56613 65.7758 4.22715 64.5658 4.90717C64.3782 4.80416 64.367 4.68215 64.3384 4.37712C65.3737 3.75478 66.4264 3.31546 67.6611 2.89062Z" fill="#765B00"/>
<path d="M102.107 64.1689C101.33 64.2283 100.63 64.3259 99.6194 64.4668C100.131 62.5278 101.596 63.2256 102.865 63.0862C103.073 63.1878 103.06 63.275 102.83 63.5115C102.515 63.8099 102.418 63.9589 102.321 64.1079C102.321 64.1079 102.183 64.2071 102.107 64.1689Z" fill="#765B00"/>
<path d="M17.2999 53.5398C16.1453 53.8026 15.0521 53.9154 13.9589 54.0282C13.9117 53.8267 13.8646 53.6251 13.8174 53.4235C14.8242 53.1942 15.831 52.9648 17.0414 52.749C17.2837 52.9716 17.3225 53.1807 17.2999 53.5398Z" fill="#765B00"/>
<path d="M99.1116 55.1128C99.3716 55.1431 99.4686 55.1499 99.7112 55.1647C98.851 56.2444 98.0985 56.0613 96.9409 54.2859C97.6043 54.4342 98.2764 54.7617 99.1116 55.1128Z" fill="#765B00"/>
<path d="M52.5214 4.64122C52.3303 5.02086 52.0459 5.26627 51.7615 5.51167C51.3818 5.029 51.002 4.54633 50.6382 3.8689C51.2454 3.95175 51.8368 4.22937 52.5214 4.64122Z" fill="#765B00"/>
<path d="M7.86175 54.0282C7.70428 53.0995 7.616 51.9928 7.64088 50.8098C7.81301 51.7724 7.87198 52.8113 7.86175 54.0282Z" fill="#765B00"/>
<path d="M61.0407 88.4883C60.4771 88.3912 59.9934 88.1124 59.5098 87.8337C59.8976 87.465 60.2854 87.0964 60.868 86.7354C61.0821 87.2641 61.1013 87.7854 61.0407 88.4883Z" fill="#765B00"/>
<path d="M41.9612 2.22803C41.8667 2.78887 41.5811 3.30492 41.2955 3.82097C40.9499 3.50141 40.6043 3.18185 40.2544 2.68203C40.7567 2.3956 41.2634 2.28942 41.9612 2.22803Z" fill="#765B00"/>
<path d="M95.3439 42.207C94.4979 42.0002 93.0547 42.0007 94.306 40.4099C94.7537 40.9412 95.0472 41.4943 95.3439 42.207Z" fill="#765B00"/>
<path d="M104.617 40.2228C104.031 40.1089 103.516 39.8185 103 39.528C103.46 39.3242 103.919 39.1203 104.553 38.916C104.715 39.2924 104.701 39.6693 104.617 40.2228Z" fill="#765B00"/>
<path d="M87.0499 22.2903C87.4097 22.1675 87.7692 22.1681 88.3085 22.1688C88.408 22.7305 88.3277 23.2923 88.1469 23.996C87.7696 24.0506 87.4926 23.9633 87.1317 23.5928C87.0482 23.0933 87.0488 22.8771 87.0494 22.6608C87.0495 22.5785 87.0496 22.4961 87.0499 22.2903Z" fill="#765B00"/>
<path d="M82.6187 6.0805C82.6421 6.57156 82.6062 6.94815 82.5704 7.32473C82.4276 7.37943 82.2848 7.43413 82.142 7.48883C81.9033 6.9162 81.6646 6.34357 81.5737 5.6272C82.0008 5.64431 82.2801 5.80517 82.6187 6.0805Z" fill="#765B00"/>
<path d="M61.2718 85.5602C60.7045 85.6418 60.1995 85.5653 59.6944 85.4888C59.6794 85.3568 59.6644 85.2247 59.6494 85.0927C60.0962 84.9716 60.543 84.8506 61.16 84.7288C61.3314 84.9527 61.3327 85.1774 61.2718 85.5602Z" fill="#765B00"/>
<path d="M80.2612 74.5721C80.3092 73.2424 80.8098 73.3177 81.5759 74.2823C81.2209 74.5028 80.7947 74.5785 80.2612 74.5721Z" fill="#765B00"/>
<path d="M57.0874 10.4538C57.0056 9.94991 57.0101 9.55786 57.025 8.96997C57.2617 8.97905 57.4881 9.18396 57.8536 9.45943C57.7197 9.8752 57.4467 10.2204 57.0874 10.4538Z" fill="#765B00"/>
<path d="M22.4392 83.4543C23.0229 83.5553 23.7122 83.793 24.4096 84.2315C23.7934 84.152 23.1691 83.8715 22.4392 83.4543Z" fill="#765B00"/>
<path d="M47.7615 89.5832C47.4119 89.5451 47.151 89.4258 46.8901 89.3065C47.0556 89.1041 47.2211 88.9018 47.5371 88.6777C47.7419 88.938 47.7961 89.22 47.7615 89.5832Z" fill="#765B00"/>
<path d="M52.9556 77.9978C53.2377 78.2543 53.524 78.6749 53.6854 79.2012C53.3602 78.9252 53.16 78.5436 52.9556 77.9978Z" fill="#765B00"/>
<path d="M72.2048 2.4396C71.8384 2.62981 71.3531 2.7546 70.8098 2.67969C71.1965 2.44472 71.6412 2.40945 72.2048 2.4396Z" fill="#765B00"/>
<path d="M99.3297 45.0081C99.486 45.3032 99.5895 45.7789 99.5303 46.2801C99.3373 45.9332 99.3071 45.5609 99.3297 45.0081Z" fill="#765B00"/>
<path d="M20.1034 49.321C20.5279 49.4049 20.8948 49.6147 21.2617 49.8246C20.9979 49.9625 20.7342 50.1004 20.297 50.2431C20.0976 49.9809 20.0717 49.714 20.1034 49.321Z" fill="#765B00"/>
<path d="M61.036 94.4226C60.7068 94.4654 60.4478 94.3495 60.1887 94.2335C60.3516 94.0331 60.5145 93.8328 60.827 93.614C61.0197 93.8183 61.0629 94.041 61.036 94.4226Z" fill="#765B00"/>
<path d="M108.708 64.1987C109.003 64.1628 109.249 64.2864 109.496 64.41C109.328 64.602 109.161 64.794 108.847 65.0012C108.687 64.797 108.673 64.5775 108.708 64.1987Z" fill="#765B00"/>
<path d="M68.4959 3.939C68.4915 3.62306 68.6527 3.30614 68.888 2.8247C68.9621 2.66019 69.0277 2.65021 69.06 2.64478C68.9486 3.07223 68.8051 3.50512 68.4959 3.939Z" fill="#765B00"/>
<path d="M100.35 53.2022C100.115 53.3594 99.8802 53.5166 99.4972 53.6841C99.3272 53.4731 99.3053 53.2519 99.3347 52.8698C99.5998 52.7087 99.8138 52.7085 100.189 52.8317C100.35 53.0376 100.35 53.1199 100.35 53.2022Z" fill="#765B00"/>
<path d="M102.48 64.11C102.418 63.959 102.515 63.81 102.735 63.603C102.784 63.7341 102.711 63.9231 102.48 64.11Z" fill="#765B00"/>
<path d="M21.1746 48.0176C21.2373 48.0405 21.3155 48.0887 21.2775 48.1158C21.1613 48.0947 21.1899 48.0429 21.1746 48.0176Z" fill="#765B00"/>
<path d="M109.93 62.2029C109.691 60.0717 110.702 60.5152 112.013 61.5992C111.354 61.8469 110.695 62.0946 109.93 62.2029Z" fill="#765B00"/>
<path d="M113.424 61.1069C113.572 61.3017 113.586 61.5214 113.586 61.9061C113.339 61.915 113.106 61.7591 112.873 61.6033C113.012 61.4462 113.151 61.2891 113.424 61.1069Z" fill="#765B00"/>
<path d="M113.466 49.7629C113.607 49.8374 113.632 49.922 113.63 50.1361C113.402 50.1829 113.201 50.1002 112.999 50.0175C113.116 49.936 113.233 49.8545 113.466 49.7629Z" fill="#765B00"/>
<path d="M109.44 44.5958C109.425 44.5701 109.455 44.6215 109.44 44.5958V44.5958Z" fill="#765B00"/>
<path d="M99.8579 42.9793C99.9417 42.9384 100.033 43.0149 100.102 43.1081C100.116 43.1278 100.048 43.2086 99.9368 43.3053C99.8565 43.2671 99.8569 43.1849 99.8579 42.9793Z" fill="#765B00"/>
<path d="M30.9129 18.6838C31.2954 19.9897 31.4767 21.3061 31.6712 22.8294C29.9027 23.9464 29.4988 22.7413 29.0505 21.2936C28.9199 20.9632 28.9192 20.7443 29.0879 20.334C29.4737 19.6683 29.6902 19.1942 29.9066 18.72C30.175 18.7114 30.4433 18.7029 30.9129 18.6838Z" fill="#765B00"/>
<path d="M68.8161 67.9185C67.858 68.12 66.9825 68.179 66.1069 68.2379C66.0627 68.0819 66.0184 67.926 65.9741 67.77C66.725 67.3832 67.4645 66.967 68.2479 66.6642C68.312 66.6394 68.6748 67.3872 68.8161 67.9185Z" fill="#765B00"/>
<path d="M38.7755 30.67C39.4877 30.6489 40.1994 30.8205 41.0764 31.0731C41.1977 32.9099 40.1152 32.6158 38.8938 32.1509C38.7746 31.6332 38.7748 31.2479 38.7755 30.67Z" fill="#765B00"/>
<path d="M54.4263 70.04C54.9457 70.475 55.3256 71.0102 55.754 71.7061C55.1374 71.9869 54.4724 72.1069 53.3335 72.3123C53.7609 71.3384 54.0239 70.7393 54.4263 70.04Z" fill="#765B00"/>
<path d="M30.9343 57.2875C31.5765 57.2561 32.0884 57.318 32.6004 57.3798C32.5555 57.6104 32.5106 57.841 32.4657 58.0716C31.9119 57.8413 31.358 57.6109 30.9343 57.2875Z" fill="#765B00"/>
<path d="M100.424 55.3163C100.948 55.2529 101.546 55.3334 102.232 55.5394C101.712 55.5966 101.105 55.5285 100.424 55.3163Z" fill="#765B00"/>
<path d="M46.5954 62.6401C46.9243 62.6489 47.1846 62.7762 47.5281 63.0269C47.1285 63.2453 46.6458 63.3401 46.1631 63.435C46.2843 63.2095 46.4055 62.9841 46.5954 62.6401Z" fill="#765B00"/>
<path d="M94.6321 45.5373C94.359 45.4107 94.18 45.2025 94.0338 44.9734C94.0207 44.9529 94.2209 44.7964 94.3221 44.7031C94.4597 44.9521 94.5974 45.2011 94.6321 45.5373Z" fill="#765B00"/>
<path d="M30.8794 35.3175C30.8924 35.4686 30.6466 35.469 30.5237 35.4697C30.2268 35.1673 30.0527 34.8641 29.8787 34.5609C29.9841 34.4776 30.0895 34.3943 30.1949 34.311C30.4188 34.5961 30.6426 34.8812 30.8794 35.3175Z" fill="#765B00"/>
<path d="M75.2492 63.2532C75.366 63.4449 75.3651 63.6356 75.3503 63.8253C75.3499 63.8306 75.2021 63.8245 75.123 63.8237C75.1252 63.6332 75.1273 63.4426 75.2492 63.2532Z" fill="#765B00"/>
<path d="M58.6664 89.8803C58.4495 89.8241 58.3166 89.6874 58.1939 89.542C58.1908 89.5383 58.3004 89.4395 58.3575 89.385C58.4889 89.5228 58.6204 89.6607 58.6664 89.8803Z" fill="#765B00"/>
<path d="M90.7534 45.2919C90.5148 45.112 90.4206 44.9022 90.3325 44.5193C90.525 44.6514 90.7114 44.9567 90.7534 45.2919Z" fill="#765B00"/>
<path d="M26.1054 43.8638C26.1977 44.103 26.1659 44.3697 26.033 44.7268C25.9484 44.5085 25.9648 44.1999 26.1054 43.8638Z" fill="#765B00"/>
<path d="M94.3406 43.1875C94.4182 43.3682 94.395 43.524 94.3718 43.6798C94.3279 43.5074 94.2839 43.335 94.3406 43.1875Z" fill="#765B00"/>
<path d="M58.3472 86.9936C58.4075 86.9176 58.5111 86.9069 58.6146 86.8962C58.5399 86.9504 58.4651 87.0046 58.3472 86.9936Z" fill="#765B00"/>
<path d="M92.2907 51.6023C92.2835 51.7205 92.2198 51.7849 92.156 51.8493C92.1821 51.749 92.2081 51.6487 92.2907 51.6023Z" fill="#765B00"/>
<path d="M37.5276 85.9376C37.5023 85.9523 37.5528 85.9229 37.5276 85.9376V85.9376Z" fill="#765B00"/>
<path d="M92.2067 53.9179C92.1809 53.9329 92.2324 53.9029 92.2067 53.9179V53.9179Z" fill="#765B00"/>
<path d="M83.8616 58.3979C83.836 58.4129 83.8873 58.3829 83.8616 58.3979V58.3979Z" fill="#765B00"/>
<path d="M82.8773 58.8895C82.8517 58.9044 82.9029 58.8747 82.8773 58.8895V58.8895Z" fill="#765B00"/>
<path d="M31.6455 59.8758C31.6193 59.8912 31.6717 59.8604 31.6455 59.8758V59.8758Z" fill="#765B00"/>
<path d="M81.3694 59.8289C81.3431 59.8443 81.3956 59.8135 81.3694 59.8289V59.8289Z" fill="#765B00"/>
<path d="M80.9144 61.3149C80.8997 61.2896 80.929 61.3403 80.9144 61.3149V61.3149Z" fill="#765B00"/>
<path d="M54.5413 32.3377C55.4146 30.9568 56.3974 29.7217 57.5402 28.2854C58.6626 29.4999 59.5666 30.4781 60.6595 31.6606C58.5469 32.4158 56.921 34.4465 54.5413 32.3377Z" fill="#765B00"/>
<path d="M61.694 39.4036C62.2302 40.0893 62.5875 40.7706 62.9429 41.6232C62.047 43.7333 61.1383 42.3413 60.4235 41.7071C59.4311 40.8265 58.6023 39.7615 57.6392 38.705C59.3215 36.8094 60.2028 39.4363 61.694 39.4036Z" fill="#765B00"/>
<path d="M69.7896 7.66899C68.7931 8.19722 67.7776 8.56001 66.5888 8.95741C66.5453 8.23591 66.6751 7.4798 66.8285 6.56377C66.8522 6.40386 66.8508 6.40312 66.8508 6.40312C67.5909 6.22859 68.331 6.05406 69.1566 5.85938C69.3369 6.34235 69.5538 6.92295 69.7896 7.66899Z" fill="#765B00"/>
<path d="M61.2605 22.6667C61.7927 23.3556 62.1344 24.0502 62.4983 24.9106C61.711 25.1814 60.9014 25.2865 60.0918 25.3916C59.9357 25.2005 59.7796 25.0094 59.6235 24.8183C60.1057 24.103 60.5879 23.3878 61.2605 22.6667Z" fill="#765B00"/>
<path d="M65.842 28.5979C66.5357 28.7437 67.0918 28.9669 67.7392 29.3108C67.4399 29.9122 67.0491 30.3929 66.6583 30.8736C65.9953 30.2906 64.4783 30.0782 65.842 28.5979Z" fill="#765B00"/>
<path d="M31.5273 14.2716C31.7057 14.346 31.6856 14.3714 31.7025 14.3774C31.1133 14.4209 30.5072 14.4585 29.9011 14.496C29.9011 13.7057 29.9011 12.9154 29.9011 12.1251C30.0824 12.0979 30.2638 12.0708 30.4451 12.0437C30.7464 12.7615 31.0477 13.4793 31.5273 14.2716Z" fill="#765B00"/>
<path d="M45.1437 35.7761C44.0933 36.0381 43.0088 36.1256 41.8125 36.1289C42.837 35.897 43.9733 35.7492 45.1437 35.7761Z" fill="#765B00"/>
<path d="M38.2628 8.17583C38.2815 8.34611 38.1697 8.49737 38.0767 8.48311C37.3463 8.17562 36.7089 7.88238 35.6235 7.38307C36.3066 6.86837 36.779 6.51245 37.4251 6.02563C37.7233 6.74663 37.9837 7.3761 38.2628 8.17583Z" fill="#765B00"/>
<path d="M54.7728 15.2719C54.5248 15.2049 54.4685 15.1378 54.4128 14.9395C55.13 14.2593 55.8466 13.7104 56.7609 13.01C57.2003 14.66 56.5634 15.3045 54.7728 15.2719Z" fill="#765B00"/>
<path d="M29.8105 18.6021C29.6904 19.194 29.4739 19.6682 29.0883 20.1696C28.1177 19.131 28.2449 18.4961 29.8105 18.6021Z" fill="#765B00"/>
<path d="M85.3705 26.6027C84.9999 26.7564 84.4194 26.8546 84.3669 26.7302C84.2077 26.3526 84.2528 25.8889 84.1567 24.6914C84.8577 25.6789 85.1298 26.0622 85.3705 26.6027Z" fill="#765B00"/>
<path d="M62.6928 12.313C62.6626 12.7597 62.4566 13.2059 62.1276 13.7356C61.716 13.494 61.4273 13.1689 61.1387 12.8439C61.5981 12.6667 62.0575 12.4896 62.6928 12.313Z" fill="#765B00"/>
<path d="M65.1056 33.0171C64.6462 33.2466 64.189 33.3156 63.7317 33.3846C63.7211 33.1582 63.7105 32.9317 63.7 32.7053C64.1692 32.7558 64.6384 32.8063 65.1056 33.0171Z" fill="#765B00"/>
<path d="M83.6164 19.2168C83.4412 18.8487 83.4029 18.4707 83.4181 17.9077C84.1909 18.0988 85.2102 18.4178 83.6164 19.2168Z" fill="#765B00"/>
<path d="M72.7715 7.4103C72.5491 7.61728 72.3237 7.65783 71.9326 7.64433C71.9926 7.04615 72.2183 6.50202 72.6038 5.93464C72.7635 5.91139 72.7641 5.91187 72.7641 5.91187C72.7656 6.35587 72.7671 6.79987 72.7715 7.4103Z" fill="#765B00"/>
<path d="M45.751 31.0968C46.1747 30.743 46.71 30.5361 47.4199 30.3103C47.5699 31.6139 46.8752 31.7179 45.751 31.0968Z" fill="#765B00"/>
<path d="M68.5428 32.7312C68.137 32.7144 67.845 32.5852 67.553 32.4559C67.7954 32.2163 68.0377 31.9767 68.2801 31.7371C68.4056 32.0309 68.5311 32.3248 68.5428 32.7312Z" fill="#765B00"/>
<path d="M84.9854 23.2488C84.85 23.5882 84.5648 23.8907 84.2797 24.1932C84.152 24.0251 84.0244 23.8571 83.8967 23.6891C84.2097 23.53 84.5227 23.371 84.9854 23.2488Z" fill="#765B00"/>
<path d="M88.9602 40.936C88.5341 40.6467 88.1312 40.1621 87.6729 39.5305C88.0727 39.836 88.528 40.2883 88.9602 40.936Z" fill="#765B00"/>
<path d="M44.5792 4.53496C44.4025 4.82715 44.1949 4.974 43.9873 5.12085C43.9313 4.90377 43.8753 4.68669 43.8193 4.46961C44.0623 4.44295 44.3053 4.41629 44.5792 4.53496Z" fill="#765B00"/>
<path d="M53.4472 10.7415C53.1731 10.8607 52.9295 10.8348 52.6858 10.809C52.7416 10.5909 52.7975 10.3728 52.8533 10.1548C53.0614 10.302 53.2695 10.4491 53.4472 10.7415Z" fill="#765B00"/>
<path d="M81.5728 12.3594C81.1064 12.0943 80.6586 11.6271 80.1626 11.0059C80.6067 11.287 81.099 11.7221 81.5728 12.3594Z" fill="#765B00"/>
<path d="M86.9167 22.6135C87.0488 22.8769 87.0482 23.0931 87.046 23.4713C86.7364 23.3743 86.4284 23.1152 86.1204 22.8562C86.3416 22.7596 86.5628 22.663 86.9167 22.6135Z" fill="#765B00"/>
<path d="M60.8792 16.7033C61.0057 16.8442 61.0154 16.9313 60.9562 17.1306C60.4297 17.024 59.972 16.8054 59.6526 16.4213C60.0085 16.2555 60.2262 16.2551 60.4438 16.2546C60.55 16.3863 60.6561 16.518 60.8792 16.7033Z" fill="#765B00"/>
<path d="M60.4253 16.1086C60.2262 16.255 60.0086 16.2554 59.6277 16.2558C59.579 16.0025 59.6936 15.7493 59.8082 15.4961C60.0077 15.6516 60.2072 15.8071 60.4253 16.1086Z" fill="#765B00"/>
<path d="M58.2529 19.4004C58.309 19.1836 58.4456 19.0508 58.5909 18.9283C58.5946 18.9252 58.6934 19.0347 58.7478 19.0917C58.6101 19.223 58.4723 19.3544 58.2529 19.4004Z" fill="#765B00"/>
<path d="M76.0133 4.45497C75.8212 4.57205 75.6304 4.57118 75.4406 4.55661C75.4354 4.55621 75.438 4.33932 75.4429 4.33907C75.6331 4.32935 75.8239 4.33313 76.0133 4.45497Z" fill="#765B00"/>
<path d="M78.475 33.5199C78.2835 33.6366 78.093 33.6356 77.9035 33.6208C77.8982 33.6204 77.9043 33.4728 77.9051 33.3938C78.0954 33.396 78.2858 33.3981 78.475 33.5199Z" fill="#765B00"/>
<path d="M48.5663 4.28561C48.4243 4.32545 48.2399 4.28284 48.1954 4.17983C48.1618 4.10177 48.3067 3.94672 48.3721 3.82593C48.4427 3.94301 48.5133 4.0601 48.5663 4.28561Z" fill="#765B00"/>
<path d="M32.4023 9.69858C32.1381 9.71387 31.9506 9.65201 31.7632 9.59014C31.8143 9.53858 31.8771 9.43561 31.9147 9.4441C32.1064 9.48736 32.2916 9.55943 32.4023 9.69858Z" fill="#765B00"/>
<path d="M87.5476 17.1179C87.4951 17.0381 87.5209 16.9577 87.5467 16.8772C87.5731 16.9572 87.5995 17.0373 87.5476 17.1179Z" fill="#765B00"/>
<path d="M60.1543 26.4714C60.2306 26.5322 60.2414 26.6365 60.2521 26.7407C60.1976 26.6654 60.1431 26.5901 60.1543 26.4714Z" fill="#765B00"/>
<path d="M83.7783 28.6953C83.7856 28.5752 83.8505 28.5096 83.9155 28.4441C83.889 28.546 83.8624 28.648 83.7783 28.6953Z" fill="#765B00"/>
<path d="M50.4601 9.46995C50.2163 9.49739 49.9241 9.34933 49.5371 9.06626C49.7655 9.05231 50.0885 9.17337 50.4601 9.46995Z" fill="#765B00"/>
<path d="M39.7532 5.54126C39.8059 5.6214 39.7801 5.70214 39.7542 5.78289C39.7277 5.70255 39.7012 5.6222 39.7532 5.54126Z" fill="#765B00"/>
<path d="M59.2015 25.3458C59.175 25.3614 59.2279 25.3302 59.2015 25.3458V25.3458Z" fill="#765B00"/>
<path d="M74.4726 4.16406C74.4466 4.17926 74.4986 4.14885 74.4726 4.16406V4.16406Z" fill="#765B00"/>
<path d="M43.4768 32.2507C43.4616 32.2247 43.4921 32.2767 43.4768 32.2507V32.2507Z" fill="#765B00"/>
<path d="M47.3795 32.2429C47.3537 32.258 47.4053 32.2278 47.3795 32.2429V32.2429Z" fill="#765B00"/>
<path d="M66.4119 6.01846C66.4404 5.91129 66.5237 5.91111 66.7321 5.9114C66.8571 5.91188 66.8533 6.15753 66.8522 6.28035C66.851 6.40318 66.8521 6.40312 66.8521 6.40312C66.6936 6.35148 66.5652 6.25919 66.4119 6.01846Z" fill="#765B00"/>
<path d="M74.473 5.64205C74.4472 5.65713 74.4988 5.62697 74.473 5.64205V5.64205Z" fill="#765B00"/>
<path d="M72.7634 5.91105C72.8076 5.89346 72.8519 5.87617 72.8303 5.88536C72.7643 5.91183 72.7634 5.91105 72.7634 5.91105Z" fill="#765B00"/>
<path d="M72.9953 3.67139C72.9692 3.68662 73.0214 3.65616 72.9953 3.67139V3.67139Z" fill="#765B00"/>
<path d="M100.504 53.2689C100.35 53.1197 100.35 53.0374 100.349 52.8317C100.954 52.7083 101.558 52.7083 102.163 52.7083C102.133 52.9918 102.103 53.2754 102.074 53.5589C101.602 53.4845 101.129 53.4102 100.504 53.2689Z" fill="#765B00"/>
<path d="M61.9626 52.6601C62.6917 52.0529 63.3848 51.516 64.1661 51.304C64.3705 51.2486 65.2375 52.3466 65.1203 52.6629C64.8775 53.3179 64.1921 54.2257 63.663 54.243C63.111 54.2611 62.5286 53.3542 61.9626 52.6601Z" fill="#765B00"/>
<path d="M40.4165 24.6496C41.2955 24.9239 42.0731 24.993 42.6928 25.3421C43.3646 25.7207 43.8893 26.3602 44.4782 26.886C43.7726 27.438 43.1143 28.3839 42.3534 28.4753C38.6899 28.9153 33.5856 24.6227 33.0439 20.8047C32.9183 19.9194 32.6905 18.9403 32.9417 18.1399C33.1975 17.325 33.9861 16.6773 34.5413 15.9563C35.1145 16.6219 36.1233 17.2497 36.1849 17.9597C36.4404 20.9041 37.7623 23.0587 40.4165 24.6496Z" fill="#765B00"/>
<path d="M79.2513 16.3158C78.3544 18.5924 77.464 18.6069 75.7913 16.9586C74.5576 15.7428 72.979 14.8842 71.6151 13.7904C70.9417 13.2504 70.4064 12.5382 69.8086 11.904C70.7439 11.4465 71.7831 10.4637 72.5961 10.6245C75.705 11.2395 78.1904 12.8727 79.2513 16.3158Z" fill="#765B00"/>
</g>
<defs>
<clipPath id="clip0_54752_26186">
<rect width="113.3" height="100" fill="white" transform="translate(0.349854)"/>
</clipPath>
</defs>
</svg>
