<svg width="713" height="708" viewBox="0 0 713 708" fill="none" xmlns="http://www.w3.org/2000/svg">
<path d="M333.772 585.458C297.271 553.641 298.126 496.649 335.565 465.941V465.941C364.549 442.169 406.318 442.284 435.17 466.216L439.313 469.652C476.405 500.419 477.185 557.064 440.953 588.84V588.84C411.465 614.701 367.396 614.767 337.83 588.995L333.772 585.458ZM357.757 569.405C375.87 585.613 403.216 585.802 421.55 569.845V569.845C445.571 548.94 443.081 510.9 416.54 493.304L411.997 490.293C395.935 479.644 375.05 479.68 359.024 490.383V490.383C333.043 507.735 330.414 544.936 353.696 565.771L357.757 569.405Z" fill="black"/>
<path d="M199.132 367.909C208.896 337.988 227.481 316.682 258.175 309.358C290.367 301.677 316.56 313.053 336.621 339.206C344.629 349.645 349.277 361.34 351.446 374.182C353.288 385.083 348.538 395.241 340.072 398.312C330.923 401.632 323.614 398.563 319.1 389.527C315.766 382.851 313.453 375.694 308.741 369.677C292.378 348.787 260.196 348.026 242.765 368.232C238.745 372.891 234.836 377.66 230.59 382.104C223.362 389.668 215.841 392.032 208.82 388.504C200.638 384.393 198.395 376.971 199.132 367.909Z" fill="black"/>
<path d="M563.452 353.576C566.916 361.009 570.61 368.059 568.729 376.292C565.75 389.325 550.887 394.348 540.563 385.888C535.088 381.401 531.348 375.395 526.78 370.115C518.319 360.335 507.886 354.449 494.803 353.811C479.197 353.049 467.653 360.134 458.935 372.58C455.185 377.935 452.676 383.938 449.832 389.775C446.32 396.983 440.027 400.678 433.096 399.905C425.854 399.096 421.015 394.405 418.506 386.706C415.339 376.988 417.618 367.784 421.181 358.968C430.5 335.918 446.304 318.561 470.154 310.784C493.915 303.037 516.55 307.315 536.775 322.426C547.88 330.723 556.751 340.99 563.452 353.576Z" fill="black"/>
<path d="M93.7017 405.435C94.6836 389.51 97.9386 374.449 102.201 359.543C111.498 327.033 125.662 296.806 145.704 269.611C183.739 218 233.964 183.241 295.186 164.732C326.605 155.233 358.94 151.739 391.824 153.602C461.578 157.554 521.994 183.577 573.302 230.66C619.556 273.107 646.604 326.141 657.011 387.689C663.159 424.048 661.133 460.252 652.065 496.05C641.677 537.058 623.184 573.878 595.779 606.179C560.659 647.573 517.264 676.49 465.663 693.383C436.125 703.054 405.904 707.734 374.901 707.781C325.357 707.857 279.201 695.461 236.328 670.533C212.285 656.554 189.974 640.31 170.782 620.201C141.764 589.798 120.187 554.722 106.711 514.763C96.579 484.718 91.4575 453.928 92.3383 422.206C92.4899 416.748 93.2317 411.306 93.7017 405.435ZM152.458 349.797C152.458 349.797 144.415 365.549 142.439 374.421C143.851 374.519 143.958 373.481 144.393 372.884C151.251 363.466 158.346 354.234 166.039 345.478C168.879 342.247 173.107 341.45 175.225 343.791C178.114 346.983 175.461 349.399 173.614 351.597C170.625 355.156 166.813 357.947 164.092 361.806C156.521 372.548 148.647 383.082 141.288 393.965C137.306 399.854 135.384 406.591 135.681 414.568C137.034 413.749 137.779 413.555 138.074 413.082C141.681 407.293 145.907 401.991 150.234 396.726C155.516 390.297 160.291 383.454 165.476 376.943C167.623 374.247 170.398 372.756 173.572 375.754C176.791 378.794 174.599 381.194 172.462 383.385C168.968 386.967 165.601 390.616 162.779 394.782C155.967 404.837 149.118 414.87 142.115 424.792C138.672 429.67 138.648 430.27 144.227 434.049C148.856 427.796 153.402 421.457 158.171 415.292C160.807 411.884 163.617 408.556 166.721 405.581C169.374 403.038 172.952 402.348 175.634 405.29C178.421 408.348 175.925 410.591 173.468 412.673C164.826 419.997 159.908 430.233 153.215 439.078C150.987 442.023 153.472 444.753 155.805 446.741C158.52 449.055 159.573 446.065 160.923 444.728C162.692 442.977 164.083 440.85 165.813 439.056C169.163 435.582 172.501 432.074 176.11 428.881C178.254 426.984 181.124 426.384 183.269 428.877C185.334 431.275 184.399 433.865 182.561 436.118C182.142 436.63 181.625 437.069 181.118 437.5C175.633 442.162 171.251 447.853 166.427 453.135C164.634 455.098 164.222 456.623 166.344 458.582C168.315 460.401 169.934 462.881 172.896 459.972C173.713 459.17 174.751 458.536 175.786 458.022C178.187 456.83 180.481 457.067 181.856 459.515C183.143 461.807 182.862 464.127 180.331 465.525C178.069 466.775 176.518 468.711 174.86 470.566C170.306 475.658 168.207 475.512 163.917 469.966C162.436 468.051 161.587 465.503 158.794 464.472C156.362 466.421 153.125 468.452 154.009 471.816C154.827 474.93 156.434 478.427 160.815 478.865C163.438 479.128 164.655 481.136 163.895 483.573C162.264 488.805 165.601 491.491 168.799 494.658C169.692 494.041 170.422 493.656 171.005 493.113C173.92 490.399 176.367 487.197 179.826 485.046C182.31 483.501 184.689 482.583 186.958 485.173C189.313 487.862 187.938 490.052 185.805 492.072C183.268 494.474 180.651 496.802 178.27 499.351C177.008 500.703 174.595 502.146 176.088 504.338C177.757 506.788 178.997 510.289 182.987 509.902C185.816 509.629 188.037 510.493 189.092 513.119C190.163 515.782 188.809 517.992 186.946 519.84C183.867 522.897 181.047 526.16 178.351 529.565C176.227 532.246 176.542 534.244 179.002 536.377C181.69 538.707 183.13 536.79 184.704 534.954C187.303 531.921 189.834 528.821 192.577 525.923C194.723 523.657 197.401 522.646 200.094 524.982C202.891 527.409 201.933 530.042 199.858 532.419C197.557 535.054 195.204 537.646 192.797 540.183C186.863 546.437 187.206 549.031 194.967 554.135C198.993 550.556 202.385 546.141 207.001 543.104C209.892 541.202 212.796 540.907 214.899 543.958C216.879 546.829 214.901 549.041 212.686 550.718C209.072 553.455 205.839 556.553 203.074 560.128C202.193 561.266 200.797 562.622 202.164 564.093C204.841 566.975 206.71 570.665 210.151 572.617C212.262 572.226 212.961 570.542 214.103 569.39C217.035 566.433 219.914 563.423 222.869 560.489C225.078 558.294 227.774 557.017 230.386 559.365C233.238 561.93 231.262 564.566 229.499 566.833C228.278 568.403 226.765 569.743 225.411 571.212C223.268 573.537 221.079 575.825 219.053 578.248C218.138 579.342 216.897 580.656 218.098 582.248C220.556 585.508 222.716 589.074 226.632 591.501C230.448 587.072 234.084 582.768 237.817 578.549C240.23 575.822 243.183 574.761 246.039 577.624C248.734 580.325 246.961 582.876 244.794 584.957C241.545 588.079 238.377 591.256 235.738 594.931C232.923 598.851 233.678 600.786 238.389 601.648C241.377 602.194 243.897 601.717 245.96 599.155C247.939 596.698 250.177 594.434 252.427 592.213C253.973 590.687 255.95 590.06 257.866 591.438C259.797 592.826 260.655 594.871 259.505 597.145C258.508 599.117 258.268 601.194 258.25 603.395C255.684 603.702 253.013 603.998 252.597 606.793C252.195 609.5 254.652 610.836 256.578 612.003C259.49 613.767 260.699 611.005 262.186 609.386C264.437 606.934 266.558 604.363 268.751 601.859C270.886 599.422 273.397 598.194 276.001 600.901C278.4 603.395 277.58 606.06 275.458 608.457C272.919 611.326 270.46 614.267 267.866 617.085C266.249 618.841 265.836 620.451 267.727 622.244C269.511 623.936 270.746 626.241 273.386 627.303C276.384 625.406 278.018 622.214 280.317 619.655C282.762 616.935 285.054 614.066 287.637 611.485C289.279 609.845 291.44 609.266 293.51 610.937C295.733 612.73 295.664 614.995 294.247 617.187C292.987 619.137 291.489 620.938 290.044 622.764C287.357 626.158 284.609 629.504 281.934 632.908C280.753 634.41 279.725 636.059 281.695 637.697C283.912 639.54 285.004 637.317 286.189 636.178C287.865 634.567 289.308 632.713 290.84 630.955C294.343 626.935 297.836 622.908 301.339 618.89C303.156 616.806 305.241 616.496 307.541 618.051C310.085 619.77 309.62 622.028 308.373 624.188C307.469 625.754 306.234 627.134 305.099 628.56C303.339 630.773 301.233 632.774 299.823 635.186C297.253 639.583 301.587 641.338 303.777 643.607C306.18 646.098 307.574 643.418 308.836 641.82C312.136 637.641 315.241 633.307 318.579 629.16C320.435 626.854 322.308 624.236 325.9 624.792C329.38 625.332 329.725 628.082 330.693 630.885C331.742 633.919 333.741 637.595 337.012 638.084C340.297 638.574 341.205 634.41 343.011 632.148C343.214 631.893 343.318 631.559 343.48 631.268C346.656 625.545 350.659 625.475 354.252 631.076C356.605 634.743 357.936 639.209 362.129 641.54C366.502 638.207 369.075 633.65 372.418 629.759C375.651 625.996 381.101 627.062 381.976 631.828C382.998 637.39 387.281 639.815 390.823 643.925C394.285 639.092 399.021 636.219 400.022 630.398C400.383 628.296 402.267 626.657 404.658 626.379C407.086 626.096 408.787 627.478 410.06 629.353C410.706 630.304 410.993 631.494 411.598 632.48C417.3 641.764 420.392 642.091 427.775 634.344C428.887 633.176 429.772 632.168 428.974 630.445C427.709 627.718 427.724 624.829 430.647 623.545C433.48 622.301 436.083 623.929 438.065 626.217C440.791 629.364 443.479 632.546 446.25 635.654C447.497 637.053 448.821 638.141 451.016 637.137C456.696 634.54 457.554 631.407 453.76 626.48C452.948 625.426 452.225 624.303 451.401 623.259C449.425 620.755 448.642 617.996 451.211 615.667C453.892 613.234 456.653 614.654 458.654 616.907C462.272 620.981 466.344 624.67 469.052 629.548C470.424 632.02 471.822 635.346 475.859 632.468C481.828 628.212 482.797 625.874 479.585 621.856C477.509 619.259 475.077 616.948 472.953 614.385C470.616 611.567 467.413 608.178 471.184 604.915C475.156 601.478 477.692 605.62 480.095 608.281C483.389 611.927 485.886 616.33 489.924 619.161C498.936 613.26 498.953 613.169 492.776 605.341C492.363 604.818 491.86 604.35 491.531 603.78C490.03 601.189 490.942 598.834 492.74 596.961C494.781 594.835 497.13 595.594 498.908 597.433C500.866 599.458 502.532 601.77 504.275 603.996C505.601 605.69 507.227 606.538 508.886 604.808C511.175 602.424 514.41 601.086 516.504 597.708C513.834 593.889 511.171 589.9 508.312 586.057C506.248 583.282 504.616 580.466 508.091 577.867C511.784 575.105 514.039 577.644 516.276 580.526C518.898 583.905 520.983 587.752 524.261 590.579C527.226 589.761 528.608 587.279 530.663 585.667C533.691 583.29 534.249 580.996 531.453 577.793C528.62 574.547 526.303 570.837 523.893 567.24C522.376 564.976 522.9 562.751 524.78 560.918C526.603 559.139 528.482 560.072 530.266 561.095C532.046 562.114 533.235 563.738 534.459 565.326C536.763 568.316 539.093 571.285 541.367 574.204C544.628 573.042 546.056 570.385 548.255 568.682C552.205 565.624 552.318 562.624 548.679 559.222C546.135 556.844 543.687 554.341 541.403 551.714C539.423 549.436 538.233 546.732 540.807 544.143C543.279 541.657 545.724 543.137 547.944 544.807C550.35 546.617 552.447 548.742 554.335 551.104C555.953 553.127 557.405 555.41 560.445 556.568C561.817 555.032 563.019 553.412 564.49 552.091C567.9 549.03 568.005 546.186 564.702 542.878C561.293 539.464 558.176 535.757 554.987 532.129C553.545 530.488 553.21 528.543 554.15 526.542C554.925 524.893 556.425 524.133 558.178 523.99C560.618 523.79 562.08 525.422 563.672 526.948C567.567 530.684 570.313 535.582 574.794 538.686C582.803 531.334 582.894 529.299 575.839 521.849C574.58 520.519 573.2 519.305 571.907 518.007C571.206 517.303 570.431 516.618 569.931 515.78C568.58 513.522 567.732 511.051 569.987 508.946C572.387 506.706 574.932 507.401 577.115 509.448C579.178 511.383 581.032 513.541 583.089 515.484C585.079 517.365 586.048 520.38 589.057 521.119C593.761 516.763 593.842 515.875 589.637 511.417C586.782 508.391 583.657 505.608 580.925 502.479C579.036 500.315 578.383 497.643 580.78 495.305C582.942 493.196 585.352 493.664 587.588 495.302C590.433 497.386 592.774 499.943 594.738 502.896C595.88 504.613 596.702 506.823 599.158 507.184C605.194 501.503 606.124 499.136 602.958 494.976C596.008 485.848 589.065 476.68 580.546 468.892C577.058 465.703 576.563 460.406 579.494 458.004C582.141 455.836 584.545 458.044 586.988 458.254C592.756 451.305 592.752 451.027 587.624 444.377C583.221 438.667 577.815 433.957 572.555 429.095C570.724 427.403 569.375 425.498 571.106 423.003C572.82 420.533 575.081 420.473 577.736 421.519C580.154 422.471 581.977 424.102 583.788 425.828C592.254 433.896 599.338 443.171 606.835 452.089C608.253 453.775 609.418 457.193 612.615 454.532C615.315 452.283 617.978 450.044 614.92 445.824C611.207 440.702 607.631 435.489 603.624 430.582C599.086 425.027 594.278 419.746 588.979 414.895C586.424 412.555 585.863 409.717 588.534 407.022C591.074 404.459 593.684 405.19 596.009 407.418C597.931 409.259 599.752 411.213 601.529 413.197C606.711 418.985 611.848 424.813 617.179 430.824C618.687 427.646 617.49 425.394 615.886 423.189C610.2 415.375 604.586 407.516 597.416 400.919C595.028 398.723 593.634 395.749 596.067 392.967C598.712 389.942 601.806 391.137 604.402 393.49C606.498 395.39 608.412 397.488 610.455 399.447C611.468 400.418 612.292 402.109 614.156 400.9C615.828 399.816 616.148 398.106 615.433 396.491C613.748 392.687 613.03 388.557 611.003 384.849C605.042 373.941 597.538 364.241 588.75 355.5C586.43 353.193 584.73 350.729 587.416 347.738C590.093 344.757 592.565 346.161 595.215 348.24C599.552 351.642 602.749 356.13 607.239 360.359C606.877 358.942 606.719 358.154 606.475 357.394C592.753 314.671 568.542 279.112 533.518 251.031C513.247 234.779 490.726 222.692 466.763 212.454C438.119 200.216 408.454 195.178 377.81 194.719C358.336 194.428 338.986 196.734 319.937 201.256C288.307 208.765 258.71 220.988 232.669 240.54C209.215 258.15 189.375 279.476 172.97 303.879C170.265 307.901 167.181 311.744 166.047 316.652C167.186 315.854 153 349.5 152.458 349.797ZM317.571 657.7C319.187 657.85 321.123 658.911 322.36 657.67C325.493 654.526 328.999 651.438 331.051 647.625C333.01 643.985 328.674 642.05 326.665 639.658C325.314 638.051 323.588 638.338 322.408 639.85C318.61 644.721 314.949 649.699 311.258 654.605C312.941 656.84 315.044 656.917 317.571 657.7ZM405.576 641.354C402.995 641.913 402.259 644.414 400.679 646.024C397.716 649.042 397.765 651.511 401.159 654.606C404.684 657.82 406.691 655.955 408.938 653.532C410.361 651.998 412.545 651.139 413.349 648.448C410.986 646.251 409.684 642.847 405.576 641.354ZM537.983 590.528C535.269 592.897 532.294 595.025 530.561 598.267C537.029 605.214 537.027 605.211 543.679 599.756C545.354 598.382 547.563 597.021 545.456 594.582C543.657 592.498 543.254 587.901 537.983 590.528ZM554.197 574.75C546.84 581.579 546.878 583.453 554.755 588.202C556.276 586.578 557.848 584.902 559.418 583.223C564.598 577.684 564.527 576.928 558.211 571.707C557.079 572.57 555.913 573.458 554.197 574.75ZM526.656 608.743C524.186 604.906 521.424 604.656 518.287 607.998C517.612 608.717 516.759 609.281 515.941 609.85C513.06 611.857 512.003 613.787 514.681 617.123C517.17 620.225 519.12 620.536 521.925 617.889C523.245 616.643 524.789 615.605 526.329 614.627C528.744 613.091 528.834 611.35 526.656 608.743ZM383.118 652.897C384.034 651.788 384.629 650.524 383.487 649.334C381.02 646.76 379.154 643.583 376.201 641.542C367.974 647.938 368.568 649.3 378.335 657.34C380.277 656.585 381.282 654.762 383.118 652.897ZM195.636 570.683C188.527 576.608 189.199 580.056 198.643 586.112C205.063 581.097 205.146 580.481 200.024 574.699C198.817 573.338 197.524 572.054 195.636 570.683ZM427.373 648.473C430.638 654.751 431.837 654.719 437.97 649.492C441.22 646.722 440.835 644.515 438.349 641.619C435.603 638.42 433.695 640.634 431.731 642.363C429.992 643.894 428.361 645.572 427.373 648.473ZM244.316 615.105C242.61 617.303 240.563 619.281 239.776 621.915C240.139 623.334 241.143 623.974 242.08 624.631C246.77 627.919 251.571 625.822 252.223 620.012C252.568 616.93 249.505 615.742 247.848 613.819C246.499 612.254 245.561 613.512 244.316 615.105ZM215.208 602.7C216.043 603.148 216.782 602.995 217.436 602.341C221.46 598.315 218.097 595.649 215.684 592.8C210.838 587.077 209.25 587.311 206.038 594.363C206.658 595.044 207.265 595.83 207.99 596.484C210.193 598.472 212.441 600.408 215.208 602.7ZM173.15 521.647C174.127 520.161 175.616 518.978 175.896 517.103C169.334 509.021 168.306 508.893 164.436 515.198C161.886 519.354 165.942 520.589 167.593 522.825C169.545 525.467 171.199 523.914 173.15 521.647ZM596.145 470.275C597.065 471.479 597.891 472.905 599.704 471.425C603.711 468.152 604.087 465.003 600.887 460.678C599.843 459.268 598.939 456.734 596.912 457.628C594.098 458.87 592.58 461.862 592.01 464.758C591.596 466.862 593.716 467.837 595.683 467.964C598.314 468.133 596.48 469.092 596.145 470.275ZM466.79 643.63C465.562 641.931 464.824 639.778 462.196 638.831C459.989 641.473 456.449 642.88 454.727 646.185C456.325 648.936 458.401 650.829 461.299 649.294C463.511 648.122 467.882 648.933 466.79 643.63ZM186.93 565.347C191.022 559.681 184.402 558.449 183.285 554.606C176.256 561.647 176.339 562.596 184.105 568.88C184.913 567.887 185.729 566.884 186.93 565.347ZM572.512 566.864C578.076 559.911 578.08 559.881 573.708 555.914C570.952 556.919 569.648 559.661 567.481 561.392C565.901 562.654 565.005 564.079 566.768 565.989C568.27 567.615 569.558 569.611 572.512 566.864ZM148.028 480.253C140.269 483.349 141.703 488.831 146.391 493.876C152.847 486.747 152.905 486.39 148.028 480.253ZM161.587 501.036C160.697 499.324 160.234 496.644 157.772 497.144C154.879 497.73 153.846 500.812 153.092 503.187C152.076 506.385 154.159 508.661 156.939 510.453C159.535 507.869 161.459 505.271 161.587 501.036ZM497.789 624.857C495.662 627.701 498.406 629.311 499.91 629.832C504.01 631.254 506.321 627.781 509.273 625.62C507.592 623.007 506.181 620.619 503.423 618.798C501.604 620.746 499.906 622.563 497.789 624.857ZM146.3 450.517C143.045 450.719 141.209 453.157 141.123 455.694C141.007 459.104 143.962 460.891 146.757 462.265C153.066 456.424 153.063 455.782 146.3 450.517ZM266.292 632.967C264.513 630.841 263.166 628.288 260.288 626.869C258.279 628.589 256.322 630.267 255.706 633.055C257.74 635.278 260.376 636.46 262.943 637.432C266.642 638.832 267.924 637.178 266.292 632.967ZM346.141 648.346C347.797 650.131 349.452 651.917 351.748 654.393C351.885 650.512 357.678 649.285 354.166 645.222C352.773 643.611 351.434 640.636 348.837 641.77C346.776 642.67 344.846 644.785 346.141 648.346ZM365.882 657.67C364.813 656.473 363.804 654.531 361.935 656.231C360.106 657.895 358.358 660.007 358.652 662.628C358.884 664.701 361.057 664.651 362.683 664.591C365.037 664.504 367.563 665.369 369.805 663.817C369.301 661.323 367.707 659.826 365.882 657.67ZM607.95 484.189C608.673 484.806 609.167 485.815 610.527 485.589C611.98 482.85 612.467 479.754 612.985 476.693C613.301 474.823 612.839 473.147 610.392 473.916C606.405 475.17 605.017 480.117 607.95 484.189ZM339.316 662.175C341.325 662.238 343.532 663.558 345.404 661.08C343.755 658.404 341.8 655.305 338.747 655.158C336.401 655.045 334.721 657.957 334.146 660.592C335.571 661.919 337.152 661.726 339.316 662.175ZM231.724 609.439C230.209 608.216 229.204 606.334 227.168 605.81C222.016 610.132 222.369 611.405 229.929 615.235C231.005 613.611 234.374 613.089 231.724 609.439ZM174.575 548.83C177.441 543.744 172.259 543.117 170.341 540.455C165.841 543.518 168.556 546.165 170.123 548.929C171.382 551.15 172.621 551.251 174.575 548.83ZM295.095 644.91C290.706 643.039 291.449 647.515 288.8 649.307C293.037 650.57 296.078 652.616 300.177 651.245C299.321 648.479 297.082 647.172 295.095 644.91ZM395.995 663.694C396.65 659.892 393.15 659.532 391.221 657.454C389.349 659.599 387.175 661.026 386.096 663.761C389.382 665.292 392.393 664.379 395.995 663.694ZM588.572 541.691C588.524 540.519 588.555 539.295 586.949 539.145C579.904 545.549 579.493 546.831 583.892 549.993C585.42 547.425 586.935 544.879 588.572 541.691ZM480.448 641.549C483.437 641.723 485.739 639.958 488.184 638.7C491.693 636.895 490.511 635.194 487.808 633.257C485.412 636.364 481.313 637.317 480.448 641.549ZM415.474 659.53C414.47 661.11 415.305 661.739 416.753 661.544C418.807 661.268 420.961 661.149 422.943 659.75C420.842 655.358 418.46 656.337 415.474 659.53ZM160.544 532.747C161.249 533.557 162.306 535.275 163.06 533.635C164.354 530.818 161.981 529.503 159.937 528.134C158.93 529.837 159.861 530.969 160.544 532.747Z" fill="black"/>
<path d="M611.235 144.42C603.032 150.449 594.389 153.421 584.275 151.449C570.724 148.806 560.037 134.417 562.225 121.28C564.753 106.106 578.336 95.9673 593.072 98.1237C596.46 98.6196 599.648 99.6702 602.56 101.001C604.136 99.8556 604.025 98.3969 604.225 97.1323C605.621 88.3353 606.88 79.5161 608.34 70.7302C608.795 67.991 608.119 66.7724 605.211 66.3332C583.132 62.9978 561.066 59.577 539.018 56.0428C535.856 55.5358 535.001 56.7625 534.572 59.5635C531.93 76.8103 529.32 94.0649 526.361 111.258C525.187 118.074 524.537 125.043 522.049 131.592C516.414 146.422 499.892 156.01 484.798 152.947C469.4 149.823 458.651 134.442 462.855 118.503C466.386 105.119 483.218 96.263 497.558 100.486C499.491 101.055 501.408 103.413 503.213 102.151C505.133 100.811 504.541 97.8802 504.896 95.6377C508.692 71.6548 512.392 47.6566 516.172 23.6711C518.024 11.9184 525.036 6.83905 536.818 8.65888C565.156 13.036 593.494 17.4194 621.823 21.8522C632.386 23.505 638.19 30.9322 636.62 41.5865C632.636 68.6258 628.456 95.6377 624.111 122.621C622.709 131.328 618.312 138.593 611.235 144.42Z" fill="black"/>
<path d="M42.9055 186.081C42.1466 182.876 41.4232 180.038 40.8062 177.177C39.4181 170.74 42.642 165.441 48.937 163.72C54.8798 162.096 60.8295 165.109 62.3119 171.265C63.2499 175.161 65.4399 177.415 68.5745 179.259C75.9313 183.586 83.313 187.872 90.6349 192.258C101.832 198.965 107.678 209.327 110.444 221.711C111.254 225.341 110.339 228.734 108.5 231.892C105.78 236.562 101.734 238.996 97.4807 238.134C92.3887 237.103 89.2297 233.882 87.6256 228.899C86.7609 226.213 87.4134 223.291 86.0221 220.736C82.8096 214.835 77.6909 211.061 72.0001 207.77C70.945 209.287 71.8057 210.551 72.0844 211.757C75.7103 227.445 79.565 243.081 83.0137 258.807C86.5388 274.881 77.8467 292.004 63.2377 298.533C48.0577 305.317 29.8084 297.082 25.1481 281.344C20.2356 264.755 33.9199 247.128 51.2684 247.64C53.0603 247.693 54.8586 248.31 57.4541 247.526C52.6304 227.154 47.8099 206.796 42.9055 186.081Z" fill="black"/>
<path d="M168.195 54.4052C166.548 51.5532 165.04 49.0422 163.628 46.4786C160.451 40.7109 162.018 34.7094 167.555 31.2543C172.781 27.9925 179.346 29.1716 182.532 34.6432C184.549 38.1053 187.294 39.6364 190.826 40.5031C199.115 42.537 207.416 44.5241 215.689 46.624C228.34 49.8353 236.914 58.0836 243.117 69.1527C244.936 72.397 245.033 75.9097 244.177 79.4626C242.912 84.7173 239.735 88.2098 235.413 88.6051C230.24 89.0784 226.289 86.8998 223.322 82.5866C221.723 80.2618 221.51 77.2756 219.443 75.2271C214.673 70.4972 208.686 68.3504 202.29 66.8313C201.715 68.5876 202.902 69.5517 203.515 70.6269C211.491 84.6135 219.671 98.4857 227.488 112.56C235.478 126.946 232.066 145.844 219.946 156.291C207.352 167.146 187.507 164.495 178.526 150.757C169.058 136.276 177.108 115.463 193.874 110.974C195.605 110.51 197.505 110.585 199.766 109.09C189.299 90.9595 178.838 72.8409 168.195 54.4052Z" fill="black"/>
<path d="M671.255 200.236C671.512 197.946 671.706 195.906 671.976 193.876C672.582 189.308 675.957 186.58 680.51 186.933C684.808 187.267 688.015 190.658 687.537 195.062C687.234 197.849 688.144 199.852 689.773 201.806C693.596 206.394 697.446 210.961 701.232 215.579C707.023 222.642 708.425 230.848 707.321 239.657C706.998 242.24 705.593 244.258 703.636 245.903C700.741 248.337 697.502 248.984 694.904 247.412C691.794 245.53 690.474 242.662 690.595 239.001C690.66 237.028 691.78 235.258 691.467 233.246C690.745 228.601 688.265 224.906 685.294 221.394C684.241 222.144 684.509 223.18 684.408 224.04C683.09 235.229 681.936 246.438 680.492 257.61C679.017 269.03 669.247 278.254 658.083 279.103C646.482 279.986 636.408 270.251 637.056 258.785C637.739 246.698 650.916 238.321 662.222 242.756C663.389 243.214 664.428 244.046 666.322 244.143C667.958 229.586 669.592 215.038 671.255 200.236Z" fill="black"/>
</svg>
