<svg width="80" height="100" viewBox="0 0 80 100" fill="none" xmlns="http://www.w3.org/2000/svg">
<g clip-path="url(#clip0_54754_30183)">
<path d="M61.5685 67.3084C61.9041 65.4165 62.2396 63.5246 62.5751 61.6327C62.8033 61.6046 63.0316 61.5765 63.2598 61.5485C63.4784 62.5053 63.8258 63.4534 63.8917 64.4207C64.1034 67.5279 64.2112 70.6422 64.6056 73.8579C64.9138 74.0211 64.9755 74.08 64.9848 74.2918C63.3543 76.9315 64.6866 79.4608 64.4279 81.967C64.7219 81.9766 65.0158 81.9862 65.3097 81.9959C65.3097 79.1762 65.3097 76.3564 65.2713 73.4925C65.2329 73.4484 65.1806 73.3438 65.1806 73.3438C65.365 72.5885 65.6846 71.8379 65.7108 71.0772C65.8289 67.6375 65.836 64.194 65.9529 60.7543C65.9761 60.0716 66.3061 59.3993 66.4945 58.7222C66.7988 58.7534 67.103 58.7845 67.4072 58.8156C67.4506 67.2591 67.494 75.7026 67.5196 84.5459C67.5019 86.6683 67.5019 88.3909 67.5019 90.1135C67.8205 90.1182 68.1392 90.1229 68.4579 90.1275C68.4579 88.2774 68.4579 86.4273 68.4579 84.5772C68.6013 82.168 68.8502 79.7596 68.8684 77.3495C68.9232 70.0867 68.8882 62.8231 68.8882 55.7931C50.1369 62.6511 31.4391 63.4494 12.9704 55.9843C12.9704 66.8773 12.9704 78.3696 12.9704 89.8619C13.2369 89.8635 13.5034 89.8652 13.77 89.8668C13.9364 81.833 14.1029 73.7991 14.2694 65.7653C14.6598 65.7521 15.0502 65.739 15.4406 65.7258C15.5695 67.3915 15.783 69.0558 15.8123 70.7232C15.9232 77.0336 15.9507 83.3456 16.0748 89.6556C16.0923 90.542 16.7282 91.4533 16.6223 92.2957C16.4826 93.4068 16.1616 94.7267 15.4266 95.4712C14.5525 96.3568 13.5251 96.1301 12.5286 94.8848C11.4242 93.5046 10.0827 91.9686 7.82997 92.391C7.39446 92.4727 6.88245 92.1464 6.10934 91.9224C7.11943 91.4457 7.8505 91.1006 8.99678 90.5596C7.25142 90.2668 5.94787 90.0482 4.64432 89.8295C4.62331 89.5917 4.60231 89.3539 4.5813 89.1161C5.82407 88.8743 7.06685 88.6326 8.3635 88.3804C8.3635 78.9175 8.37515 69.5467 8.35674 60.1758C8.35085 57.1776 8.00082 54.151 8.31962 51.1925C8.499 49.5278 9.32158 47.4677 10.5652 46.4871C12.6244 44.8632 15.2124 43.8572 17.6805 42.8408C18.3061 42.5831 19.3202 43.2688 20.1558 43.521C19.6753 44.1836 19.2984 44.9704 18.6891 45.4786C17.8533 46.1758 16.8391 46.6583 15.9052 47.239C12.8755 49.123 12.7749 51.0504 16.0423 52.6216C19.039 54.0626 22.2871 55.2617 25.5518 55.8141C37.5938 57.8515 49.6103 57.7312 61.3935 54.0916C63.2386 53.5217 64.9575 52.434 66.6121 51.3911C67.9189 50.5676 67.8266 49.3846 66.5404 48.5794C64.8776 47.5385 63.0548 46.7505 61.408 45.6876C60.6736 45.2135 60.2007 44.3344 59.609 43.6391C60.4974 43.3417 61.5494 42.5821 62.2452 42.8284C64.9818 43.7972 67.7175 44.8858 70.2391 46.3097C72.4515 47.5591 73.0311 49.8484 73.0252 52.3761C72.9981 63.9352 73.0598 75.4946 73.1012 87.0539C73.103 87.5416 73.2196 88.0289 73.2794 88.4903C75.4921 88.6537 77.5709 88.8072 79.6496 88.9608C79.6495 89.3041 79.6494 89.6475 79.6493 89.9908C77.5106 90.1902 75.372 90.3895 73.2333 90.5888C73.2144 90.6939 73.1955 90.799 73.1766 90.9041C74.2757 91.1816 75.3748 91.459 76.4739 91.7364C76.4734 91.9068 76.4729 92.0771 76.4724 92.2475C74.8142 92.4789 73.1559 92.7104 70.9833 93.0137C71.8909 93.6161 72.4215 93.9683 73.2626 94.5266C66.5317 96.4309 60.0361 98.2687 53.4883 100.273C52.9661 100.44 52.4962 100.44 51.7737 100.326C51.1315 100.287 50.7419 100.364 50.3523 100.44C42.8541 100.44 35.356 100.44 27.6513 100.44C25.8828 99.2371 25.2208 97.9158 26.0213 95.821C26.4798 94.621 26.1043 93.1023 26.1043 91.6944C27.4428 91.9316 27.4428 91.9316 27.5266 95.8413C28.0763 95.9578 28.6691 96.0834 29.8879 96.3417C29.8879 91.9988 29.8879 87.9197 29.8879 83.8406C30.2632 83.8303 30.6386 83.8199 31.014 83.8096C32.1655 87.8523 30.97 92.1557 31.9417 96.4972C34.3429 96.4972 36.8368 96.4972 39.4695 96.4972C39.5843 95.8299 39.7028 95.1418 39.8865 94.075C38.0496 94.075 36.39 94.075 34.7305 94.075C34.7337 93.9343 34.7368 93.7936 34.74 93.6529C36.4406 93.2819 38.1411 92.9109 40.0036 92.2912C40.7449 92.2154 41.3242 92.3881 41.882 92.5545C44.4352 89.9425 41.2542 90.0872 40.159 89.2626C40.6034 88.9572 40.8796 88.7674 41.3309 88.5722C42.1005 88.3085 42.7372 87.7611 43.2823 87.8408C45.7962 88.2085 46.522 87.4636 45.9178 84.7657C44.025 85.1928 42.1304 85.6204 40.1172 86.0157C39.9168 85.9888 39.835 85.9942 39.7533 85.9996C39.842 85.6496 39.85 85.0481 40.0322 84.9896C41.4782 84.5254 42.9711 84.2081 44.4193 83.7501C44.9839 83.5716 45.471 83.1479 46.1547 82.6188C49.5139 82.9409 50.3963 82.0911 49.8064 78.742C48.4974 79.2806 47.2337 79.8005 45.97 80.3204C45.2261 80.3716 44.4822 80.4227 43.7382 80.4738C43.6692 80.2596 43.6001 80.0454 43.531 79.8312C45.5933 78.9943 47.6556 78.1575 49.9759 77.1766C54.1716 75.2192 55.3312 75.0527 54.1487 72.3514C52.7337 73.061 51.3204 73.7697 49.9072 74.4785C48.5717 74.8851 47.2362 75.2917 45.9007 75.6984C45.8104 75.487 45.7202 75.2756 45.6299 75.0642C48.4672 73.614 51.3044 72.1638 54.3285 70.5549C54.6286 70.3109 54.7095 70.2016 54.7582 70.0685C58.295 69.9224 58.6583 67.5375 58.1635 64.5471C58.4814 64.5642 58.7992 64.5813 59.1171 64.5983C59.3194 65.4212 59.5217 66.2441 59.7393 67.1296C60.3291 67.0484 60.9611 66.9613 61.6108 67.268C60.4356 68.5892 59.036 69.4296 60.0527 71.4366C61.8149 70.4258 62.7409 69.2539 61.5685 67.3084ZM52.359 77.5538C50.4945 78.156 50.6394 79.5418 50.9399 81.0226C53.991 80.6998 54.0813 80.5973 54.3612 77.0526C53.7688 77.2297 53.2355 77.3892 52.359 77.5538ZM57.8692 78.1008C58.0209 77.2319 58.1727 76.3629 58.3358 75.4285C55.3972 75.5707 54.9583 76.224 55.5335 79.4463C56.2714 79.0466 56.9375 78.6857 57.8692 78.1008ZM55.6391 72.8869C55.6744 73.3012 55.7096 73.7156 55.747 74.1551C57.8351 73.5886 58.7478 72.4305 57.8889 69.6626C56.979 70.8338 56.3045 71.7019 55.6391 72.8869ZM43.2809 90.5892C43.3183 92.5291 44.8299 91.6857 45.4644 91.4489C45.9249 91.277 46.0108 90.1014 46.2637 89.3734C46.0489 89.2197 45.8342 89.066 45.6194 88.9122C44.8423 89.3449 44.0653 89.7776 43.2809 90.5892ZM52.7529 82.5713C51.4543 83.1244 50.789 83.9323 51.6291 85.5526C53.0161 84.7159 55.0723 84.6181 54.2161 82.0879C53.7923 82.2167 53.448 82.3214 52.7529 82.5713ZM47.9277 84.1462C47.6626 84.9843 47.3975 85.8224 47.0522 86.9142C49.4555 86.6152 50.5557 85.8872 49.7477 83.6781C49.2412 83.8019 48.7614 83.9192 47.9277 84.1462ZM60.0247 74.4202C60.0625 75.0112 60.1004 75.6022 60.1401 76.2224C62.4939 75.6183 61.9802 73.9299 62.1085 71.8749C61.1873 72.8659 60.6271 73.4684 60.0247 74.4202ZM48.6149 88.301C48.1612 88.9724 47.7075 89.6438 47.2538 90.3151C47.5269 90.5266 47.8 90.7381 48.0732 90.9496C48.6603 90.3735 49.2782 89.8219 49.7873 89.1835C49.8387 89.1191 49.2324 88.5302 48.6149 88.301ZM52.159 89.2038C52.8943 88.4225 54.881 88.6195 54.1927 86.5414C53.4386 86.8711 52.7515 87.0992 52.14 87.4566C51.3109 87.9411 50.7647 88.5555 52.159 89.2038Z" fill="#765B00"/>
<path d="M55.7265 27.8824C54.4764 20.489 50.5879 14.9737 45.0502 10.4259C44.8276 10.6868 44.6562 10.7977 44.6663 10.8884C45.4302 17.7504 42.6169 23.4359 38.9188 28.8953C37.6614 30.7518 36.5931 32.8035 35.8222 34.9066C34.6724 38.0435 35.3733 41.066 37.0769 43.9088C37.3902 44.4316 37.313 45.1885 37.416 45.8374C36.8135 45.8466 36.1288 46.0491 35.6217 45.8337C32.2063 44.3825 31.3196 41.2855 30.9454 38.041C30.4831 34.0317 32.3086 30.6467 34.3349 27.3822C35.5311 25.4551 36.8638 23.6097 38.0027 21.6506C41.5546 15.5408 41.7419 9.49345 37.589 3.51886C37.1853 2.93811 37.2708 2.01733 37.1293 1.25439C37.9495 1.25726 38.9802 0.936314 39.5581 1.31195C47.2742 6.32739 54.6911 11.6564 58.3357 20.6497C61.614 28.739 61.1091 36.4118 55.6736 43.4123C54.5577 44.8494 52.8398 45.9075 51.2162 46.8113C50.6895 47.1045 49.5786 46.3485 48.735 46.0724C49.0249 45.3542 49.1315 44.4554 49.6333 43.9461C53.9828 39.5317 56.2056 34.3357 55.7265 27.8824Z" fill="#765B00"/>
<path d="M20.9364 99.0601C20.2605 98.162 19.31 97.2657 19.3211 96.3816C19.4321 87.6154 19.6872 78.8509 19.9487 70.0873C19.9772 69.1317 20.3022 68.185 20.4896 67.2342C20.758 67.1929 21.0263 67.1516 21.2947 67.1104C21.6 67.9718 22.149 68.8266 22.1729 69.6957C22.4224 78.7788 22.6254 87.8638 22.7024 96.9495C22.7084 97.651 21.6642 98.3614 20.9364 99.0601Z" fill="#765B00"/>
<path d="M42.0157 40.5314C42.2808 39.1322 42.4306 37.8819 42.8312 36.718C43.03 36.1402 43.6896 35.721 44.1407 35.23C44.5871 35.7284 45.3918 36.2087 45.4183 36.7285C45.5364 39.0479 45.6289 41.4016 45.3598 43.6995C45.0034 46.7431 44.373 49.7626 43.6893 52.7533C43.548 53.3714 42.6561 53.818 42.1101 54.3436C41.594 53.7774 40.5943 53.1698 40.6386 52.6515C40.9796 48.6632 41.5231 44.6923 42.0157 40.5314Z" fill="#765B00"/>
<path d="M17.8121 50.8699C16.2544 50.164 17.3041 49.3979 17.8266 49.1333C20.0769 47.9938 22.3578 46.8674 24.7329 46.0378C26.4318 45.4445 28.2981 45.3301 30.0897 45.002C30.1399 45.2316 30.1901 45.4613 30.2403 45.691C26.1472 47.4161 22.054 49.1411 17.8121 50.8699Z" fill="#765B00"/>
<path d="M54.5156 54.4854C52.447 54.7841 50.55 55.0222 48.653 55.2603C48.5749 54.9392 48.4968 54.618 48.4187 54.2968C51.7342 53.184 55.0497 52.0713 58.3652 50.9585C58.001 53.4697 56.3178 53.9123 54.5156 54.4854Z" fill="#765B00"/>
<path d="M22.6696 53.2134C21.908 52.7729 21.3006 52.4026 20.2478 51.7609C21.4777 50.8212 22.4994 50.0406 23.521 49.26C23.6751 49.4288 23.8292 49.5976 23.9833 49.7664C23.7318 50.1099 23.4802 50.4534 23.0468 51.0453C24.7565 52.0413 26.4315 53.0171 28.1065 53.993C27.9596 54.3218 27.8128 54.6507 27.666 54.9796C26.0519 54.4142 24.4378 53.8489 22.6696 53.2134Z" fill="#765B00"/>
<path d="M26.2249 43.4048C25.3165 43.2471 24.5717 43.0371 23.8269 42.8272C24.2058 42.3698 24.5542 41.5616 24.9699 41.5254C25.9404 41.4408 26.9432 41.7271 27.933 41.8632C27.4182 42.3596 26.9034 42.8561 26.2249 43.4048Z" fill="#765B00"/>
<path d="M39.0985 89.3774C39.3967 89.7596 39.5601 90.1317 39.7016 90.668C39.2647 90.7857 38.7706 90.862 38.4566 90.6594C38.1249 90.4452 37.9648 89.9652 37.7297 89.6014C38.141 89.5234 38.5523 89.4454 39.0985 89.3774Z" fill="#765B00"/>
<path d="M42.6137 80.0279C43.152 79.9808 43.4965 80.0014 43.8411 80.0221C43.8395 80.162 43.8378 80.302 43.8362 80.4419C43.1372 80.4419 42.4381 80.4419 41.312 80.4419C41.9428 80.2448 42.1814 80.1703 42.6137 80.0279Z" fill="#765B00"/>
<path d="M44.0491 75.8938C44.2892 75.4894 44.6628 75.219 45.0363 74.9487C45.1456 75.1649 45.2549 75.3811 45.3642 75.5974C44.9703 75.7409 44.5764 75.8844 44.0491 75.8938Z" fill="#765B00"/>
<path d="M54.6255 70.0354C54.7094 70.2017 54.6285 70.3109 54.422 70.4404C54.3835 70.3238 54.4382 70.163 54.6255 70.0354Z" fill="#765B00"/>
</g>
<defs>
<clipPath id="clip0_54754_30183">
<rect width="79.7357" height="100" fill="white" transform="translate(0.13208)"/>
</clipPath>
</defs>
</svg>
